<svg xmlns="http://www.w3.org/2000/svg" width="15" height="16" viewBox="0 0 15 16">
    <g fill="none" fill-rule="evenodd">
        <g fill="#0CAA26" fill-rule="nonzero">
            <g>
                <g>
                    <g>
                        <path d="M10.997 7.001c-.078-.172-.249-.281-.437-.281H8.64V.48c0-.265-.215-.48-.48-.48H6.24c-.265 0-.48.215-.48.48v6.24H3.84c-.188 0-.359.11-.437.281-.079.172-.048.373.076.515l3.36 3.84c.091.104.223.164.361.164.138 0 .27-.06.361-.164l3.36-3.84c.125-.141.154-.343.076-.515z" transform="translate(-144 -582) translate(16 416) translate(128 163) translate(0 3)"/>
                        <path d="M12.48 10.56v2.88H1.92v-2.88H0v3.84c0 .53.43.96.96.96h12.48c.53 0 .96-.43.96-.96v-3.84h-1.92z" transform="translate(-144 -582) translate(16 416) translate(128 163) translate(0 3)"/>
                    </g>
                </g>
            </g>
        </g>
    </g>
</svg>
