<svg xmlns="http://www.w3.org/2000/svg" width="24" height="16" viewBox="0 0 24 16">
    <g fill="none" fill-rule="evenodd">
        <g fill="#0CAA26">
            <g>
                <g>
                    <g>
                        <path d="M11.697 4.785c-1.76 0-3.19 1.43-3.19 3.19s1.43 3.19 3.19 3.19 3.19-1.43 3.19-3.19-1.43-3.19-3.19-3.19z" transform="translate(-128 -550) translate(16 416) translate(112 130) translate(0 4)"/>
                        <path d="M11.697 0C6.38 0 1.84 3.307 0 7.975c1.84 4.668 6.38 7.975 11.697 7.975 5.322 0 9.857-3.307 11.697-7.975C21.554 3.307 17.019 0 11.697 0zm0 13.292c-2.935 0-5.317-2.382-5.317-5.317s2.382-5.317 5.317-5.317 5.317 2.382 5.317 5.317-2.382 5.317-5.317 5.317z" transform="translate(-128 -550) translate(16 416) translate(112 130) translate(0 4)"/>
                    </g>
                </g>
            </g>
        </g>
    </g>
</svg>
