<svg xmlns="http://www.w3.org/2000/svg" width="64" height="64" viewBox="0 0 64 64">
    <g fill="none" fill-rule="evenodd">
        <path fill="#FFF2E9" fill-rule="nonzero" d="M39.52 64H24.48C10.96 64 0 53.04 0 39.52V24.48C0 10.96 10.96 0 24.48 0h15.04C53.04 0 64 10.96 64 24.48v15.04C64 53.04 53.04 64 39.52 64z"/>
        <g transform="translate(14 12)">
            <path fill="#DB5E00" fill-rule="nonzero" d="M20.52 39.76H2.8c-1.36 0-2.48-1.12-2.48-2.48V5.72c0-1.36 1.12-2.48 2.48-2.48h17.76c1.36 0 2.48 1.12 2.48 2.48v31.52c-.04 1.4-1.16 2.52-2.52 2.52z"/>
            <path fill="#FF6D00" fill-rule="nonzero" d="M20.52 36.72H2.8c-1.36 0-2.48-1.12-2.48-2.48V2.72C.32 1.36 1.44.24 2.8.24h17.76c1.36 0 2.48 1.12 2.48 2.48v31.52c-.04 1.4-1.16 2.48-2.52 2.48z"/>
            <circle cx="12.08" cy="33.68" r="1.8" fill="#FFF" fill-rule="nonzero"/>
            <g fill-rule="nonzero">
                <path fill="#FF6D00" d="M3.76 18.6c-1.56 0-2.8-1.24-2.8-2.8V3.84c0-1.56 1.24-2.8 2.8-2.8H23.6c1.56 0 2.8 1.24 2.8 2.8V15.8c0 1.56-1.24 2.8-2.8 2.8H3.76z" transform="translate(10 10)"/>
                <path fill="#FFF2E9" d="M23.56 1.68c1.16 0 2.12.96 2.12 2.12v11.96c0 1.16-.96 2.12-2.12 2.12H3.76c-1.16 0-2.12-.96-2.12-2.12V3.84c0-1.16.96-2.12 2.12-2.12h19.8m0-1.4H3.76C1.84.32.28 1.88.28 3.8v11.96c0 1.92 1.56 3.48 3.48 3.48H23.6c1.92 0 3.48-1.56 3.48-3.48V3.84c-.04-1.96-1.6-3.52-3.52-3.52z" transform="translate(10 10)"/>
            </g>
            <path stroke="#FFF" stroke-width=".752" d="M15.96 19.44L26.28 19.44M15.96 23.32L19.56 23.32M21.48 23.32L25.08 23.32M26.96 23.32L30.56 23.32"/>
            <path fill="#DB5E00" fill-rule="nonzero" d="M15.16 11.68s-1.08 1.04-1 3.36c.08 2.32 0 8.6 0 8.6s-.12 2.08 1.8 2.16c1.92.08 15.8 0 15.8 0s3.52.08 3.92-2.76v2.36s-.24 2.52-2.52 2.52H14.12s-1.96.08-2.52-2.52V14.2s.04-2.52 2.52-2.52h1.04z"/>
            <path stroke="#FFF" stroke-linecap="round" stroke-linejoin="round" stroke-width="1.111" d="M6.68 3.72L16.64 3.72"/>
        </g>
    </g>
</svg>
