<svg xmlns="http://www.w3.org/2000/svg" width="64" height="64" viewBox="0 0 64 64">
    <g fill="none" fill-rule="evenodd">
        <path fill="#FFF4F3" fill-rule="nonzero" d="M39.52 64H24.48C10.96 64 0 53.04 0 39.52V24.48C0 10.96 10.96 0 24.48 0h15.04C53.04 0 64 10.96 64 24.48v15.04C64 53.04 53.04 64 39.52 64z"/>
        <g transform="translate(12.8 11.2)">
            <path fill="#FF3F2D" fill-rule="nonzero" d="M13.96 20.44l1.72-7.88c.16-.8-.56-1.48-1.36-1.24l-7.68 2.44c-.76.24-1 1.24-.4 1.76l5.96 5.4c.6.6 1.56.28 1.76-.48z"/>
            <g fill="#FF3F2D" fill-rule="nonzero">
                <path d="M3.888 6.272H6.327999999999999V18.672H3.888z" transform="translate(0 23.2) rotate(-39.139 5.107 12.472)"/>
                <path d="M4.44 5.24l8.04 9.44 10.64.24s2.72.08 5.04-1.96l8.68-6.84s2.48-2.2.64-4.04c-1.64-1.64-3.48-.32-3.88 0-.4.32-7.8 6.08-7.8 6.08h-7.68l.08-2.4 5.96-.12s2.48-.48 2.56-2.6C26.8.92 25.2.48 23.92.48c-1.28 0-11.2-.56-12.84-.32C9.44.4 4.44 5.24 4.44 5.24z" transform="translate(0 23.2)"/>
            </g>
            <g stroke="#FFF" stroke-linecap="round" stroke-linejoin="round" stroke-width="1.278">
                <path d="M3.56 3.32L.28 3.04M3.52 3.32L4.44.2" transform="translate(11.2 5.6)"/>
            </g>
            <circle cx="23.32" cy="13.4" r="6.16" fill="#FF3F2D" fill-rule="nonzero"/>
            <path fill="#FFF" fill-rule="nonzero" d="M25.56 10.76v.36c0 .08-.04.08-.08.08h-.44c-.04 0-.04 0-.04.04v5c0 .08-.04.08-.08.08h-.68c-.08 0-.08-.04-.08-.08v-.28-.04h-.04c-.12.16-.28.28-.48.36-.2.08-.36.12-.6.12-.44 0-.8-.12-1.08-.32s-.48-.52-.64-.92c-.12-.32-.16-.72-.16-1.16 0-.44.04-.8.16-1.08.12-.4.32-.72.64-.92.28-.24.64-.32 1.12-.32.2 0 .4.04.6.12.2.08.36.2.48.36h.04v-.92c0-.04 0-.04-.04-.04h-1.4c-.08 0-.08-.04-.08-.08v-.36c0-.04.04-.08.08-.08h1.4c.04 0 .04 0 .04-.04v-.52c0-.08.04-.08.08-.08h.68c.08 0 .08.04.08.08v.52c0 .04 0 .04.04.04h.44s.04.04.04.08zm-1.48 3.28c0-.52-.08-.88-.24-1.16-.16-.32-.44-.44-.76-.44-.36 0-.64.16-.8.44-.2.32-.28.68-.28 1.2 0 .48.08.84.24 1.12.16.32.48.48.84.48s.6-.16.8-.48c.12-.28.2-.64.2-1.16z"/>
            <path fill="#FF3F2D" fill-rule="nonzero" d="M12.8 13.92c0-6.04 5.24-10.88 11.4-10.2 4.68.52 8.44 4.2 9.04 8.88.2 1.52.04 2.96-.36 4.32-.24.76.08 1.6.8 1.96.92.48 2 0 2.32-.96.48-1.6.68-3.32.56-5.12C36.08 6.16 30.64.84 24 .4 16.08-.12 9.48 6.12 9.48 13.92c0 .4.04.8.04 1.2l3.28-.16c.04-.32 0-.68 0-1.04z"/>
            <path fill="#DB1107" fill-rule="nonzero" d="M24.28 18.32c-3.44-.16-6.08-3.12-5.92-6.56.08-1.2.48-2.32 1.12-3.24-1.6 1.12-2.68 3-2.68 5.12 0 3.44 2.8 6.24 6.24 6.24 2.12 0 4-1.04 5.12-2.68-1.12.76-2.44 1.16-3.88 1.12zM8.04 41.24L9.96 39.68 8.24 37.6 6.36 39.16zM10.6 35.68s9.84.88 12.12.4c2.28-.52 2.84-.4 4.2-1.28C28.28 33.92 38 26.04 38 26.04s.56 1.04-.2 2.28c-1.08 1.72-10.12 8.28-10.12 8.28s-1.88 1.6-4.56 1.56c-2.64-.08-10.64-.24-10.64-.24l-1.88-2.24z"/>
            <path stroke="#FF897D" stroke-linecap="round" stroke-linejoin="round" stroke-width="1.108" d="M8.16 27.32s2.68-2.52 4.96-2.52h3.44"/>
            <path fill="#DB1107" fill-rule="nonzero" d="M7.76 13.52s-.52 1.12 0 1.72c.52.6 4.48 4.32 4.8 4.44.32.12 1.52.12 1.6-.4 0 0-.16 1.08-.48 1.4-.32.36-1 .72-1.84-.04 0 0-5.24-4.72-5.4-4.92-.2-.2-.92-1.36.28-1.96l1.08-.36-.04.12z"/>
        </g>
    </g>
</svg>
