<svg xmlns="http://www.w3.org/2000/svg" width="64" height="64" viewBox="0 0 64 64">
    <g fill="none" fill-rule="evenodd">
        <path fill="#FFFAEB" fill-rule="nonzero" d="M39.52 64H24.48C10.96 64 0 53.04 0 39.52V24.48C0 10.96 10.96 0 24.48 0h15.04C53.04 0 64 10.96 64 24.48v15.04C64 53.04 53.04 64 39.52 64z"/>
        <g transform="translate(10.8 15.2)">
            <path fill="#FFCE00" fill-rule="nonzero" d="M2.88 4.28v15.16s-.24 2.44 2.6 2.8h20c1.4-3.68 4.96-6.32 9.16-6.32.24 0 .52 0 .76.04V4.12c0-2.16-1.72-3.88-3.88-3.88H5.48c-.36 0-2.52 2.04-2.6 4.04zM1.8.92C2.36.56 3.04.32 4 .24c-.8 0-1.56.24-2.2.68zM.12 21.12c0 2.08 1.64 3.8 3.72 3.88-.68-.08-3.44-.52-3.72-3.88z"/>
            <path fill="#FF9D00" fill-rule="nonzero" d="M4 25h-.16H4zM1.8.92C0 2.04.12 4.12.12 4.12.12 2.8.8 1.64 1.8.92z"/>
            <path fill="#FF9D00" fill-rule="nonzero" d="M5.48 22.28c-2.84-.36-2.6-2.8-2.6-2.8V4.28C2.96 2.24 5.12.24 5.48.24H4C3.04.32 2.32.6 1.8.92.8 1.64.12 2.8.12 4.12v16.96c.28 3.4 3.04 3.84 3.72 3.88h21.04c.08-.96.28-1.88.6-2.72h-20v.04z"/>
            <circle cx="34.64" cy="25.72" r="7.64" fill="#FFCE00" fill-rule="nonzero"/>
            <path fill="#FF9D00" fill-rule="nonzero" d="M36.12 31.48c-4.2-.2-7.44-3.8-7.24-8 .08-1.48.56-2.84 1.36-4-1.96 1.36-3.28 3.68-3.28 6.24 0 4.2 3.4 7.64 7.64 7.64 2.6 0 4.88-1.28 6.24-3.28-1.28.96-2.92 1.48-4.72 1.4z"/>
            <g fill-rule="nonzero">
                <path fill="#FF9D00" d="M6.6 1.8v.52c0 .08-.04.12-.12.12H5.8c-.04 0-.04 0-.04.04v7.28c0 .08-.04.12-.12.12h-1c-.08 0-.12-.04-.12-.12v-.44-.04h-.04c-.2.2-.44.4-.68.52-.28.12-.56.2-.84.2-.64 0-1.16-.16-1.56-.48C1 9.2.68 8.76.48 8.2.32 7.72.24 7.16.24 6.52c0-.6.08-1.16.2-1.6.2-.56.48-1.04.92-1.36.44-.32.96-.48 1.6-.48.28 0 .6.04.84.16.28.12.48.28.68.52 0 0 .04.04.04 0V2.44c0-.04 0-.04-.04-.04H2.4c-.08 0-.12-.04-.12-.12v-.52c0-.08.04-.12.12-.12h2.04c.04 0 .04 0 .04-.04V.84c0-.08.04-.12.12-.12h1c.08 0 .12.04.12.12v.76c0 .04 0 .04.04.04h.68c.12.04.16.08.16.16zM4.48 6.56c0-.72-.12-1.28-.32-1.68-.24-.44-.64-.68-1.12-.68-.52 0-.92.2-1.16.64-.28.44-.44 1-.44 1.72 0 .68.12 1.2.32 1.64.24.48.68.72 1.24.72.52 0 .88-.24 1.16-.72.2-.36.32-.88.32-1.64z" transform="translate(31.2 20)"/>
                <path fill="#FFF" d="M6.36 1.2v.52c0 .08-.04.12-.12.12h-.68c-.04 0-.04 0-.04.04V9.2c0 .08-.04.12-.12.12h-1c-.08 0-.12-.04-.12-.12v-.44-.04h-.04c-.2.2-.44.4-.68.52-.28.12-.56.2-.84.2-.64 0-1.16-.16-1.56-.48-.4-.32-.72-.76-.92-1.32C.08 7.16 0 6.6 0 5.96c0-.6.08-1.16.2-1.6.2-.56.48-1.04.92-1.36.44-.32.96-.48 1.6-.48.28 0 .6.04.84.16.28.12.48.28.68.52 0 0 .04.04.04 0V1.88c0-.04 0-.04-.04-.04H2.2c-.08 0-.12-.04-.12-.12V1.2c0-.08.04-.12.12-.12h2.04c.04 0 .04 0 .04-.04V.28c0-.08.04-.12.12-.12h1c.08 0 .12.04.12.12v.76c0 .04 0 .04.04.04h.68c.04 0 .12.04.12.12zM4.2 5.96c0-.72-.12-1.28-.32-1.68-.24-.44-.64-.68-1.12-.68-.52 0-.92.2-1.16.64-.28.44-.44 1-.44 1.72 0 .68.12 1.2.32 1.64.24.48.68.72 1.24.72.52 0 .88-.24 1.16-.72.2-.32.32-.88.32-1.64z" transform="translate(31.2 20)"/>
            </g>
            <path stroke="#FFF" stroke-linecap="round" stroke-linejoin="round" stroke-width="1.495" d="M5.48 7.88L25.4 7.88"/>
            <g stroke="#FFF">
                <path stroke-width="2.005" d="M4.2 8.64L4.2 0.16" transform="translate(4.4 12)"/>
                <path stroke-width="2.979" d="M8.36 8.64L8.36 0.16" transform="translate(4.4 12)"/>
                <path stroke-width="2.005" d="M13.12 8.64L13.12.16M20.16 8.64L20.16.16" transform="translate(4.4 12)"/>
                <path stroke-width="1.277" d="M.44 8.64L.44.16M16.6 8.64L16.6.16" transform="translate(4.4 12)"/>
            </g>
        </g>
    </g>
</svg>
