<svg xmlns="http://www.w3.org/2000/svg" width="64" height="64" viewBox="0 0 64 64">
    <g fill="none">
        <path fill="#D9FCE7" d="M39.52 64H24.48C10.96 64 0 53.04 0 39.52V24.48C0 10.96 10.96 0 24.48 0h15.08C53.04 0 64 10.96 64 24.48v15.08C64 53.04 53.04 64 39.52 64z"/>
        <g>
            <g fill="#2FB839">
                <path d="M11.88 46c-.44 0-.84-.32-.96-.76-.12-.52.2-1.04.76-1.16l.96-.24c.52-.12 1.04.16 1.2.68.12.52-.16 1.04-.68 1.2-.32.08-.68.16-1.04.24-.12.04-.2.04-.24.04zm4.36-1.4c-.36 0-.72-.24-.88-.6-.2-.48 0-1.08.52-1.28 1.64-.72 4.24-2.16 6.2-3.88.4-.36 1.04-.32 1.4.08.36.4.32 1.04-.08 1.4-2.12 1.88-4.88 3.4-6.72 4.2-.16.04-.28.08-.44.08zm-9.76-2.64c-.56 0-.96-.44-.96-1s.44-1 .96-1c4.4 0 8.72-1.52 12.16-4.32.44-.36 1.04-.28 1.36.16.36.4.28 1.04-.16 1.36-3.76 3.12-8.52 4.8-13.36 4.8zm-4.08-.4c-.08 0-.12 0-.2-.04l-1.08-.24c-.52-.12-.84-.68-.72-1.2.12-.52.68-.84 1.2-.72.32.08.68.16 1 .24.52.12.88.64.76 1.16-.12.48-.52.8-.96.8z" transform="translate(10 10)"/>
                <g>
                    <path d="M16 28.56c-2.12-4.2-5.48-6.04-6.96-7.08l-4.32 5.44c-.92 1.12-.72 2.8.44 3.72l8 6.32c.88.68 2.08.72 3 .2.56-2.24.92-6.44-.16-8.6z" transform="translate(10 10) translate(12)"/>
                    <path d="M17.92 35.16l.24-3.36c.44-4.88-3.36-8.04-6.76-10.76l-10.12-8C.12 12.12-.04 10.48.84 9.32l6.32-8C8.08.16 9.72 0 10.88.88L23.6 10.96c4.56 3.6 5.36 10.24 1.72 14.84l-7.4 9.36z" transform="translate(10 10) translate(12)"/>
                </g>
            </g>
            <path fill="#127F17" d="M21.04 21.48s5.4 3.08 6.96 7.08c1.56 4 .16 8.56.16 8.56s-1.36 1.12-3-.2c-1.64-1.28-8-6.32-8-6.32s-1.84-1.2-.44-3.72l4.32-5.4z" transform="translate(10 10)"/>
        </g>
        <path fill="#0F680F" d="M30.88 31.72s4.24 2.04 6 6.12c1.8 4.08.12 7.4.12 7.4s-.64.8-1.64.32c0 0 .72-5.4-1.12-7.92-1.72-2.36-4.76-4.2-4.76-4.2l1.4-1.72z"/>
    </g>
</svg>
