<svg xmlns="http://www.w3.org/2000/svg" width="64" height="64" viewBox="0 0 64 64">
    <g fill="none" fill-rule="evenodd">
        <path fill="#00CC18" fill-rule="nonzero" d="M1.352 31.682c-.398.12-.835.238-1.352.238.477 0 .954-.079 1.352-.238z"/>
        <path fill="#12AF29" fill-rule="nonzero" d="M0 31.761s13.237.279 18.047 0H0z"/>
        <path fill="#E9F4FF" fill-rule="nonzero" d="M39.354 63.722H24.407C10.971 63.722.08 52.83.08 39.394V24.447C.08 11.011 10.97.12 24.407.12h14.947c13.436 0 24.328 10.892 24.328 24.328v14.947c0 13.436-10.892 24.328-24.328 24.328z"/>
        <g>
            <path fill="#0062FE" fill-rule="nonzero" d="M12.124 36.73h15.623-15.623zM29.973 34.544c0 .16-.12.994-.716 1.59.437-.397.716-.954.716-1.59zM32.08 22.062h2.981c-2.306.04-2.942 0-2.981 0zM12.124 7.394h15.623c2.385 0 4.333 1.948 4.333 4.333v8.546-1.749c2.583.278 3.458 0 3.458 0s3.498-.199 4.214-3.26V4.93c0-2.663-2.187-4.85-4.85-4.85H4.969C2.306.08.119 2.267.119 4.93v12.323c0 2.664 2.187 4.85 4.85 4.85H7.79V11.766c0-2.424 1.948-4.372 4.333-4.372z" transform="translate(11.925 13.516)"/>
            <path fill="#0062FE" fill-rule="nonzero" d="M11.09 9.779c.279-.12.597-.239 1.034-.278-.397 0-.715.119-1.033.278zM10.852 9.898c.04-.04.08-.04.12-.08-.04.04-.08.08-.12.08zM9.938 11.33v-.04.04z" transform="translate(11.925 13.516)"/>
            <path fill="#0C51BF" fill-rule="nonzero" d="M27.667 33.75s-10.057.238-12.561 0c-2.505-.24-2.346-1.83-2.346-1.83l-.08-9.818H9.859v12.442c0 .318.08.596.16.875.357.795 1.112 1.351 2.066 1.351h15.623c.596 0 1.113-.238 1.51-.596.557-.596.676-1.431.716-1.59v-3.896c.04 2.505-2.266 3.061-2.266 3.061zM12.76 12.442c.16-2.782 1.79-2.902 2.028-2.941h-2.664c-.437.04-.755.119-1.033.278-.04 0-.08.04-.12.04-.04.04-.08.04-.119.08-.437.317-.795.794-.914 1.35v.04c-.04.12-.04.279-.04.398v10.335h2.822c-.04-4.054-.04-8.228.04-9.58z" transform="translate(11.925 13.516)"/>
            <path fill="#0C51BF" fill-rule="nonzero" d="M9.898 34.783c.04.238.12.437.16.596-.12-.278-.16-.557-.16-.875v.279zM29.257 36.134c-.397.358-.914.596-1.51.596.715 0 1.192-.238 1.51-.596zM10.057 35.379c.596 1.43 2.067 1.351 2.067 1.351-.914 0-1.71-.556-2.067-1.351zM29.973 34.504c0 .04 0 .04 0 0 0 .04 0 0 0 0zM10.971 9.819c.04-.04.08-.04.12-.04-.04 0-.08.04-.12.04zM9.898 11.727c0-.16 0-.279.04-.398-.04.239-.04.398-.04.398zM14.788 9.5c.04 0 .04 0 0 0zM10.852 9.898c-.596.398-.835.954-.914 1.352.12-.557.437-1.034.914-1.352zM39.712 15.265v1.947c0 2.624-2.067 4.73-4.69 4.85h.476c3.021-.159 4.015-2.544 4.174-3.697.12-.755.04-3.1.04-3.1zM32.08 22.062L32.08 20.273zM7.513.08S3.617 1.71 3.458 6.32c-.159 3.936-.04 8.468-.04 9.78 0 .317.08.596.2.874.397.795 1.748 2.107 4.134 1.59v3.498H4.253s-3.696.04-4.173-4.174V4.373S.755.517 4.214.08h3.299z" transform="translate(11.925 13.516)"/>
            <path fill="#0C51BF" fill-rule="nonzero" d="M39.712 17.212v-1.947c-.676 3.06-4.214 3.26-4.214 3.26s-.874.277-3.458 0v3.498c.04 0 .676.04 2.981 0 2.624-.04 4.69-2.187 4.69-4.81z" transform="translate(11.925 13.516)"/>
            <path fill="#0062FE" fill-rule="nonzero" d="M27.747 9.5H14.787c-.238 0-1.868.12-2.027 2.942-.08 1.392-.08 5.526-.08 9.62 0 4.93.08 9.819.08 9.819s-.159 1.59 2.346 1.828c2.504.239 12.561 0 12.561 0s2.306-.556 2.306-3.06V11.726c0-1.233-.994-2.226-2.226-2.226z" transform="translate(11.925 13.516)"/>
            <g stroke="#FFF" stroke-linecap="round" stroke-linejoin="round" stroke-width="1.554">
                <path d="M4.452 14.191L4.452.318M4.452 14.191L.119 10.653M4.492 14.152L8.825 10.614" transform="translate(11.925 13.516) translate(15.503 13.913)"/>
            </g>
        </g>
    </g>
</svg>
