<svg xmlns="http://www.w3.org/2000/svg" xmlns:xlink="http://www.w3.org/1999/xlink" width="64" height="65" viewBox="0 0 64 65">
    <defs>
        <path id="prefix__a" d="M0 0.04L63.96 0.04 63.96 64 0 64z"/>
        <path id="prefix__c" d="M0 64.353L63.96 64.353 63.96 0.393 0 0.393z"/>
    </defs>
    <g fill="none" fill-rule="evenodd">
        <path fill="#F9F3FF" fill-rule="nonzero" d="M39.52 64H24.48C10.96 64 0 53.04 0 39.52V24.48C0 10.96 10.96 0 24.48 0h15.04C53.04 0 64 10.96 64 24.48v15.04C64 53.04 53.04 64 39.52 64z"/>
        <g stroke="#CB88FA" stroke-linecap="round" stroke-linejoin="round" stroke-width="1.456">
            <path d="M12.64 4.12L.32 4.12M12.6 4.04L9.48 7.88M12.6 4.08L9.48.24" transform="translate(28.8 14)"/>
        </g>
        <path stroke="#E8D2FF" stroke-linecap="round" stroke-linejoin="round" stroke-width="1.638" d="M32.8 27.36h10.16s5.12-.64 4.52 3.64"/>
        <path fill="#CB88FA" fill-rule="nonzero" d="M22.56 49.64c-1.44-.2-2.4-.72-3.04-1.32.72.84 1.84 1.32 3.04 1.32zM47.12 49.36c-.44.16-.92.24-1.48.28.52 0 1-.08 1.48-.28zM49.84 45.44v-3.36 3.36z"/>
        <path fill="#A866E2" fill-rule="nonzero" d="M25.84 49.64s14.52.28 19.8 0h-19.8zM47.12 49.36c2.32-.76 2.72-2.92 2.72-3.96 0 1.84-1.12 3.36-2.72 3.96z"/>
        <path fill="#A866E2" fill-rule="nonzero" d="M44.24 46.68H28.32v2.96H45.6c.56-.04 1.08-.12 1.48-.28 1.6-.6 2.72-2.16 2.72-3.96v-3.36h-2.88c.4 4.72-2.68 4.64-2.68 4.64zM18.32 34.28h-.08V44.4s-.44 2.36 1.24 3.96c-.72-.76-1.16-1.76-1.16-2.92V34.28z"/>
        <path fill="#A866E2" fill-rule="nonzero" d="M25.44 46.68s-3.56.36-4.08-2.32V34.04c-.76.2-1.56.32-2.4.32-.24 0-.44 0-.68-.04v11.16c0 1.12.44 2.16 1.16 2.92.64.6 1.64 1.12 3.04 1.32h3.28l.72-2.96h-1.04v-.08zM28.32 46.68L26.52 46.68 25.84 49.64 28.32 49.64z"/>
        <circle cx="19" cy="24.64" r="7.52" fill="#CB88FA" fill-rule="nonzero"/>
        <g fill-rule="nonzero">
            <path fill="#A866E2" d="M6.92 2v.52c0 .08-.04.12-.12.12h-.68c-.04 0-.04 0-.04.04v7.16c0 .08-.04.12-.12.12h-1c-.08 0-.12-.04-.12-.12V9.4v-.04H4.8c-.2.2-.4.4-.68.52-.24.12-.56.2-.84.2-.64 0-1.16-.16-1.56-.48-.4-.32-.72-.76-.92-1.32-.16-.44-.24-1-.24-1.68 0-.6.08-1.12.2-1.56.2-.56.48-1 .88-1.32.4-.32.96-.48 1.6-.48.28 0 .56.04.84.16.28.12.48.28.68.48 0 0 .04.04.04 0V2.6c0-.04 0-.04-.04-.04h-2c-.08 0-.12-.04-.12-.12V2c0-.08.04-.12.12-.12h2c.04 0 .04 0 .04-.04v-.76c0-.08.04-.12.12-.12h1c.08 0 .12.04.12.12v.76c0 .04 0 .04.04.04h.72c.08 0 .12.04.12.12zM4.8 6.72c0-.72-.12-1.28-.32-1.68-.24-.44-.6-.68-1.12-.68-.52 0-.92.2-1.16.64-.28.44-.4 1-.4 1.72 0 .68.12 1.2.32 1.6.24.48.68.72 1.24.72.52 0 .88-.24 1.16-.72.2-.32.28-.88.28-1.6z" transform="translate(15.2 19.6)"/>
            <path fill="#FFF" d="M6.68 1.44v.52c0 .08-.04.12-.12.12h-.68c-.04 0-.04 0-.04.04v7.16c0 .08-.04.12-.12.12h-1c-.08 0-.12-.04-.12-.12v-.44-.04h-.04c-.2.2-.4.4-.68.52s-.56.2-.84.2c-.64 0-1.16-.16-1.56-.48-.4-.32-.72-.76-.92-1.32-.16-.44-.24-1-.24-1.68 0-.6.08-1.12.2-1.56.2-.56.48-1 .88-1.32.4-.32.96-.48 1.6-.48.28 0 .56.04.84.16.28.12.48.28.68.48 0 0 .04.04.04 0V2.04c0-.04 0-.04-.04-.04h-2c-.08 0-.12-.04-.12-.12v-.52c0-.08.04-.12.12-.12h2c.04 0 .04 0 .04-.04V.44c0-.08.04-.12.12-.12h1c.08 0 .12.04.12.12v.76c0 .04 0 .04.04.04h.68c.08.04.16.08.16.2zM4.56 6.12c0-.72-.12-1.28-.32-1.68-.24-.44-.6-.68-1.12-.68-.52 0-.92.2-1.16.64-.28.44-.4 1-.4 1.72 0 .68.12 1.2.32 1.6.24.48.68.72 1.24.72.52 0 .88-.24 1.16-.72.16-.32.28-.84.28-1.6z" transform="translate(15.2 19.6)"/>
        </g>
        <path fill="#A866E2" fill-rule="nonzero" d="M20.48 30.32c-4.16-.24-7.36-3.76-7.16-7.92.08-1.48.56-2.8 1.36-3.92-1.96 1.36-3.24 3.64-3.24 6.2 0 4.16 3.36 7.52 7.52 7.52 2.56 0 4.8-1.28 6.2-3.24-1.32.92-2.92 1.44-4.68 1.36z"/>
        <path fill="#CB88FA" fill-rule="nonzero" d="M40.08 38.88V36.8c0-1.92 1.56-3.48 3.48-3.48h6.28v-4.28c0-2.32-1.88-4.24-4.24-4.24H28.64c-.08 4.44-3.16 8.16-7.28 9.2v10.32c.52 2.68 4.08 2.32 4.08 2.32H44.2s2.96.08 2.76-4.32h-3.44c-1.88.04-3.44-1.52-3.44-3.44z"/>
        <path fill="#CB88FA" fill-rule="nonzero" d="M51 35.24h-7.44c-.88 0-1.56.68-1.56 1.56v2.08c0 .88.68 1.56 1.56 1.56H51c.88 0 1.56-.68 1.56-1.56V36.8c0-.84-.72-1.56-1.56-1.56zm-6.48 3.72c-.72 0-1.28-.56-1.28-1.28s.56-1.28 1.28-1.28 1.28.56 1.28 1.28-.56 1.28-1.28 1.28z"/>
        <g>
            <g transform="translate(0 .353)">
                <mask id="prefix__b" fill="#fff">
                    <use xlink:href="#prefix__a"/>
                </mask>
                <path fill="#E9F8FF" d="M39.95 64H24.01C10.75 64 0 53.25 0 39.99V24.05C0 10.79 10.75.04 24.01.04h15.94c13.26 0 24.01 10.75 24.01 24.01v15.94C63.96 53.25 53.21 64 39.95 64" mask="url(#prefix__b)"/>
            </g>
            <path fill="#0098FF" d="M11.756 42.07c-2.085 0-3.782-1.847-3.782-4.12V24.029c0-2.272 1.697-4.12 3.782-4.12h21.748c2.085 0 3.781 1.848 3.781 4.12V37.95c0 2.272-1.696 4.12-3.781 4.12H11.756z"/>
            <path fill="#1A70D6" d="M12.266 19.908s-1.337 1.448-1.233 4.601c.105 3.154 0 11.74 0 11.74s-.129 2.859 2.18 2.975c2.308.117 19.32 0 19.32 0s4.231.133 4.752-3.777l.049 3.198s-.278 3.426-3.062 3.426H10.987s-2.412.082-3.061-3.426V23.334s.048-3.426 3.061-3.426h1.279z"/>
            <path fill="#E9F8FF" d="M20.306 24.291c-3.354 1.598-4.743 5.544-3.103 8.812 1.64 3.268 5.69 4.622 9.043 3.024 3.355-1.598 4.744-5.544 3.103-8.812-1.64-3.269-5.689-4.622-9.043-3.024"/>
            <path fill="#0098FF" d="M24.237 30.068c0-.635-.097-1.119-.291-1.452-.225-.386-.555-.578-.99-.578-.465 0-.81.181-1.036.544-.248.379-.373.878-.373 1.498 0 .582.097 1.051.292 1.406.225.416.593.625 1.106.625.45 0 .792-.205 1.024-.613.178-.318.268-.794.268-1.43m1.897-4.118v.466c0 .075-.038.113-.116.113h-.594c-.03 0-.046.015-.046.046v6.273c0 .075-.04.113-.117.113h-.884c-.078 0-.117-.038-.117-.113v-.375c0-.015-.006-.026-.017-.034-.012-.007-.026-.003-.041.012-.171.189-.372.336-.606.442-.232.106-.485.16-.756.16-.559 0-1.023-.135-1.391-.404-.369-.268-.64-.648-.81-1.14-.147-.4-.221-.885-.221-1.452 0-.53.062-.987.186-1.372.163-.5.432-.89.804-1.169.372-.28.85-.42 1.432-.42.264 0 .514.052.75.153.237.103.441.248.612.437.015.016.029.02.04.011.012-.007.018-.018.018-.033v-1.09c0-.03-.015-.045-.047-.045H22.41c-.078 0-.116-.038-.116-.113v-.466c0-.075.038-.113.116-.113h1.804c.032 0 .047-.015.047-.045v-.658c0-.076.039-.114.117-.114h.884c.078 0 .117.038.117.114v.658c0 .03.015.045.046.045h.594c.078 0 .116.038.116.113M54.527 40.92c-.34 0-.614-.274-.614-.614v-8.964c0-.34.275-.615.614-.615h1.977c.34 0 .615.275.615.615v8.964c0 .34-.276.615-.615.615h-1.977z"/>
            <path fill="#E9F8FF" d="M56.504 30.112h-1.977c-.679 0-1.23.55-1.23 1.23v8.964c0 .679.551 1.23 1.23 1.23h1.977c.679 0 1.23-.551 1.23-1.23v-8.965c0-.678-.551-1.229-1.23-1.229zm-1.977 10.194h1.977v-8.965h-1.977v8.965z"/>
            <path fill="#0098FF" d="M45.276 43.342c-1.798 0-3.257-.433-4.22-1.254-2.239-1.904-4.72-2.592-5.135-2.697h-3.718c-.015 0-.03 0-.046-.002-.97-.073-2.808-.758-2.808-2.823 0-2.075 1.838-2.724 2.81-2.778h7.042v-6.235c0-.323.254-.589.576-.603.017-.001 1.7-.078 3.682-.078.396 0 .805.003 1.217.01 1.331.024 2.63.388 3.756 1.053 1.92 1.136 4.797 2.916 4.825 2.933.178.11.287.305.287.514v8.864c0 .179-.08.349-.217.464-1.824 1.525-5.21 2.632-8.051 2.632z"/>
            <path fill="#E9F8FF" d="M43.459 26.268c-1.996 0-3.64.075-3.71.078-.645.03-1.152.561-1.152 1.207v5.63h-6.405c-.022 0-.044 0-.066.002-1.359.075-3.38 1.037-3.38 3.38 0 2.328 2.013 3.324 3.366 3.426.03.003.06.004.091.004h3.64c.527.143 2.792.827 4.821 2.553 1.074.915 2.669 1.398 4.612 1.398 3.015 0 6.486-1.14 8.438-2.773.275-.23.434-.569.434-.927v-8.864c0-.418-.217-.807-.573-1.027-.029-.017-2.91-1.801-4.836-2.94-1.216-.718-2.617-1.111-4.052-1.137-.416-.007-.829-.01-1.228-.01m0 1.208c.392 0 .798.002 1.206.01 1.228.022 2.424.357 3.46.97 1.937 1.145 4.814 2.926 4.814 2.926v8.864c-1.691 1.415-4.903 2.492-7.663 2.492-1.525 0-2.911-.328-3.83-1.11-2.58-2.195-5.453-2.841-5.453-2.841h-3.79s-2.25-.17-2.25-2.221c0-2.052 2.24-2.175 2.24-2.175h7.612v-6.838s1.664-.077 3.654-.077"/>
            <mask id="prefix__d" fill="#fff">
                <use xlink:href="#prefix__c"/>
            </mask>
            <path fill="#1A70D6" d="M54.527 40.306L56.504 40.306 56.504 38.164 54.527 38.164zM30.09 37.362s.342 1.327 2.113 1.425c1.771.099 3.02 0 3.405 0 .385 0 3.336.821 5.839 2.842 2.503 2.02 8.221 1.11 11.493-1.383v-2.482s-5.053 2.956-8.67 2.19c-3.443-.73-2.34-2.19-7.666-2.98-5.073-.754-6.515.388-6.515.388" mask="url(#prefix__d)"/>
        </g>
    </g>
</svg>
