<svg xmlns="http://www.w3.org/2000/svg" width="64" height="64" viewBox="0 0 64 64">
    <g fill="none" fill-rule="evenodd">
        <g>
            <g transform="translate(-156 -118) translate(156 118)">
                <rect width="64" height="64" fill="#FFF7F3" fill-rule="nonzero" rx="24.03"/>
                <g transform="translate(13 13)">
                    <rect width="28.25" height="16.586" x="9.04" fill="#FF8841" fill-rule="nonzero" rx="2.67"/>
                    <path fill="#FF8841" fill-rule="nonzero" stroke="#FFF7F3" stroke-width=".87" d="M16.48 2.547h13.16c.582 1.991 2.113 3.54 4.06 4.108v3.39s-2.78.174-4.06 4.025H16.8s.16-3.276-4.22-3.913V6.635s3.48-.76 3.9-4.088z"/>
                    <ellipse cx="23.16" cy="8.298" fill="#FFF7F3" fill-rule="nonzero" rx="2.39" ry="2.455"/>
                    <path fill="#FF8841" fill-rule="nonzero" d="M6.122 26.354L8.467 26.323 8.312 38.234 5.967 38.264z" transform="rotate(-39.14 7.217 32.294)"/>
                    <path fill="#FF8841" fill-rule="nonzero" d="M5.46 25.296l7.58 9.14 10.05.236c1.753-.056 3.434-.723 4.77-1.89l8.18-6.644s2.34-2.147.6-3.913c-1.037-.992-2.643-.992-3.68 0-.39.298-7.32 5.874-7.32 5.874h-7.26l.06-2.341 5.63-.123s2.35-.473 2.41-2.537c.06-2.064-1.44-2.475-2.64-2.475-1.2 0-10.57-.534-12.12-.298-1.55.236-6.26 4.97-6.26 4.97z"/>
                    <path stroke="#FF8841" stroke-linecap="round" stroke-linejoin="round" stroke-width="1.7" d="M3.2 1.541L6.41 1.541M0 7.888L6.41 7.888M3.2 14.224L6.41 14.224"/>
                </g>
            </g>
        </g>
    </g>
</svg>
