<svg xmlns="http://www.w3.org/2000/svg" width="64" height="64" viewBox="0 0 64 64">
    <g fill="none" fill-rule="evenodd">
        <g>
            <g>
                <path fill="#00CC18" fill-rule="nonzero" d="M1.36 31.88c-.4.12-.84.24-1.36.24.48 0 .96-.08 1.36-.24z" transform="translate(-156 -118) translate(156 118)"/>
                <path fill="#12AF29" fill-rule="nonzero" d="M0 31.96s13.32.28 18.16 0H0z" transform="translate(-156 -118) translate(156 118)"/>
                <g>
                    <path fill="#EAF5EC" fill-rule="nonzero" d="M39.52 64H24.48C10.96 64 0 53.04 0 39.52V24.48C0 10.96 10.96 0 24.48 0h15.04C53.04 0 64 10.96 64 24.48v15.04C64 53.04 53.04 64 39.52 64z" transform="translate(-156 -118) translate(156 118)"/>
                    <g transform="translate(-156 -118) translate(156 118) translate(8 15.6)">
                        <g stroke="#00CC18" stroke-linecap="round" stroke-linejoin="round" stroke-width="1.564">
                            <path d="M4.36 13.44L4.36.32M4.36 13.44L.28 10.08M4.44 13.4L8.52 10.04"/>
                        </g>
                        <path fill="#00CC18" fill-rule="nonzero" d="M21.4 25.64h-1.36l-.76 3.16h1.48s.48-1.28.64-3.16z"/>
                        <path fill="#12AF29" fill-rule="nonzero" d="M21.4 25.64c.2-2.32-.08-5.56-2.24-8.56-3.68-5.08-7.84-5.32-7.84-5.32v2.84c4.16 1.32 7.2 5.24 7.2 9.84 0 1.56-.36 3.04-.96 4.36h1.72l.76-3.16h1.36zM42.04 28.52c2.44-.84 2.92-3.12 2.92-4.2-.04 1.92-1.24 3.52-2.92 4.2z"/>
                        <path fill="#12AF29" fill-rule="nonzero" d="M44.92 22.08c-1.04 3.8-6 3.56-6 3.56H21.4c-.16 1.92-.64 3.16-.64 3.16H40.4c.6-.04 1.12-.16 1.6-.28 1.68-.64 2.92-2.28 2.92-4.2v-2.24z"/>
                        <path fill="#12AF29" fill-rule="nonzero" d="M21.4 25.64h-1.36l-.76 3.16h1.48s.48-1.28.64-3.16z"/>
                        <circle cx="8.16" cy="24.44" r="8.04" fill="#03DD0D" fill-rule="nonzero"/>
                        <path fill="#12AF29" fill-rule="nonzero" d="M9.76 30.48c-4.44-.24-7.84-4-7.64-8.44.08-1.56.6-3 1.44-4.2-2.08 1.44-3.44 3.88-3.44 6.6 0 4.44 3.6 8.04 8.04 8.04 2.72 0 5.16-1.36 6.6-3.44-1.4 1-3.16 1.56-5 1.44z"/>
                        <g fill-rule="nonzero">
                            <path fill="#12AF29" d="M7.12 1.92v.56c0 .08-.04.12-.12.12h-.72c-.04 0-.04 0-.04.04v7.68c0 .08-.04.12-.12.12H5.08c-.08 0-.12-.04-.12-.12v-.44s0-.04-.04-.04h-.04c-.2.24-.44.4-.72.56-.28.12-.56.2-.92.2-.68 0-1.2-.16-1.64-.48-.44-.32-.76-.8-.96-1.4C.48 8.24.36 7.64.36 6.96c0-.64.08-1.2.24-1.68.2-.6.52-1.08.96-1.44.44-.36 1-.52 1.72-.52.32 0 .6.08.88.2.28.12.52.32.72.52 0 0 .04.04.04 0L4.96 4V2.68c0-.04 0-.04-.04-.04H2.76c-.08 0-.12-.04-.12-.12v-.56c0-.08.04-.12.12-.12h2.16c.04 0 .04 0 .04-.04V1c0-.08.04-.12.12-.12h1.04c.08 0 .12.04.12.12v.8c0 .04 0 .04.04.04H7c.08-.08.12 0 .12.08zM4.88 6.96c0-.76-.12-1.36-.36-1.76-.28-.48-.68-.72-1.16-.72-.56 0-.96.24-1.24.68-.28.48-.44 1.08-.44 1.84 0 .72.12 1.28.36 1.72.28.52.72.76 1.32.76.52 0 .96-.24 1.2-.76.2-.44.32-1 .32-1.76z" transform="translate(4.4 18.4)"/>
                            <path fill="#FFF" d="M6.84 1.28v.56c0 .08-.04.12-.12.12H6c-.04 0-.04 0-.04.04v7.68c0 .08-.04.12-.12.12H4.8c-.08 0-.12-.04-.12-.12v-.44s0-.04-.04-.04H4.6c-.2.24-.44.4-.72.56-.28.16-.56.2-.92.2-.68 0-1.2-.16-1.64-.48-.44-.32-.76-.8-.96-1.4C.2 7.6.08 7 .08 6.32c0-.64.08-1.2.24-1.68.2-.6.52-1.08.96-1.44.44-.36 1-.52 1.72-.52.32 0 .6.08.88.2.28.12.52.32.72.52 0 0 .04.04.04 0l.04-.04V2.04c0-.04 0-.04-.04-.04H2.4c-.08 0-.12-.04-.12-.12v-.56c0-.08.04-.12.12-.12h2.16c.04 0 .04 0 .04-.04v-.8c0-.08.04-.12.12-.12h1.04c.08 0 .12.04.12.12v.8c0 .04 0 .04.04.04h.72c.16-.04.2 0 .2.08zM4.6 6.32c0-.76-.12-1.36-.36-1.76-.28-.48-.68-.72-1.16-.72-.56 0-.96.24-1.24.68C1.56 5 1.4 5.6 1.4 6.36c0 .72.12 1.28.36 1.72.28.52.72.76 1.32.76.52 0 .96-.24 1.2-.76.2-.4.32-1 .32-1.76z" transform="translate(4.4 18.4)"/>
                        </g>
                        <path d="M46.2 19c.92 0 1.68-.76 1.68-1.68v-2.2c0-.92-.76-1.68-1.68-1.68h-1.28v5.52h1.28V19z"/>
                        <path fill="#00CC18" fill-rule="nonzero" d="M34.56 17.32v-2.2c0-2.04 1.68-3.72 3.72-3.72h6.64V6.8c0-2.48-2-4.52-4.52-4.52H15.8c-2.48 0-4.52 2-4.52 4.52v4.96s4.16.24 7.84 5.32c2.2 3 2.44 6.24 2.24 8.56h17.52s4.96.24 6-3.56v2.24-3.28h-6.64c-2 0-3.68-1.68-3.68-3.72z"/>
                        <path fill="#00CC18" fill-rule="nonzero" d="M46.2 13.44h-7.92c-.92 0-1.68.76-1.68 1.68v2.2c0 .92.76 1.68 1.68 1.68h7.92c.92 0 1.68-.76 1.68-1.68v-2.2c0-.92-.76-1.68-1.68-1.68zm-6.68 3.92c-.64 0-1.12-.52-1.12-1.12 0-.64.52-1.12 1.12-1.12.64 0 1.12.52 1.12 1.12 0 .6-.48 1.12-1.12 1.12z"/>
                    </g>
                </g>
            </g>
        </g>
    </g>
</svg>
