<svg xmlns="http://www.w3.org/2000/svg" width="64" height="64" viewBox="0 0 64 64">
    <g fill="none" fill-rule="evenodd">
        <path fill="#F9F3FF" fill-rule="nonzero" d="M39.52 64H24.48C10.96 64 0 53.04 0 39.52V24.48C0 10.96 10.96 0 24.48 0h15.04C53.04 0 64 10.96 64 24.48v15.04C64 53.04 53.04 64 39.52 64z"/>
        <g transform="translate(11.2 14)">
            <g stroke="#CB88FA" stroke-linecap="round" stroke-linejoin="round" stroke-width="1.456">
                <path d="M12.64 4.12L.32 4.12M12.6 4.04L9.48 7.88M12.6 4.08L9.48.24" transform="translate(17.6)"/>
            </g>
            <path stroke="#E8D2FF" stroke-linecap="round" stroke-linejoin="round" stroke-width="1.638" d="M21.6 13.36h10.16s5.12-.64 4.52 3.64"/>
            <path fill="#CB88FA" fill-rule="nonzero" d="M11.36 35.64c-1.44-.2-2.4-.72-3.04-1.32.72.84 1.84 1.32 3.04 1.32zM35.92 35.36c-.44.16-.92.24-1.48.28.52 0 1-.08 1.48-.28zM38.64 31.44v-3.36 3.36z"/>
            <path fill="#A866E2" fill-rule="nonzero" d="M14.64 35.64s14.52.28 19.8 0h-19.8zM35.92 35.36c2.32-.76 2.72-2.92 2.72-3.96 0 1.84-1.12 3.36-2.72 3.96z"/>
            <path fill="#A866E2" fill-rule="nonzero" d="M33.04 32.68H17.12v2.96H34.4c.56-.04 1.08-.12 1.48-.28 1.6-.6 2.72-2.16 2.72-3.96v-3.36h-2.88c.4 4.72-2.68 4.64-2.68 4.64zM7.12 20.28h-.08V30.4s-.44 2.36 1.24 3.96c-.72-.76-1.16-1.76-1.16-2.92V20.28z"/>
            <path fill="#A866E2" fill-rule="nonzero" d="M14.24 32.68s-3.56.36-4.08-2.32V20.04c-.76.2-1.56.32-2.4.32-.24 0-.44 0-.68-.04v11.16c0 1.12.44 2.16 1.16 2.92.64.6 1.64 1.12 3.04 1.32h3.28l.72-2.96h-1.04v-.08zM17.12 32.68L15.32 32.68 14.64 35.64 17.12 35.64z"/>
            <circle cx="7.8" cy="10.64" r="7.52" fill="#CB88FA" fill-rule="nonzero"/>
            <g fill-rule="nonzero">
                <path fill="#A866E2" d="M6.92 2v.52c0 .08-.04.12-.12.12h-.68c-.04 0-.04 0-.04.04v7.16c0 .08-.04.12-.12.12h-1c-.08 0-.12-.04-.12-.12V9.4v-.04H4.8c-.2.2-.4.4-.68.52-.24.12-.56.2-.84.2-.64 0-1.16-.16-1.56-.48-.4-.32-.72-.76-.92-1.32-.16-.44-.24-1-.24-1.68 0-.6.08-1.12.2-1.56.2-.56.48-1 .88-1.32.4-.32.96-.48 1.6-.48.28 0 .56.04.84.16.28.12.48.28.68.48 0 0 .04.04.04 0V2.6c0-.04 0-.04-.04-.04h-2c-.08 0-.12-.04-.12-.12V2c0-.08.04-.12.12-.12h2c.04 0 .04 0 .04-.04v-.76c0-.08.04-.12.12-.12h1c.08 0 .12.04.12.12v.76c0 .04 0 .04.04.04h.72c.08 0 .12.04.12.12zM4.8 6.72c0-.72-.12-1.28-.32-1.68-.24-.44-.6-.68-1.12-.68-.52 0-.92.2-1.16.64-.28.44-.4 1-.4 1.72 0 .68.12 1.2.32 1.6.24.48.68.72 1.24.72.52 0 .88-.24 1.16-.72.2-.32.28-.88.28-1.6z" transform="translate(4 5.6)"/>
                <path fill="#FFF" d="M6.68 1.44v.52c0 .08-.04.12-.12.12h-.68c-.04 0-.04 0-.04.04v7.16c0 .08-.04.12-.12.12h-1c-.08 0-.12-.04-.12-.12v-.44-.04h-.04c-.2.2-.4.4-.68.52s-.56.2-.84.2c-.64 0-1.16-.16-1.56-.48-.4-.32-.72-.76-.92-1.32-.16-.44-.24-1-.24-1.68 0-.6.08-1.12.2-1.56.2-.56.48-1 .88-1.32.4-.32.96-.48 1.6-.48.28 0 .56.04.84.16.28.12.48.28.68.48 0 0 .04.04.04 0V2.04c0-.04 0-.04-.04-.04h-2c-.08 0-.12-.04-.12-.12v-.52c0-.08.04-.12.12-.12h2c.04 0 .04 0 .04-.04V.44c0-.08.04-.12.12-.12h1c.08 0 .12.04.12.12v.76c0 .04 0 .04.04.04h.68c.08.04.16.08.16.2zM4.56 6.12c0-.72-.12-1.28-.32-1.68-.24-.44-.6-.68-1.12-.68-.52 0-.92.2-1.16.64-.28.44-.4 1-.4 1.72 0 .68.12 1.2.32 1.6.24.48.68.72 1.24.72.52 0 .88-.24 1.16-.72.16-.32.28-.84.28-1.6z" transform="translate(4 5.6)"/>
            </g>
            <path fill="#A866E2" fill-rule="nonzero" d="M9.28 16.32c-4.16-.24-7.36-3.76-7.16-7.92.08-1.48.56-2.8 1.36-3.92C1.52 5.84.24 8.12.24 10.68c0 4.16 3.36 7.52 7.52 7.52 2.56 0 4.8-1.28 6.2-3.24-1.32.92-2.92 1.44-4.68 1.36z"/>
            <path fill="#CB88FA" fill-rule="nonzero" d="M28.88 24.88V22.8c0-1.92 1.56-3.48 3.48-3.48h6.28v-4.28c0-2.32-1.88-4.24-4.24-4.24H17.44c-.08 4.44-3.16 8.16-7.28 9.2v10.32c.52 2.68 4.08 2.32 4.08 2.32H33s2.96.08 2.76-4.32h-3.44c-1.88.04-3.44-1.52-3.44-3.44z"/>
            <path fill="#CB88FA" fill-rule="nonzero" d="M39.8 21.24h-7.44c-.88 0-1.56.68-1.56 1.56v2.08c0 .88.68 1.56 1.56 1.56h7.44c.88 0 1.56-.68 1.56-1.56V22.8c0-.84-.72-1.56-1.56-1.56zm-6.48 3.72c-.72 0-1.28-.56-1.28-1.28s.56-1.28 1.28-1.28 1.28.56 1.28 1.28-.56 1.28-1.28 1.28z"/>
        </g>
    </g>
</svg>
