<svg xmlns="http://www.w3.org/2000/svg" width="64" height="64" viewBox="0 0 64 64">
    <g fill="none" fill-rule="evenodd">
        <path fill="#F3F6FF" fill-rule="nonzero" d="M39.52 64H24.48C10.96 64 0 53.04 0 39.52V24.48C0 10.96 10.96 0 24.48 0h15.04C53.04 0 64 10.96 64 24.48v15.04C64 53.04 53.04 64 39.52 64z"/>
        <g transform="translate(15.2 14.4)">
            <path fill="#2A4AD3" fill-rule="nonzero" d="M17.96 32.2c-1.12.84-2.12-.12-2.12-.12l-2.8-2.52s-1.56 1.64-2.92 2.52c-1.36.92-2.28 0-2.28 0L4.8 29.64c-.04.04-.36.32-1.76 1.4-2 1.56-2.68-.64-2.72-.84v2.4s.64 2.48 2.72.84c1.4-1.08 1.72-1.36 1.76-1.4 0 0 .04 0 0 0l3.04 2.44s.92.92 2.28 0c1.36-.92 2.92-2.52 2.92-2.52l2.8 2.52s1.04.96 2.12.12c.68-.52 1.64-1.48 2.24-2.12-.4-.4-.76-.88-1.04-1.36-.44.44-.84.8-1.2 1.08zM4.8 32.04c.04 0 0 0 0 0z"/>
            <path fill="#546DFE" fill-rule="nonzero" d="M2.4 3.8l2.44 2.04S6.8 4.08 7.8 3.12c1-.96 2-.12 2-.12L13 5.84s1.76-1.56 2.84-2.64c1.04-1.08 2.32 0 2.32 0l2.88 2.6s1.32-1.12 2.56-2c1.24-.88 1.96.68 1.96.68V2S24.8.44 23.6 1.32c-1.24.88-2.56 2-2.56 2L18.16.72s-1.28-1.08-2.32 0C14.8 1.8 13 3.36 13 3.36L9.8.52s-1-.8-2 .12c-1 .96-2.96 2.72-2.96 2.72l-2.44-2s-1.2-1.4-2 1L.36 30.2.4 4.8c.8-2.4 2-1 2-1z"/>
            <path fill="#546DFE" fill-rule="nonzero" d="M3.04 31.04c1.4-1.08 1.72-1.36 1.76-1.4 0 0 .04 0 0 0l3.04 2.44s.92.92 2.28 0c1.36-.92 2.92-2.52 2.92-2.52l2.8 2.52s1.04.96 2.12.12c.36-.28.76-.64 1.2-1.04-.84-1.32-1.32-2.92-1.32-4.6 0-4.48 3.36-8.16 7.72-8.64V4.44s-.76-1.56-1.96-.68c-1.24.88-2.56 2-2.56 2l-2.88-2.6s-1.28-1.08-2.32 0C14.8 4.24 13 5.8 13 5.8L9.8 2.96s-1-.8-2 .12c-1 .96-2.96 2.72-2.96 2.72l-2.44-2s-1.2-1.4-2 1L.36 30.24c.04.16.68 2.36 2.68.8zM4.8 29.6c.04 0 0 0 0 0z"/>
            <circle cx="26.52" cy="26.56" r="6.76" fill="#546DFE" fill-rule="nonzero"/>
            <path fill="#2A4AD3" fill-rule="nonzero" d="M27.84 31.64c-3.72-.2-6.6-3.36-6.4-7.12.08-1.32.52-2.52 1.24-3.52-1.76 1.24-2.92 3.24-2.92 5.56 0 3.72 3.04 6.76 6.76 6.76 2.28 0 4.32-1.16 5.56-2.92-1.2.84-2.68 1.32-4.24 1.24z"/>
            <g fill-rule="nonzero">
                <path fill="#2A4AD3" d="M6.12 1.88v.48c0 .08-.04.12-.12.12h-.6c-.04 0-.04 0-.04.04v6.44c0 .08-.04.12-.12.12h-.88c-.08 0-.12-.04-.12-.12v-.4-.04H4.2c-.16.2-.36.36-.6.44-.24.12-.48.16-.76.16-.56 0-1.04-.12-1.4-.4-.36-.28-.64-.68-.8-1.16C.48 7.16.4 6.64.4 6.08c0-.56.08-1 .2-1.4.16-.52.44-.92.8-1.2.36-.28.84-.44 1.44-.44.28 0 .52.04.76.16s.44.24.6.44h.04V2.48c0-.04 0-.04-.04-.04H2.4c-.08 0-.12-.04-.12-.12v-.48c0-.08.04-.12.12-.12h1.8c.04 0 .04 0 .04-.04V1c0-.08.04-.12.12-.12h.88c.08 0 .12.04.12.12v.68c0 .04 0 .04.04.04H6c.08.04.12.08.12.16zM4.2 6.08c0-.64-.08-1.16-.28-1.48-.24-.4-.56-.6-1-.6-.48 0-.8.2-1.04.56-.24.4-.36.92-.36 1.52s.08 1.08.28 1.44c.24.44.6.64 1.12.64.44 0 .8-.2 1.04-.64.16-.28.24-.76.24-1.44z" transform="translate(23.2 21.2)"/>
                <path fill="#FFF" d="M5.88 1.32v.48c0 .08-.04.12-.12.12h-.6c-.04 0-.04 0-.04.04V8.4c0 .08-.04.12-.12.12h-.88c-.08 0-.12-.04-.12-.12V8v-.04h-.04c-.16.2-.36.36-.6.44-.24.12-.48.16-.76.16-.56 0-1.04-.12-1.4-.4C.84 7.88.56 7.48.4 7 .24 6.6.16 6.08.16 5.52c0-.56.08-1 .2-1.4.16-.52.44-.92.8-1.2.36-.28.84-.44 1.44-.44.28 0 .52.04.76.16s.44.24.6.44H4V1.92c0-.04 0-.04-.04-.04h-1.8c-.08 0-.12-.04-.12-.12v-.48c0-.08.04-.12.12-.12h1.8c.04 0 .04 0 .04-.04V.44c0-.08.04-.12.12-.12H5c.08 0 .12.04.12.12v.68c0 .04 0 .04.04.04h.6c.08.08.12.08.12.16zM3.96 5.56c0-.64-.08-1.16-.28-1.48-.24-.4-.56-.6-1-.6-.48 0-.8.2-1.04.56-.24.4-.36.92-.36 1.52s.08 1.08.28 1.44c.24.44.6.64 1.12.64.44 0 .8-.2 1.04-.64.16-.28.24-.76.24-1.44z" transform="translate(23.2 21.2)"/>
            </g>
            <path stroke="#FFF" stroke-linecap="round" stroke-linejoin="round" stroke-width=".929" d="M17.32 15.8L5.2 15.8M17.32 10.88L5.2 10.88M17.2 21L5.2 21"/>
        </g>
    </g>
</svg>
