<svg xmlns="http://www.w3.org/2000/svg" width="166" height="40" viewBox="0 0 166 40">
    <g fill="none" fill-rule="evenodd">
        <g>
            <g>
                <path fill="#13142C" d="M48.872 31.257V9.224c0-1.142.925-2.067 2.067-2.067h9.07c4.704.004 8.551 3.791 8.655 8.48.108 4.855-3.923 8.798-8.778 8.798h-3.617c-.404 0-.732-.328-.732-.73V21.6c0-1.142.926-2.068 2.067-2.068h2.402c2.224 0 4.05-1.895 3.817-4.106-.204-1.935-1.845-3.447-3.832-3.447h-6.297v17.863c0 1.143-.925 2.068-2.067 2.068h-2.102c-.361 0-.653-.292-.653-.654M80.16 18.951c-2.384.015-4.323 1.967-4.323 4.35 0 2.382 1.94 4.341 4.326 4.367h.04c2.066 0 3.853-1.469 4.264-3.499v-1.732c-.41-2.023-2.197-3.486-4.264-3.486h-.043zm-.001 13.444c-5.089-.025-9.05-4.11-9.05-9.094 0-4.982 4.059-9.06 9.047-9.09h.047c1.71 0 3.417.84 4.264 1.43v-.668c0-.18.146-.325.326-.325h3.84c.359 0 .649.29.649.648v15.968c0 .359-.29.648-.648.648h-3.841c-.18 0-.326-.144-.326-.325v-.622c-1.075.65-2.289 1.44-4.308 1.43zM101.47 39.987c-2.68 0-5.185-1.222-6.836-3.304-.237-.299-.15-.739.175-.939l1.844-1.13c.976-.598 2.205-.688 3.221-.16.438.225.976.398 1.595.392 1.933-.018 3.514-1.083 3.585-2.998-.918.354-1.884.533-2.882.533-1.347 0-2.68-.342-3.856-.986-.307-.17-.608-.361-.895-.572-1.376-1.013-2.411-2.464-2.915-4.086-.238-.77-.36-1.57-.36-2.382V16.7c0-1.13.916-2.046 2.046-2.046h2.087c.355 0 .643.289.643.643v8.96c0 1.335.766 2.582 1.997 3.097.4.167.822.25 1.253.25.192 0 .388-.017.583-.052 1.458-.264 2.55-1.481 2.657-2.96.006-.078.01-.157.01-.237V16.7c0-1.13.916-2.046 2.045-2.046h2.087c.356 0 .644.289.644.643v16.417c0 4.812-3.916 8.273-8.729 8.273" transform="translate(-336 -12) translate(336 12)"/>
                <path fill="#1FA848" d="M151.542 27.085h13.324c.359 0 .651.292.651.652v2.131c0 1.129-.914 2.043-2.044 2.043h-16.16c-.36 0-.65-.291-.65-.651V9.2c0-1.129.914-2.043 2.042-2.043h16.161c.359 0 .651.292.651.65v3.52c0 .36-.292.653-.65.653h-13.325v15.105" transform="translate(-336 -12) translate(336 12)"/>
                <path fill="#1FA848" d="M155.34 17.094h8.603c.36 0 .653.292.653.65v2.133c0 1.128-.916 2.042-2.044 2.042h-8.515c-.36 0-.652-.292-.652-.65v-2.221c0-1.08.876-1.954 1.956-1.954M137.1 7.066c-.213 0-.413.104-.534.28l-6.276 9.059c-.315.45-.982.444-1.29-.01l-6.06-9.038c-.12-.181-.323-.29-.541-.29l-4.156-.001c-.408 0-.74.332-.74.742V31.17c0 .409.332.741.74.741h2.088c1.08 0 1.956-.874 1.956-1.954V15.394l6.016 8.361c.649.927 2.021.927 2.67 0l6.017-8.363V31.17c0 .409.331.741.741.741h2.088c1.08 0 1.955-.874 1.955-1.954V7.807c0-.41-.331-.741-.74-.741H137.1" transform="translate(-336 -12) translate(336 12)"/>
                <path fill="#1D8843" d="M29.151 16.608l2.48 2.481 6.51-6.51c1.283-1.283 1.283-3.363 0-4.646-1.283-1.284-3.364-1.284-4.647 0l-4.69 4.69c-.408.407-1.01 2.494.347 3.985" transform="translate(-336 -12) translate(336 12)"/>
                <path fill="#1FA848" d="M28.847 17.226l9.294 9.293c1.283 1.283 1.283 3.363 0 4.647-1.283 1.283-3.364 1.283-4.647 0l-9.31-9.31c-1.274-1.273-1.274-3.34 0-4.614l2.34-2.34 1.292-1.292s-.844 1.74 1.031 3.616" transform="translate(-336 -12) translate(336 12)"/>
                <path fill="#1D8843" d="M9.952 22.49l-2.48-2.48-6.51 6.51c-1.283 1.282-1.283 3.362 0 4.646 1.284 1.283 3.364 1.283 4.647 0l4.69-4.69c.408-.408 1.01-2.495-.347-3.986" transform="translate(-336 -12) translate(336 12)"/>
                <path fill="#1FA848" d="M10.256 21.872L.962 12.58C-.32 11.296-.32 9.216.962 7.933c1.284-1.284 3.364-1.284 4.647 0l9.31 9.31c1.274 1.274 1.274 3.338 0 4.613l-2.34 2.34-1.292 1.292s.844-1.74-1.031-3.616" transform="translate(-336 -12) translate(336 12)"/>
                <path fill="#1D8843" d="M16.613 9.952l2.48-2.48-6.51-6.51C11.302-.32 9.22-.32 7.938.962c-1.283 1.284-1.283 3.364 0 4.647l4.69 4.69c.408.408 2.494 1.01 3.986-.347" transform="translate(-336 -12) translate(336 12)"/>
                <path fill="#1FA848" d="M17.23 10.256L26.525.962c1.283-1.283 3.363-1.283 4.647 0 1.283 1.284 1.283 3.364 0 4.647l-9.31 9.31c-1.274 1.275-3.34 1.273-4.614 0l-2.34-2.34-1.292-1.291s1.74.844 3.616-1.032" transform="translate(-336 -12) translate(336 12)"/>
                <path fill="#1D8843" d="M22.495 29.147l-2.48 2.48 6.509 6.509c1.283 1.283 3.363 1.283 4.647 0 1.283-1.283 1.283-3.363 0-4.647l-4.69-4.69c-.408-.408-2.495-1.01-3.986.348" transform="translate(-336 -12) translate(336 12)"/>
                <path fill="#1FA848" d="M21.877 28.842l-9.293 9.294c-1.283 1.283-3.364 1.283-4.647 0-1.283-1.283-1.283-3.363 0-4.647l9.31-9.309c1.274-1.274 3.34-1.274 4.614 0l2.34 2.34 1.291 1.292s-1.74-.844-3.615 1.03" transform="translate(-336 -12) translate(336 12)"/>
            </g>
        </g>
    </g>
</svg>
