<svg xmlns="http://www.w3.org/2000/svg" xmlns:xlink="http://www.w3.org/1999/xlink" width="1920" height="340" viewBox="0 0 1920 340">
    <defs>
        <linearGradient id="w0qeol84ib" x1="50%" x2="50%" y1="0%" y2="100%">
            <stop offset="0%" stop-color="#30AD52"/>
            <stop offset="100%" stop-color="#018F18"/>
        </linearGradient>
        <linearGradient id="qyist19rkd" x1="106.427%" x2="11.743%" y1="33.762%" y2="67.205%">
            <stop offset="0%" stop-color="#CECECE"/>
            <stop offset="18.163%" stop-color="#065513"/>
            <stop offset="48.798%" stop-color="#CECECE"/>
            <stop offset="75.412%" stop-color="#065513"/>
            <stop offset="100%" stop-color="#CECECE"/>
        </linearGradient>
        <linearGradient id="ath0ljuiae" x1="106.427%" x2="11.743%" y1="33.851%" y2="67.11%">
            <stop offset="0%" stop-color="#CECECE"/>
            <stop offset="18.163%" stop-color="#065513"/>
            <stop offset="48.798%" stop-color="#CECECE"/>
            <stop offset="75.412%" stop-color="#065513"/>
            <stop offset="100%" stop-color="#CECECE"/>
        </linearGradient>
        <linearGradient id="i0r56xbp1f" x1="106.427%" x2="11.743%" y1="33.952%" y2="67.004%">
            <stop offset="0%" stop-color="#CECECE"/>
            <stop offset="18.163%" stop-color="#065513"/>
            <stop offset="48.798%" stop-color="#CECECE"/>
            <stop offset="75.412%" stop-color="#065513"/>
            <stop offset="100%" stop-color="#CECECE"/>
        </linearGradient>
        <linearGradient id="nx27pv2xyg" x1="106.427%" x2="11.743%" y1="33.396%" y2="67.592%">
            <stop offset="0%" stop-color="#CECECE"/>
            <stop offset="18.163%" stop-color="#065513"/>
            <stop offset="48.798%" stop-color="#CECECE"/>
            <stop offset="75.412%" stop-color="#065513"/>
            <stop offset="100%" stop-color="#CECECE"/>
        </linearGradient>
        <linearGradient id="zts82w1yqh" x1="106.427%" x2="11.743%" y1="27.951%" y2="73.362%">
            <stop offset="0%" stop-color="#CECECE"/>
            <stop offset="18.163%" stop-color="#065513"/>
            <stop offset="48.798%" stop-color="#CECECE"/>
            <stop offset="75.412%" stop-color="#065513"/>
            <stop offset="100%" stop-color="#CECECE"/>
        </linearGradient>
        <linearGradient id="5hlpxl2wxi" x1="106.427%" x2="11.743%" y1="21.562%" y2="80.131%">
            <stop offset="0%" stop-color="#CECECE"/>
            <stop offset="18.163%" stop-color="#065513"/>
            <stop offset="48.798%" stop-color="#CECECE"/>
            <stop offset="75.412%" stop-color="#065513"/>
            <stop offset="100%" stop-color="#CECECE"/>
        </linearGradient>
        <linearGradient id="qh68ykfusj" x1="106.427%" x2="11.743%" y1="22.242%" y2="79.411%">
            <stop offset="0%" stop-color="#CECECE"/>
            <stop offset="18.163%" stop-color="#065513"/>
            <stop offset="48.798%" stop-color="#CECECE"/>
            <stop offset="75.412%" stop-color="#065513"/>
            <stop offset="100%" stop-color="#CECECE"/>
        </linearGradient>
        <linearGradient id="bfw1tv6sfk" x1="106.427%" x2="11.743%" y1="28.316%" y2="72.975%">
            <stop offset="0%" stop-color="#CECECE"/>
            <stop offset="18.163%" stop-color="#065513"/>
            <stop offset="48.798%" stop-color="#CECECE"/>
            <stop offset="75.412%" stop-color="#065513"/>
            <stop offset="100%" stop-color="#CECECE"/>
        </linearGradient>
        <linearGradient id="nr29ivmpvl" x1="106.427%" x2="11.743%" y1="32.18%" y2="68.881%">
            <stop offset="0%" stop-color="#CECECE"/>
            <stop offset="18.163%" stop-color="#065513"/>
            <stop offset="48.798%" stop-color="#CECECE"/>
            <stop offset="75.412%" stop-color="#065513"/>
            <stop offset="100%" stop-color="#CECECE"/>
        </linearGradient>
        <linearGradient id="feh3t314lm" x1="93.893%" x2="20.241%" y1="10.013%" y2="92.368%">
            <stop offset="0%" stop-color="#CECECE"/>
            <stop offset="18.163%" stop-color="#065513"/>
            <stop offset="48.798%" stop-color="#CECECE"/>
            <stop offset="75.412%" stop-color="#065513"/>
            <stop offset="100%" stop-color="#CECECE"/>
        </linearGradient>
        <linearGradient id="t1m3euqndn" x1="92.821%" x2="20.967%" y1="10.013%" y2="92.368%">
            <stop offset="0%" stop-color="#CECECE"/>
            <stop offset="18.163%" stop-color="#065513"/>
            <stop offset="48.798%" stop-color="#CECECE"/>
            <stop offset="75.412%" stop-color="#065513"/>
            <stop offset="100%" stop-color="#CECECE"/>
        </linearGradient>
        <linearGradient id="mr3li4vwio" x1="91.544%" x2="21.834%" y1="10.013%" y2="92.368%">
            <stop offset="0%" stop-color="#CECECE"/>
            <stop offset="18.163%" stop-color="#065513"/>
            <stop offset="48.798%" stop-color="#CECECE"/>
            <stop offset="75.412%" stop-color="#065513"/>
            <stop offset="100%" stop-color="#CECECE"/>
        </linearGradient>
        <linearGradient id="wrn7837ikp" x1="90.019%" x2="22.868%" y1="10.013%" y2="92.368%">
            <stop offset="0%" stop-color="#CECECE"/>
            <stop offset="18.163%" stop-color="#065513"/>
            <stop offset="48.798%" stop-color="#CECECE"/>
            <stop offset="75.412%" stop-color="#065513"/>
            <stop offset="100%" stop-color="#CECECE"/>
        </linearGradient>
        <linearGradient id="bwlxbyiyoq" x1="97.202%" x2="17.997%" y1="10.013%" y2="92.368%">
            <stop offset="0%" stop-color="#CECECE"/>
            <stop offset="18.163%" stop-color="#065513"/>
            <stop offset="48.798%" stop-color="#CECECE"/>
            <stop offset="75.412%" stop-color="#065513"/>
            <stop offset="100%" stop-color="#CECECE"/>
        </linearGradient>
        <linearGradient id="k4n8vho6zr" x1="98.368%" x2="17.207%" y1="10.013%" y2="92.368%">
            <stop offset="0%" stop-color="#CECECE"/>
            <stop offset="18.163%" stop-color="#065513"/>
            <stop offset="48.798%" stop-color="#CECECE"/>
            <stop offset="75.412%" stop-color="#065513"/>
            <stop offset="100%" stop-color="#CECECE"/>
        </linearGradient>
        <linearGradient id="3ook3h9zjs" x1="98.555%" x2="17.08%" y1="10.013%" y2="92.368%">
            <stop offset="0%" stop-color="#CECECE"/>
            <stop offset="18.163%" stop-color="#065513"/>
            <stop offset="48.798%" stop-color="#CECECE"/>
            <stop offset="75.412%" stop-color="#065513"/>
            <stop offset="100%" stop-color="#CECECE"/>
        </linearGradient>
        <linearGradient id="vatws2f0vt" x1="98.665%" x2="17.005%" y1="10.013%" y2="92.368%">
            <stop offset="0%" stop-color="#CECECE"/>
            <stop offset="18.163%" stop-color="#065513"/>
            <stop offset="48.798%" stop-color="#CECECE"/>
            <stop offset="75.412%" stop-color="#065513"/>
            <stop offset="100%" stop-color="#CECECE"/>
        </linearGradient>
        <linearGradient id="f2unu7b8gu" x1="98.621%" x2="17.035%" y1="10.013%" y2="92.368%">
            <stop offset="0%" stop-color="#CECECE"/>
            <stop offset="18.163%" stop-color="#065513"/>
            <stop offset="48.798%" stop-color="#CECECE"/>
            <stop offset="75.412%" stop-color="#065513"/>
            <stop offset="100%" stop-color="#CECECE"/>
        </linearGradient>
        <linearGradient id="ji57zt3puv" x1="106.427%" x2="11.743%" y1="44.977%" y2="55.322%">
            <stop offset="0%" stop-color="#CECECE"/>
            <stop offset="18.163%" stop-color="#065513"/>
            <stop offset="48.798%" stop-color="#CECECE"/>
            <stop offset="75.412%" stop-color="#065513"/>
            <stop offset="100%" stop-color="#CECECE"/>
        </linearGradient>
        <linearGradient id="bddkc3rmqw" x1="106.427%" x2="11.743%" y1="35.24%" y2="65.639%">
            <stop offset="0%" stop-color="#CECECE"/>
            <stop offset="18.163%" stop-color="#065513"/>
            <stop offset="48.798%" stop-color="#CECECE"/>
            <stop offset="75.412%" stop-color="#065513"/>
            <stop offset="100%" stop-color="#CECECE"/>
        </linearGradient>
        <linearGradient id="zf6lsqd3sx" x1="106.427%" x2="11.743%" y1="35.319%" y2="65.555%">
            <stop offset="0%" stop-color="#CECECE"/>
            <stop offset="18.163%" stop-color="#065513"/>
            <stop offset="48.798%" stop-color="#CECECE"/>
            <stop offset="75.412%" stop-color="#065513"/>
            <stop offset="100%" stop-color="#CECECE"/>
        </linearGradient>
        <linearGradient id="6n0la36vby" x1="106.427%" x2="11.743%" y1="34.37%" y2="66.56%">
            <stop offset="0%" stop-color="#CECECE"/>
            <stop offset="18.163%" stop-color="#065513"/>
            <stop offset="48.798%" stop-color="#CECECE"/>
            <stop offset="75.412%" stop-color="#065513"/>
            <stop offset="100%" stop-color="#CECECE"/>
        </linearGradient>
        <linearGradient id="14zbh4iliz" x1="106.427%" x2="11.743%" y1="34.16%" y2="66.783%">
            <stop offset="0%" stop-color="#CECECE"/>
            <stop offset="18.163%" stop-color="#065513"/>
            <stop offset="48.798%" stop-color="#CECECE"/>
            <stop offset="75.412%" stop-color="#065513"/>
            <stop offset="100%" stop-color="#CECECE"/>
        </linearGradient>
        <linearGradient id="m9aq0vzpkA" x1="106.427%" x2="11.743%" y1="33.903%" y2="67.055%">
            <stop offset="0%" stop-color="#CECECE"/>
            <stop offset="18.163%" stop-color="#065513"/>
            <stop offset="48.798%" stop-color="#CECECE"/>
            <stop offset="75.412%" stop-color="#065513"/>
            <stop offset="100%" stop-color="#CECECE"/>
        </linearGradient>
        <linearGradient id="a29paxfbhB" x1="106.427%" x2="11.743%" y1="33.61%" y2="67.366%">
            <stop offset="0%" stop-color="#CECECE"/>
            <stop offset="18.163%" stop-color="#065513"/>
            <stop offset="48.798%" stop-color="#CECECE"/>
            <stop offset="75.412%" stop-color="#065513"/>
            <stop offset="100%" stop-color="#CECECE"/>
        </linearGradient>
        <linearGradient id="2l7pt9v0zC" x1="106.427%" x2="11.743%" y1="18.513%" y2="83.362%">
            <stop offset="0%" stop-color="#CECECE"/>
            <stop offset="18.163%" stop-color="#065513"/>
            <stop offset="48.798%" stop-color="#CECECE"/>
            <stop offset="75.412%" stop-color="#065513"/>
            <stop offset="100%" stop-color="#CECECE"/>
        </linearGradient>
        <linearGradient id="r0yawr7pgD" x1="106.427%" x2="11.743%" y1="20.735%" y2="81.007%">
            <stop offset="0%" stop-color="#CECECE"/>
            <stop offset="18.163%" stop-color="#065513"/>
            <stop offset="48.798%" stop-color="#CECECE"/>
            <stop offset="75.412%" stop-color="#065513"/>
            <stop offset="100%" stop-color="#CECECE"/>
        </linearGradient>
        <linearGradient id="vd9qhw6lxE" x1="106.427%" x2="11.743%" y1="22.965%" y2="78.645%">
            <stop offset="0%" stop-color="#CECECE"/>
            <stop offset="18.163%" stop-color="#065513"/>
            <stop offset="48.798%" stop-color="#CECECE"/>
            <stop offset="75.412%" stop-color="#065513"/>
            <stop offset="100%" stop-color="#CECECE"/>
        </linearGradient>
        <linearGradient id="ssra0ute6F" x1="106.427%" x2="11.743%" y1="24.277%" y2="77.255%">
            <stop offset="0%" stop-color="#CECECE"/>
            <stop offset="18.163%" stop-color="#065513"/>
            <stop offset="48.798%" stop-color="#CECECE"/>
            <stop offset="75.412%" stop-color="#065513"/>
            <stop offset="100%" stop-color="#CECECE"/>
        </linearGradient>
        <linearGradient id="ktbd7a375G" x1="106.427%" x2="11.743%" y1="26.683%" y2="74.706%">
            <stop offset="0%" stop-color="#CECECE"/>
            <stop offset="18.163%" stop-color="#065513"/>
            <stop offset="48.798%" stop-color="#CECECE"/>
            <stop offset="75.412%" stop-color="#065513"/>
            <stop offset="100%" stop-color="#CECECE"/>
        </linearGradient>
        <linearGradient id="0hx5v7wysH" x1="106.427%" x2="11.743%" y1="19.881%" y2="81.912%">
            <stop offset="0%" stop-color="#CECECE"/>
            <stop offset="18.163%" stop-color="#065513"/>
            <stop offset="48.798%" stop-color="#CECECE"/>
            <stop offset="75.412%" stop-color="#065513"/>
            <stop offset="100%" stop-color="#CECECE"/>
        </linearGradient>
        <linearGradient id="bos2maotuI" x1="89.777%" x2="23.032%" y1="10.013%" y2="92.368%">
            <stop offset="0%" stop-color="#CECECE"/>
            <stop offset="18.163%" stop-color="#065513"/>
            <stop offset="48.798%" stop-color="#CECECE"/>
            <stop offset="75.412%" stop-color="#065513"/>
            <stop offset="100%" stop-color="#CECECE"/>
        </linearGradient>
        <linearGradient id="4bbd396mcJ" x1="106.427%" x2="11.743%" y1="34.316%" y2="66.618%">
            <stop offset="0%" stop-color="#CECECE"/>
            <stop offset="18.163%" stop-color="#065513"/>
            <stop offset="48.798%" stop-color="#CECECE"/>
            <stop offset="75.412%" stop-color="#065513"/>
            <stop offset="100%" stop-color="#CECECE"/>
        </linearGradient>
        <linearGradient id="80pchxljbK" x1="106.427%" x2="11.743%" y1="32.531%" y2="68.509%">
            <stop offset="0%" stop-color="#CECECE"/>
            <stop offset="18.163%" stop-color="#065513"/>
            <stop offset="48.798%" stop-color="#CECECE"/>
            <stop offset="75.412%" stop-color="#065513"/>
            <stop offset="100%" stop-color="#CECECE"/>
        </linearGradient>
        <linearGradient id="u6b3h4zh8L" x1="106.427%" x2="11.743%" y1="30.801%" y2="70.342%">
            <stop offset="0%" stop-color="#CECECE"/>
            <stop offset="18.163%" stop-color="#065513"/>
            <stop offset="48.798%" stop-color="#CECECE"/>
            <stop offset="75.412%" stop-color="#065513"/>
            <stop offset="100%" stop-color="#CECECE"/>
        </linearGradient>
        <linearGradient id="zei3lc8ejM" x1="78.239%" x2="30.854%" y1="10.013%" y2="92.368%">
            <stop offset="0%" stop-color="#CECECE"/>
            <stop offset="18.163%" stop-color="#065513"/>
            <stop offset="48.798%" stop-color="#CECECE"/>
            <stop offset="75.412%" stop-color="#065513"/>
            <stop offset="100%" stop-color="#CECECE"/>
        </linearGradient>
        <linearGradient id="wgy0n0c6aN" x1="66.056%" x2="39.114%" y1="10.013%" y2="92.368%">
            <stop offset="0%" stop-color="#CECECE"/>
            <stop offset="18.163%" stop-color="#065513"/>
            <stop offset="48.798%" stop-color="#CECECE"/>
            <stop offset="75.412%" stop-color="#065513"/>
            <stop offset="100%" stop-color="#CECECE"/>
        </linearGradient>
        <linearGradient id="c1100xg8hO" x1="63.658%" x2="40.74%" y1="10.013%" y2="92.368%">
            <stop offset="0%" stop-color="#CECECE"/>
            <stop offset="18.163%" stop-color="#065513"/>
            <stop offset="48.798%" stop-color="#CECECE"/>
            <stop offset="75.412%" stop-color="#065513"/>
            <stop offset="100%" stop-color="#CECECE"/>
        </linearGradient>
        <path id="zsbl3vffqa" d="M0 0H1920V340H0z"/>
    </defs>
    <g fill="none" fill-rule="evenodd">
        <g>
            <mask id="jb0zuvkyfc" fill="#fff">
                <use xlink:href="#zsbl3vffqa"/>
            </mask>
            <use fill="url(#w0qeol84ib)" xlink:href="#zsbl3vffqa"/>
            <g mask="url(#jb0zuvkyfc)">
                <g>
                    <path fill="url(#qyist19rkd)" fill-opacity=".09" d="M1295.904 850.938c0 22.534 22.73 53.82 59.45 65.075 20.635 6.324 53.398 8.41 92.29-17.56 24.553-16.395 56.524-14.685 84.731-13.177 32.014 1.71 57.301 3.064 61.613-22.052 1.72-10.259-18.831-22.634-38.74-34.602-15.828-9.512-32.193-19.349-40.128-29.311-3.045-3.823-6.28-8.542-9.71-13.538-19.775-28.83-46.855-68.315-105.333-50.662-37.153 11.215-64.969 28.702-82.674 51.974-17.77 23.35-21.499 47.613-21.499 63.853m302.596 11.005c0 .554-.045 1.107-.14 1.658-4.82 28.077-34.69 26.481-66.315 24.79-27.3-1.459-58.243-3.114-81.383 12.337-40.635 27.134-75.207 24.849-97.056 18.153-38.362-11.757-62.106-44.423-62.106-67.943 0-16.6 3.822-41.41 22.027-65.339 18.191-23.909 46.73-41.863 84.825-53.363 62.33-18.816 91.631 23.903 111.02 52.171 3.397 4.951 6.604 9.627 9.584 13.368 7.546 9.476 23.608 19.129 39.137 28.464 20.753 12.471 40.407 24.288 40.407 35.704" transform="rotate(-180 951 482) rotate(90 1445 825.418)"/>
                    <path fill="url(#ath0ljuiae)" fill-opacity=".09" d="M1326.285 840.627c0 .37.003.73.008 1.081.246 17.144 17.828 40.93 45.804 49.466 15.842 4.833 40.985 6.48 70.791-13.123 18.44-12.126 42.191-11.022 63.146-10.05 24.59 1.142 44.009 2.045 48.514-17.145 1.87-8.07-12.956-17.154-28.68-26.76-11.852-7.24-24.112-14.728-29.865-22.32-1.996-2.634-4.14-5.824-6.408-9.203-6.497-9.676-14.584-21.718-25.655-30.42-16.94-13.293-36.545-16.12-59.932-8.642-69.692 22.284-77.723 67.526-77.723 87.116m230.215 8.812c0 .544-.063 1.085-.19 1.625-4.771 20.32-25.913 19.337-50.393 18.2-20.593-.955-43.938-2.04-61.812 9.715-30.515 20.067-56.385 18.34-72.715 13.358-28.636-8.737-46.63-33.077-46.882-50.616-.28-19.19 6.795-66.353 78.765-89.365 24.188-7.733 44.467-4.805 61.992 8.95 11.247 8.84 19.395 20.973 25.944 30.723 2.26 3.364 4.39 6.541 6.365 9.148 5.598 7.385 17.73 14.795 29.46 21.96 15.127 9.239 29.466 17.998 29.466 26.302" transform="rotate(-180 951 482) rotate(90 1440.5 821.874)"/>
                    <path fill="url(#i0r56xbp1f)" fill-opacity=".09" d="M1357.878 830.175c0 .74.017 1.433.046 2.079.491 11.552 12.747 27.558 31.693 33.273 10.817 3.262 27.994 4.424 48.407-8.573 12.816-8.162 30.469-7.677 46.045-7.248 11.77.324 21.933.603 27.184-3.001 2.658-1.824 3.999-4.589 3.868-8.39-.08-5.576-9.133-11.603-18.711-17.984-7.752-5.162-15.768-10.5-19.609-16.03-1.052-1.512-2.183-3.272-3.383-5.136-4.84-7.532-11.469-17.848-20.944-24.13-12.135-8.023-26.408-8.959-43.63-2.86-45.174 15.995-50.966 44.482-50.966 58m158.622 8.379c0 3.974-1.403 6.87-4.287 8.849-5.675 3.897-16.112 3.608-28.198 3.277-15.313-.422-32.668-.9-45.07 6.997-20.953 13.342-38.683 12.12-49.869 8.746-19.707-5.945-32.014-22.027-32.53-34.14-.559-12.626 3.323-43.855 51.681-60.979 17.554-6.215 32.758-5.2 45.192 3.02 9.67 6.415 16.367 16.832 21.255 24.439 1.195 1.857 2.322 3.61 3.362 5.109 3.733 5.372 11.656 10.648 19.318 15.751 9.8 6.527 19.06 12.692 19.146 18.682v.249" transform="rotate(-180 951 482) rotate(90 1436.5 817.976)"/>
                    <path fill="url(#nx27pv2xyg)" fill-opacity=".09" d="M1389.47 821.13c0 1.074.073 2.068.185 2.968.771 6.14 7.548 14.252 17.557 17.199 5.753 1.691 14.905 2.362 25.84-4.067 6.88-4.044 16.706-3.785 25.374-3.556 6.89.182 12.842.338 15.534-1.741 1.368-1.06 1.839-2.664 1.435-4.91-.544-3.036-4.474-6.222-8.635-9.597-3.691-2.993-7.507-6.088-9.36-9.392l-.63-1.132c-2.955-5.326-7.898-14.238-15.893-17.876-7.242-3.272-15.643-2.37-27.243 2.926-20.283 9.26-24.164 21.316-24.164 29.178m87.03 7.343c0 1.686-.605 2.975-1.827 3.921-2.995 2.315-9.154 2.153-16.285 1.964-8.494-.224-18.121-.479-24.72 3.4-11.306 6.646-20.829 5.936-26.828 4.17-10.738-3.16-17.364-11.515-18.149-17.77-.966-7.645.94-22.062 24.419-32.78 8.051-3.676 18.544-7.332 28.29-2.93 8.26 3.76 13.276 12.801 16.271 18.204l.629 1.13c1.791 3.194 5.553 6.245 9.191 9.195 4.258 3.454 8.283 6.717 8.863 9.961.097.545.146 1.056.146 1.535" transform="rotate(-180 951 482) rotate(90 1432.5 814.786)"/>
                    <path fill="url(#zts82w1yqh)" fill-opacity=".09" d="M1421.61 812.11c0 2.989 4.213 5.422 9.389 5.422 5.177 0 9.391-2.433 9.391-5.423 0-3.023-3.165-8.576-8.336-8.576-5.18 0-10.444 5.503-10.444 8.576m19.89 0c0 3.43-4.71 6.221-10.501 6.221-5.79 0-10.499-2.791-10.499-6.22 0-3.443 5.71-9.374 11.554-9.374 6.11 0 9.446 6.191 9.446 9.373" transform="rotate(-180 951 482) rotate(90 1431 810.533)"/>
                    <path fill="url(#5hlpxl2wxi)" fill-opacity=".09" d="M1218.604 930.222c0 28.523 29.518 48.07 75.427 68.205 19.653 8.622 32.954 17.062 43.64 23.844 6.566 4.168 12.237 7.766 17.945 10.527 22.275 10.775 33.178 14.478 89.235 26.127 49.74 10.338 87.753 10.96 123.252 2.02 27.495-6.915 53.687-18.966 82.428-37.926 22.658-14.962 41.317-21.368 57.78-27.02 25.288-8.68 47.128-16.18 73.97-51.555 14.77-19.622 27.658-53.513 5.169-103.518-8.591-19.034-26.744-35.328-51.112-45.878-38.377-16.613-61.932-34.584-70.01-53.413-1.295-3.012-2.574-5.907-3.826-8.706-14.885-33.72-19.702-51.38-28.63-104.986-4.348-26.088-34.191-41.222-88.709-44.981-13.642-.942-24.215-.025-34.44.862-15.638 1.356-30.403 2.636-53.764-2.869-51.727-12.189-118.294 1.712-148.385 30.99-21.226 20.653-19.712 44.835 4.26 68.094 24.669 23.936 34.118 53.426 27.313 85.288-5.732 26.86-22.575 54.155-47.43 76.856-9.615 8.783-19.457 16.84-28.973 24.63-17.421 14.26-32.467 26.576-37.776 36.87-5.007 9.706-7.364 18.48-7.364 26.539m582.896-38.058c0 23.286-8.422 40.787-17.553 52.914-27.134 35.76-49.23 43.346-74.813 52.13-16.342 5.61-34.864 11.969-57.314 26.793-28.939 19.09-55.34 31.23-83.086 38.207-35.896 9.043-74.267 8.427-124.412-1.995-56.32-11.704-67.296-15.435-89.772-26.306-5.81-2.812-11.523-6.437-18.138-10.635-10.633-6.747-23.864-15.145-43.375-23.704l.496-.57-.496.57c-80.236-35.193-85.55-63.968-68.843-96.346 5.426-10.525 20.579-22.927 38.123-37.289 9.5-7.777 19.324-15.818 28.907-24.573 47.567-43.448 72.221-109.935 20.084-160.528-24.498-23.769-26.012-48.514-4.26-69.678 30.54-29.712 98.057-43.832 150.506-31.472 22.958 5.411 37.52 4.147 52.94 2.811 10.324-.895 21.005-1.821 34.854-.867 55.523 3.829 85.936 19.36 90.4 46.16 8.912 53.502 13.717 71.123 28.556 104.74 1.253 2.801 2.534 5.7 3.834 8.717 7.938 18.507 31.216 36.224 69.183 52.66 24.758 10.719 43.198 27.273 51.93 46.614 8.83 19.632 12.249 36.814 12.249 51.647" transform="rotate(-180 951 482) rotate(90 1509 821.874)"/>
                    <path fill="url(#qh68ykfusj)" fill-opacity=".09" d="M1294.676 965.776l.536-.412c11.237 7.343 19.767 15.564 27.29 22.819 8.177 7.881 15.899 15.327 25.545 20.225 24.184 12.283 44.935 16.966 95.01 24.799 43.857 6.862 82.36 5.799 121.168-3.345 36.25-8.524 67.321-24.764 97.37-40.469 13.095-6.845 26.638-13.923 40.44-20.274 17.15-7.895 30.802-19.323 42.962-35.964 21.493-29.413 11.438-62.242 3.54-79.194-7.044-14.997-21.432-28.478-40.52-37.953-31.531-15.654-55.752-38.508-68.197-64.36-5.163-10.724-8.648-21.978-12.014-32.86-4.747-15.34-9.657-31.2-19.34-45.722-12.727-19.084-30.981-24.137-60.215-26.785-6.032-.546-12.252-.978-18.264-1.396-20.956-1.457-42.623-2.963-62.078-9.581-72.212-24.563-119.38-29.361-140.195-14.258-24.805 17.997-4.457 59.977 9.767 79.662 15.773 21.83 18.998 46.4 9.584 73.032-9.04 25.567-28.186 48.146-42.656 62.585-6.806 6.792-13.83 13.122-20.62 19.243-13.178 11.876-24.56 22.132-29.226 31.187-12.72 24.648-10.147 45.415 40.65 78.61l-.537.41zm464.824-72.45c0 12.963-3.34 26.992-13.098 40.343-12.29 16.82-26.114 28.383-43.505 36.389-13.76 6.334-27.284 13.402-40.362 20.236-30.147 15.757-61.323 32.05-97.812 40.63-39.09 9.211-77.86 10.285-122.008 3.378-50.313-7.872-71.18-12.585-95.591-24.983-9.85-5.003-17.646-12.517-25.898-20.472-7.848-7.567-15.964-15.39-27.086-22.66-51.442-33.618-54.015-54.722-41.064-79.816 4.753-9.221 16.206-19.544 29.467-31.495 6.78-6.111 13.792-12.43 20.576-19.199 65.776-65.64 48.88-112.418 32.954-134.459-14.406-19.93-34.92-62.502-9.494-80.955 21.344-15.485 69.124-10.764 142.014 14.031 19.205 6.533 40.73 8.029 61.548 9.475 6.023.42 12.256.852 18.312 1.4 29.791 2.7 48.407 7.868 61.444 27.42 9.76 14.635 14.69 30.56 19.454 45.958 3.36 10.853 6.833 22.076 11.966 32.741 12.34 25.627 36.35 48.285 67.61 63.803 19.364 9.612 33.96 23.292 41.11 38.517 4.402 9.444 9.463 23.775 9.463 39.719z" transform="rotate(-180 951 482) rotate(90 1503 825.064)"/>
                    <path fill="url(#bfw1tv6sfk)" fill-opacity=".09" d="M1249.772 879.384c0 15.916 5.471 32.234 16.17 47.556 8.617 12.34 20.593 23.895 34.638 33.418 16.477 11.172 65.798 36.333 167.694 28.689 63.721-4.78 170.32-36.546 204.725-83.757 16.005-21.966 14.876-44.782-3.348-67.812-10.195-12.879-25.209-23.831-39.725-34.424-18.168-13.252-36.952-26.956-46.146-44.432-3.449-6.555-5.471-13.547-7.425-20.31-2.509-8.676-5.104-17.649-10.737-25.65-12.885-18.293-39.142-28.463-58.902-33.774-28.33-7.616-59.188-10.186-89.237-7.435-31.14 2.85-56.257 11.716-70.728 24.961-13.725 12.563-18.196 28.683-22.52 44.274-2.149 7.751-4.373 15.767-7.705 23.317-6.871 15.567-18.87 29.92-30.476 43.8-12.862 15.383-26.159 31.29-32.362 48.789-2.62 7.393-3.916 15.044-3.916 22.79m435.728-5.383c0 10.71-3.787 21.3-11.37 31.703-34.612 47.493-141.715 79.438-205.723 84.24-21.864 1.64-55.118 2.594-89.361-2.184-33.333-4.65-60.027-13.65-79.346-26.75-14.15-9.593-26.217-21.238-34.9-33.67l.572-.2-.571.2c-16.04-22.97-20.423-48.172-12.347-70.966 6.246-17.626 19.593-33.59 32.501-49.03 11.568-13.835 23.529-28.142 30.357-43.609 3.311-7.503 5.527-15.494 7.671-23.222 4.353-15.692 8.853-31.919 22.763-44.651 14.677-13.436 40.095-22.423 71.57-25.305 30.256-2.77 61.325-.181 89.853 7.486 19.97 5.37 46.52 15.662 59.588 34.216 5.707 8.108 8.318 17.139 10.845 25.873 1.946 6.728 3.955 13.685 7.369 20.174 9.102 17.299 27.791 30.935 45.866 44.12 14.575 10.633 29.646 21.63 39.922 34.61 9.826 12.414 14.741 24.769 14.741 36.965" transform="rotate(-180 951 482) rotate(90 1467 830.38)"/>
                    <path fill="url(#nr29ivmpvl)" fill-opacity=".09" d="M1265.46 873.003c0 11.521 2.633 22.198 7.895 31.96 9.935 18.424 30.086 32.015 59.89 40.397 30.184 8.49 62.717 9.552 84.694 8.95 33.931-.93 67.421-6.2 95.703-11.234 41.995-7.47 84.392-17.584 110.046-40.774 12.072-10.911 18.414-23.371 17.814-35.087-.56-11.255-7.48-23.193-20.572-35.481-6.133-5.76-13.092-11.207-19.82-16.476-5.257-4.119-10.695-8.378-15.716-12.764l-.503-.439c-11.532-10.152-21.29-21.46-30.724-32.392-7.464-8.651-15.183-17.596-23.73-25.912-16.242-15.803-42.938-35.488-77.884-39.526-25.502-2.945-54.187 2.86-78.702 15.93-24.448 13.033-41.78 31.085-54.148 45.356-21.461 24.763-36.16 46.704-44.937 67.078-6.202 14.4-9.306 27.904-9.306 40.414m377.04-4.292c0 11.426-6.362 23.443-18.057 34.013-25.831 23.35-68.406 33.512-110.565 41.015-28.333 5.042-61.882 10.32-95.9 11.253-22.073.605-54.75-.466-85.088-8.998-30.066-8.455-50.397-22.178-60.431-40.787-11.058-20.506-10.59-45.006 1.388-72.817 8.8-20.43 23.532-42.423 45.037-67.236 12.412-14.321 29.812-32.44 54.39-45.543 24.723-13.182 53.676-19.035 79.433-16.058 35.267 4.075 62.158 23.89 78.507 39.796 8.571 8.339 16.3 17.296 23.773 25.957 9.42 10.916 19.16 22.203 30.65 32.32l.504.44c5.004 4.372 10.433 8.623 15.685 12.735 6.74 5.279 13.711 10.738 19.871 16.523 13.213 12.402 20.198 24.469 20.768 35.866.025.506.035 1.013.035 1.521" transform="rotate(-180 951 482) rotate(90 1453.5 828.962)"/>
                    <path fill="url(#feh3t314lm)" fill-opacity=".09" d="M624.828 806.263C568.024 911.903 481.896 918.58 412.48 923.968c-58.398 4.531-104.523 8.11-106.964 72.952-2.94 78.14-29.93 87.186-64.1 98.637-28.572 9.576-60.955 20.427-88.923 74.724-31.663 61.47-4.854 107.495 23.216 135.28 28.957 28.668 65.165 44.377 69.026 46.002l380.093-15.147V806.263zm-380.743 547.224l-.34-.14c-.39-.158-39.333-16.145-70.153-46.625-28.477-28.166-55.687-74.813-23.61-137.093 28.345-55.024 61.256-66.054 90.29-75.784 33.342-11.172 59.676-19.997 62.572-96.977 2.503-66.492 49.653-70.152 109.346-74.782 69.741-5.414 156.537-12.147 212.72-121.399l2.59-5.039v542.558l-383.415 15.281z" transform="rotate(-180 951 482) rotate(90 381.5 1074.568)"/>
                    <path fill="url(#t1m3euqndn)" fill-opacity=".09" d="M564.332 850.742c-48.65 95.225-120.881 99.568-179.088 103.064-49.305 2.965-88.254 5.305-98.114 59.545-11.666 64.15-35.849 76.093-63.852 89.92-23.688 11.696-50.534 24.953-74.583 73.964-26.774 54.564.293 94.53 27.713 118.448 28.472 24.833 63.201 38.01 66.512 39.232l321.412-13.446V850.742zm-321.87 485.734l-.26-.093c-.37-.131-37.353-13.476-67.428-39.69-27.798-24.226-55.242-64.705-28.128-119.964 24.281-49.482 51.436-62.89 75.394-74.72 27.578-13.618 51.396-25.38 62.936-88.854l1.078.098-1.078-.098c10.089-55.471 51.794-57.977 100.086-60.88 58.427-3.512 131.14-7.881 179.33-106.252l2.108-4.302v481.198l-324.038 13.557z" transform="rotate(-180 951 482) rotate(90 351 1089.098)"/>
                    <path fill="url(#mr3li4vwio)" fill-opacity=".09" d="M503.832 895.192c-40.373 84.852-96.117 86.723-145.377 88.38-39.155 1.318-72.97 2.456-90.217 46.427-19.15 48.825-39.807 63.695-61.675 79.439-20.448 14.72-41.592 29.944-62.397 75.227-21.94 47.759 5.456 81.735 32.3 101.827 28.06 21.002 61.34 31.63 64.074 32.481l263.292-11.763V895.192zm-263.583 424.98l-.184-.053c-.35-.107-35.434-10.828-64.808-32.812-27.158-20.327-54.874-54.696-32.675-103.008 20.926-45.55 42.21-60.874 62.792-75.692 21.712-15.632 42.223-30.399 61.258-78.926 17.568-44.795 51.94-45.953 91.745-47.29 49.386-1.662 105.359-3.545 145.497-91.048l1.626-3.549v420.526l-265.251 11.853z" transform="rotate(-180 951 482) rotate(90 320 1103.984)"/>
                    <path fill="url(#wrn7837ikp)" fill-opacity=".09" d="M249.015 1046.161l.518.19c-20.434 28.03-36.528 44.122-50.728 58.32-21.623 21.62-38.702 38.697-58.859 86.93-17.076 40.855 10.588 68.774 36.801 85.002 27.65 17.116 59.534 25.197 61.652 25.72l204.933-10.064v-352.72c-31.873 74.123-71.736 73.785-110.267 73.43-30.253-.274-58.816-.517-83.532 33.383l-.518-.19zm-10.772 257l-.112-.028c-.331-.079-33.482-8.166-62.127-25.89-26.485-16.39-54.435-44.593-37.18-85.878 20.217-48.366 37.345-65.49 59.03-87.173 14.176-14.175 30.244-30.243 50.642-58.221 25.048-34.358 55.34-34.095 84.582-33.83 38.604.333 78.47.693 110.279-75.536l1.143-2.738v359.164l-.545.026-205.712 10.104z" transform="rotate(-180 951 482) rotate(90 289 1118.514)"/>
                    <path fill="url(#bwlxbyiyoq)" fill-opacity=".09" d="M380.6 130.37c-25.741 0-46.109 5.208-60.726 15.552-62.123 43.967-116.592 124.042-138.77 204-34.713 125.154 18.88 190.13 53.914 217.72 108.797 85.681 208.603 88.579 251.22 89.818 6.515.188 11.658.338 15.479.725 9.458.957 19.45 2.141 26.079 3.09 16.493 2.359 83.589 6.552 110.616-16.06 14.597-12.206 15.559-30.334 2.857-53.88-35.015-64.919-41.254-100.61-45.384-124.227-3.797-21.709-6.087-34.812-26.32-53.13-5.035-4.557-6.91-8.715-5.745-12.71 2.528-8.642 18.93-14.965 37.92-22.286 26.992-10.405 57.583-22.2 58.894-44.235 1.716-28.88-8.259-62.492-16.167-73.878-5.193-7.472-12.817-12.606-20.187-17.571-11.644-7.84-23.683-15.947-25.69-33.235-6.672-57.574-16.414-82.008-59.496-84.274-8.298-.439-17.33-.192-29.276.796-7.488.634-15.052 1.388-22.367 2.117-27.371 2.728-55.682 5.548-85.976 2.698-7.307-.686-14.27-1.03-20.876-1.03m180.785 534.147c-14.35 0-26.794-1.062-33.918-2.081-6.6-.945-16.556-2.125-25.986-3.08-3.735-.377-8.842-.526-15.31-.715-42.827-1.243-143.125-4.157-252.394-90.208-31.918-25.135-52.412-58.338-60.923-98.685-7.54-35.765-5.254-77.281 6.612-120.056 22.237-80.172 76.887-160.485 139.228-204.606 18.756-13.276 46.68-18.28 83.001-14.858 30.08 2.825 58.265.018 85.521-2.699 7.327-.73 14.9-1.484 22.406-2.12 12.053-.997 21.172-1.243 29.598-.799 44.306 2.33 54.283 27.071 61.039 85.357 1.952 16.837 13.23 24.432 25.174 32.473 7.477 5.037 15.21 10.245 20.534 17.908 7.987 11.498 18.067 45.382 16.338 74.447l-.834-.025.834.025c-1.353 22.707-32.385 34.672-59.764 45.226-18.627 7.181-34.715 13.384-37.084 21.487-1.061 3.634.712 7.474 5.424 11.74 20.52 18.577 22.833 31.802 26.662 53.713 4.12 23.562 10.344 59.168 45.287 123.952 12.936 23.979 11.877 42.507-3.14 55.068-17.683 14.79-51.35 18.536-78.305 18.536" transform="rotate(-180 951 482) rotate(90 415.5 394.457)"/>
                    <path fill="url(#k4n8vho6zr)" fill-opacity=".09" d="M506.589 702.322c1.574 0 2.923.047 4.048.16 5.95.603 15.445 1.969 24.628 3.288l3.737.537c13.93 1.995 36.583 3.711 58.383 2.535 28.568-1.539 48.845-7.43 60.275-17.513 15.027-13.255 14.142-33.627-2.63-60.545-56.411-90.548-59.478-132.394-61.508-160.083-.88-12.03-1.577-21.53-6.096-31.5-6.422-14.17 16.807-22.55 43.706-32.25 27.786-10.02 59.277-21.377 61.763-41.507l.956.06-.956-.06c3.732-30.193-8.442-74.6-18.365-87.59-6.63-8.686-17.018-14.231-27.061-19.593-15.56-8.308-31.654-16.899-34.966-37.227-10.798-66.294-19.34-91.448-66.607-92.56-11.642-.28-23.336.859-32.24 1.878-4.266.498-8.5 1.018-12.71 1.54-34.486 4.255-67.062 8.28-106.28-2.987-14.01-4.023-61.972-15.493-91.09 5.874-62.796 46.08-118.2 134.83-141.146 226.1-12.182 48.448-14.301 95.224-6.13 135.27 9.252 45.356 31.15 82.106 65.084 109.233 129.026 103.143 235.08 98.858 275.008 97.243 4.105-.166 7.49-.303 10.197-.303m76.655 8.268c-23.489 0-42.935-2.708-44.622-2.948l-3.741-.538c-9.153-1.315-18.622-2.676-24.516-3.275-2.864-.287-7.477-.105-13.863.153-40.185 1.628-146.905 5.942-276.554-97.698-34.188-27.328-56.24-64.317-65.55-109.94-8.199-40.188-6.074-87.113 6.142-135.704 23.01-91.518 78.612-180.546 141.655-226.808 29.946-21.977 78.9-10.294 93.19-6.187 38.71 11.117 71.025 7.129 105.232 2.906 4.216-.521 8.457-1.044 12.728-1.542 8.992-1.028 20.832-2.16 32.613-1.896 48.78 1.147 57.514 26.625 68.454 93.766 3.215 19.747 18.27 27.785 34.212 36.296 10.207 5.448 20.763 11.083 27.595 20.031 10.028 13.131 22.348 57.94 18.59 88.357-2.582 20.882-34.578 32.421-62.807 42.602-26.117 9.418-48.67 17.55-42.75 30.617 4.597 10.14 5.3 19.722 6.188 31.847 2.024 27.59 5.077 69.285 61.349 159.604 17.084 27.422 17.88 48.264 2.366 61.948-16.842 14.858-49.023 18.409-75.911 18.409" transform="rotate(-180 951 482) rotate(90 422.5 415.722)"/>
                    <path fill="url(#3ook3h9zjs)" fill-opacity=".09" d="M521.925 750.2c.422 0 .8.017 1.134.05 2.484.254 7.277.997 13.344 1.94 5.054.785 11.024 1.713 17.339 2.618 16.211 2.32 98.519 12.56 127.29-13.958 15.452-14.238 12.575-36.823-8.554-67.126-91.101-130.675-74.397-176.215-64.416-203.426l.94-2.573c4.81-13.34 29.728-21.523 56.111-30.187 29.662-9.743 60.334-19.813 63.757-37.84 6.435-33.879-9.654-87.966-20.58-101.267-8.064-9.808-20.572-15.451-33.816-21.427-19.543-8.815-39.747-17.93-44.43-41.387-14.23-71.281-20.133-100.817-73.68-100.817-.117.002-.242 0-.373 0-12.375 0-24.62 1.494-34.981 2.96-3.878.554-7.729 1.132-11.558 1.708-38.048 5.715-73.99 11.112-118.203-9.444-17.975-8.36-71.1-25.143-100.694-2.75-62.681 47.43-120.466 147.14-143.795 248.113-12.539 54.27-14.488 106.443-5.637 150.877 10.076 50.587 33.562 91.082 69.8 120.356 152.034 122.819 264.464 109.026 301.41 104.502 4.375-.535 7.519-.921 9.592-.921m85.253 10.006c-24.321 0-46.265-2.802-53.865-3.891-6.33-.908-12.31-1.836-17.376-2.623-6.023-.936-10.78-1.676-13.185-1.92-1.65-.16-5.17.267-10.049.866-18.062 2.214-55.646 6.825-107.973-4.577-64.62-14.077-130.375-47.867-195.442-100.43-36.52-29.5-60.176-70.263-70.312-121.154-8.882-44.584-6.93-96.916 5.642-151.34 23.393-101.248 81.405-201.28 144.35-248.913 13.017-9.85 32.182-13.619 55.411-10.884 18.99 2.23 37.279 8.382 48.06 13.396 43.461 20.21 78.975 14.873 116.563 9.226 3.836-.577 7.694-1.155 11.583-1.712 10.465-1.478 22.843-2.989 35.401-2.989.134 0 .265.002.39 0 52.742 0 60.668 26.27 75.815 102.141 4.544 22.753 24.321 31.676 43.447 40.304 12.88 5.81 26.2 11.82 34.525 21.952 11.056 13.453 27.346 68.078 20.857 102.244-3.58 18.863-34.803 29.115-64.994 39.03-25.9 8.505-50.367 16.54-54.923 29.172l-.941 2.58c-9.903 27.003-26.483 72.199 64.262 202.358 21.525 30.873 24.326 54.002 8.328 68.747-15.88 14.634-47.332 18.417-75.574 18.417" transform="rotate(-180 951 482) rotate(90 433 437.34)"/>
                    <path fill="url(#vatws2f0vt)" fill-opacity=".09" d="M535.713 798.651c.129 0 .244.008.356.02.863.086 2.996.453 6.526 1.059 6.132 1.052 15.392 2.643 26.493 4.232 32.1 4.597 109.667 12.536 136.36-13.018 15.862-15.185 10.867-39.98-14.848-73.695-48.047-62.992-75.426-115.235-81.38-155.273-5.61-37.743 9.055-56.374 22.346-65.357 15.858-10.718 40.649-18.319 64.621-25.667 33.404-10.237 64.952-19.91 69.378-36.668 9.296-35.207-10.067-100.385-22.815-115.023-9.493-10.901-24.555-16.88-40.502-23.21-23.556-9.348-47.91-19.016-54.016-45.658l-1.993-8.733c-16.838-73.854-23.175-101.543-79.032-100.436-13.533.24-26.936 2.18-38.263 4.046-3.908.648-7.79 1.32-11.658 1.994-41.73 7.249-81.155 14.099-128.93-16.042-21.627-13.644-79.451-35.438-110.392-11.358-62.673 48.775-122.985 159.954-146.672 270.373-12.907 60.181-14.681 117.805-5.126 166.645 10.93 55.869 36.057 100.125 74.68 131.532 75.565 61.719 150.026 99.644 221.316 112.722 56.42 10.354 93.748 1.818 107.796-1.395 3.36-.767 4.816-1.09 5.755-1.09m96.234 11.882c-24.547 0-48.644-2.783-63.34-4.888-11.146-1.596-20.434-3.192-26.581-4.247-3.223-.553-5.55-.952-6.302-1.03h-.038c-.581 0-2.721.488-4.983 1.007-14.229 3.255-52.043 11.896-109.146 1.424-71.777-13.168-146.65-51.273-222.538-113.258-165.784-134.819-47.213-474.048 77.154-570.831 32.15-25.025 91.607-2.765 113.793 11.23 46.826 29.54 85.647 22.797 126.743 15.655 3.879-.672 7.77-1.348 11.684-1.997 11.447-1.886 25.003-3.847 38.75-4.09 1.01-.018 2.016-.028 2.992-.028 55.27 0 62.178 30.345 78.495 101.906l1.994 8.733c5.915 25.825 29.753 35.285 52.807 44.436 15.515 6.156 31.56 12.526 41.38 23.804 13.248 15.213 32.706 79.984 23.134 116.24l-1.19-.158 1.19.157c-4.661 17.658-36.785 27.506-70.796 37.93-23.778 7.29-48.366 14.826-63.911 25.334-21.272 14.377-58.054 64.456 59.491 218.569 26.203 34.354 31.137 59.767 14.665 75.535-15.1 14.452-45.607 18.567-75.447 18.567" transform="rotate(-180 951 482) rotate(90 444 458.96)"/>
                    <path fill="url(#f2unu7b8gu)" fill-opacity=".09" d="M548.6 847.665l.61.128c1.41.298 141.432 29.29 179.522-5.077 17.686-15.954 10.863-43.28-20.275-81.22-96.798-117.952-101.563-177.24-88.512-206.204 6.22-13.811 17.685-23.482 34.072-28.744 17.476-5.615 35.803-10.596 53.527-15.412 47.325-12.862 88.198-23.97 94.36-41.403 13.542-38.276-10.784-113.087-25.024-128.697-10.909-11.959-28.476-18.263-47.07-24.935-27.551-9.888-56.043-20.112-63.595-49.947-1.76-6.95-3.397-13.559-4.949-19.836-17.934-72.477-24.59-99.583-83.204-97.623-18.077.613-35.79 4.043-52.925 7.361-43.684 8.46-88.87 17.216-139.516-22.59-15.715-12.35-53.657-30.564-85.348-30.564h-.237c-14.055.04-25.619 3.608-34.375 10.602-63.584 50.801-124.96 171.032-149.26 292.378-13.223 66.05-14.803 129.094-4.563 182.32 11.757 61.134 38.445 109.16 79.321 142.744 63.257 51.975 160.016 116.166 261.75 126.817 60.702 6.359 94.83-9.682 95.169-9.845l.523-.253zm107.511 13.903c-48.116 0-100.061-10.387-107.062-11.833-12.408 5.779-47.644 14.968-96.269 9.929-102.633-10.653-200.017-75.204-263.645-127.48-41.218-33.866-68.115-82.223-79.945-143.725-10.271-53.398-8.69-116.624 4.57-182.843 24.362-121.68 86.006-242.318 149.903-293.37 9.282-7.414 21.516-11.196 36.362-11.24h.256c18.802 0 37.747 5.986 50.357 11.021 14.167 5.655 28.33 13.385 36.964 20.17 49.542 38.939 91.945 30.727 136.833 22.032 17.27-3.345 35.13-6.805 53.501-7.424 60.855-2.041 68.244 27.58 85.96 99.187 1.555 6.275 3.19 12.881 4.948 19.828 7.319 28.905 35.203 38.914 62.172 48.59 18.928 6.794 36.806 13.208 48.107 25.597 14.415 15.803 39.061 91.493 25.374 130.189-6.505 18.386-47.975 29.658-95.997 42.708-17.687 4.807-35.977 9.779-53.382 15.367-15.67 5.033-26.647 14.318-32.631 27.597-18.211 40.425 13.14 113.113 88.278 204.674 31.745 38.679 38.496 66.72 20.067 83.345-14.916 13.457-44.043 17.681-74.72 17.681z" transform="rotate(-180 951 482) rotate(90 455.5 481.287)"/>
                    <path fill="url(#ji57zt3puv)" fill-opacity=".09" d="M765.055 923.025c0 .355.15.698.456 1.026 1.182 1.266 4.453 2.066 6.396 2.23 3.396.287 6.91.063 10.165-.645 1.183-.257 2.839-.706 3.542-1.64.95-1.25-.236-2.824-1.875-3.568-2.383-1.08-5.594-1.152-7.872-1.021-2.842.161-5.967.74-8.36 1.547-.894.302-1.962.738-2.3 1.442-.103.214-.152.424-.152.629m21.445.016c0 .384-.121.767-.394 1.127-.798 1.058-2.588 1.55-3.866 1.827-3.33.724-6.928.953-10.402.66-1.91-.16-5.442-.957-6.795-2.403-.571-.616-.691-1.283-.363-1.972.402-.838 1.592-1.33 2.582-1.662 2.45-.826 5.651-1.421 8.558-1.586 2.365-.136 5.711-.057 8.226 1.084 1.374.622 2.454 1.78 2.454 2.925" transform="rotate(-180 951 482) rotate(90 775.5 922.88)"/>
                    <path fill="url(#bddkc3rmqw)" fill-opacity=".09" d="M736.316 914.534c0 5.514 7.023 11.893 11.833 16.262l.087.08c5.58 5.069 14.858 10.592 24.162 10.894 4.991.163 9.443-1.205 13.227-4.065 4.081-3.087 5.475-6.795 6.95-10.719 1.282-3.413 2.61-6.941 5.877-9.96.518-.476 1.063-.944 1.61-1.412 2.544-2.18 4.931-4.237 4.585-7.172-.283-2.298-1.748-4.126-4.35-5.436-8.306-4.178-27.327-2.58-42.36.307-5.57 1.068-10.685 2.336-13.686 3.39-4.298 1.512-6.876 3.542-7.662 6.033-.188.586-.273 1.188-.273 1.798m69.184-5.517c.003 2.85-2.442 4.946-4.81 6.976-.54.462-1.08.925-1.589 1.396-3.169 2.923-4.473 6.394-5.735 9.75-1.436 3.824-2.922 7.775-7.149 10.97-3.954 2.991-8.617 4.42-13.858 4.25-9.578-.312-19.076-5.947-24.767-11.118l-.087-.08c-5.44-4.941-13.654-12.407-11.715-18.556.843-2.674 3.569-4.836 8.102-6.43 3.045-1.071 8.215-2.353 13.832-3.432 7.382-1.417 32.3-5.623 43.043-.22 2.812 1.415 4.39 3.387 4.695 5.867.028.213.038.423.038.627" transform="rotate(-180 951 482) rotate(90 770.5 921.109)"/>
                    <path fill="url(#zf6lsqd3sx)" fill-opacity=".09" d="M703.606 905.471c0 9.691 10.708 20.2 18.358 27.71l1.732 1.706c8.16 8.08 16.38 15.633 27.2 19.273 13.279 4.469 29.25 2.336 37.973-5.073 6.45-5.48 8.563-12.06 10.603-18.424 2.223-6.927 4.52-14.093 12.39-19.886 1.207-.888 2.505-1.747 3.763-2.58 4.963-3.284 9.651-6.385 9.774-11.497.067-3.837-1.373-6.783-4.474-8.949-7.301-5.099-22.584-4.76-34.866-4.485-4.622.103-8.993.2-12.5.008-8.51-.46-16.55-.495-23.9-.102-22.064 1.18-36.615 6.046-43.254 14.464-1.963 2.493-2.799 5.132-2.799 7.835m122.894-9.09c0 .11-.003.22-.005.332-.13 5.441-5.21 8.804-10.123 12.053-1.246.825-2.535 1.677-3.722 2.549-7.657 5.639-9.92 12.695-12.11 19.52-2.069 6.453-4.21 13.127-10.828 18.75-9.04 7.676-25.562 9.896-39.287 5.278-11.97-4.03-21.388-13.353-27.62-19.523l-1.732-1.703c-9.942-9.765-24.985-24.52-15.624-36.38 6.829-8.66 21.676-13.659 44.127-14.86 7.404-.397 15.501-.36 24.067.103 3.45.188 7.79.09 12.382-.01 12.492-.279 28.034-.625 35.671 4.71 3.19 2.225 4.804 5.313 4.804 9.181" transform="rotate(-180 951 482) rotate(90 764.5 919.691)"/>
                    <path fill="url(#6n0la36vby)" fill-opacity=".09" d="M671.87 896.157c0 15.282 17.694 33.439 27.871 43.883l.557.571c11.438 11.743 24.404 25.05 43.765 30.03 17.754 4.566 37.818.906 48.798-8.902 8.76-7.824 14.187-19.122 15.284-31.81.079-.89.202-1.786.364-2.666 2.29-12.456 12.86-18.785 22.186-24.369 8.412-5.035 15.678-9.384 16.292-17.139.637-8.244-.895-13.356-4.842-16.095-4.963-3.446-13.96-3.256-25.202-2.652-1.655.09-3.372.19-5.144.293-2.389.14-4.888.286-7.489.42-14.32.714-21.828-.812-29.086-2.287-3.9-.793-7.586-1.541-12.243-1.945-5.415-.47-11.994-.252-20.7.686-17.694 1.904-27.261 4.492-34.95 6.571-2.209.599-4.296 1.162-6.376 1.657-14.784 3.516-24.035 9.038-27.498 16.41-1.097 2.335-1.587 4.801-1.587 7.344m176.63-13.79c0 1.086-.047 2.23-.141 3.443-.649 8.173-8.483 12.863-16.776 17.829-9.135 5.468-19.493 11.668-21.712 23.751-.157.858-.277 1.732-.356 2.6-1.115 12.885-6.645 24.375-15.577 32.354-11.342 10.131-32.043 13.92-50.343 9.213-19.773-5.087-32.871-18.53-44.426-30.392l-.557-.57c-12.011-12.325-34.363-35.262-26.458-52.09 3.607-7.678 13.15-13.406 28.362-17.025 2.055-.488 4.128-1.05 6.326-1.643 7.748-2.096 17.391-4.706 35.233-6.625 8.834-.95 15.529-1.17 21.074-.689 4.764.412 8.674 1.207 12.452 1.975 7.146 1.452 14.536 2.953 28.612 2.252 2.594-.134 5.087-.28 7.472-.419 1.777-.104 3.496-.204 5.154-.293 11.597-.625 20.893-.805 26.268 2.926 3.646 2.532 5.393 6.835 5.393 13.403" transform="rotate(-180 951 482) rotate(90 759.5 917.919)"/>
                    <path fill="url(#14zbh4iliz)" fill-opacity=".09" d="M640.144 887.444c0 20.165 22.76 43.862 35.897 57.543 8.96 9.402 17.01 16.786 25.343 23.24 16.526 12.795 31.624 18.86 48.952 19.67 18.506.862 36.348-4.41 46.565-13.758 11.162-10.217 17.99-25.1 19.224-41.907.086-1.18.233-2.352.432-3.483 2.838-16.449 17.139-24.616 29.755-31.82 10.849-6.199 21.1-12.053 22.186-22.213 1.172-11.013-.62-17.794-5.631-21.343-6.146-4.355-17.08-4.132-31.853-3.34-1.86.1-3.781.21-5.767.324-3.3.19-6.77.388-10.407.564-18.706.896-28.262-1.261-37.507-3.349-4.901-1.106-9.528-2.152-15.448-2.77-7.322-.767-15.84-.645-26.805.38-23.417 2.196-36.192 5.516-46.455 8.185-3.029.786-5.89 1.53-8.746 2.174-20.04 4.517-32.637 11.8-37.441 21.651-1.588 3.258-2.294 6.701-2.294 10.252M870.5 868.596c0 1.9-.12 3.966-.359 6.208-1.139 10.664-11.66 16.673-22.795 23.033-12.976 7.411-26.395 15.075-29.154 31.055-.195 1.106-.338 2.249-.423 3.402-1.249 17.042-8.197 32.157-19.563 42.56-10.55 9.652-28.933 15.096-47.977 14.207-17.787-.83-33.225-7.011-50.059-20.045-8.39-6.497-16.49-13.925-25.492-23.374-15.612-16.257-44.677-46.523-33.798-68.83 4.983-10.22 17.937-17.75 38.501-22.384 2.82-.635 5.664-1.375 8.676-2.158 10.34-2.687 23.21-6.034 46.808-8.244 11.12-1.042 19.783-1.163 27.261-.38 6.052.633 10.96 1.742 15.707 2.812 9.097 2.055 18.503 4.18 36.895 3.299 3.629-.176 7.093-.375 10.385-.564 1.989-.113 3.914-.225 5.778-.325 15.214-.814 26.498-1.028 33.142 3.678 4.392 3.11 6.467 8.17 6.467 16.05" transform="rotate(-180 951 482) rotate(90 754.5 916.147)"/>
                    <path fill="url(#m9aq0vzpkA)" fill-opacity=".09" d="M608.415 878.733c0 25.022 27.802 54.413 43.884 71.417 12.765 13.538 28.5 28.993 48.445 40.987 15.77 9.485 37.137 14.22 57.159 12.667 17.443-1.354 32.714-7.39 43.003-16.996 13.576-12.674 21.803-31.168 23.167-52.077.097-1.449.265-2.898.5-4.308 3.424-20.455 21.436-30.471 37.325-39.307 13.643-7.587 26.53-14.752 28.087-27.346 1.728-13.996-.247-22.208-6.408-26.632-7.332-5.264-20.588-4.992-38.516-4.033-2.062.111-4.192.232-6.384.356-4.21.24-8.657.492-13.336.71-23.081 1.078-34.687-1.715-45.91-4.418-5.905-1.423-11.483-2.765-18.674-3.602-9.231-1.074-19.69-1.048-32.914.08-29.141 2.484-45.128 6.547-57.975 9.811-3.843.978-7.475 1.9-11.104 2.693-25.263 5.514-41.194 14.555-47.347 26.87-2.08 4.163-3.002 8.575-3.002 13.128M892.5 855.069c0 2.661-.202 5.593-.6 8.82-1.632 13.183-14.835 20.525-28.815 28.3-16.358 9.096-33.273 18.502-36.603 38.396-.23 1.377-.392 2.794-.487 4.21-1.38 21.181-9.75 39.946-23.557 52.839-10.612 9.907-26.354 16.132-44.327 17.526-20.535 1.593-42.446-3.26-58.61-12.982-20.128-12.103-35.964-27.654-48.796-41.27-19.2-20.295-54.927-58.078-41.102-85.758 6.368-12.744 22.717-22.071 48.594-27.719 3.59-.783 7.198-1.7 11.023-2.673 12.938-3.287 29.038-7.378 58.395-9.882 13.41-1.144 24.04-1.166 33.453-.07 7.346.853 13.262 2.277 18.983 3.655 11.043 2.659 22.466 5.409 45.164 4.35 4.67-.22 9.11-.472 13.31-.71 2.193-.124 4.325-.245 6.39-.356 18.45-.986 32.118-1.246 40.028 4.434 5.12 3.676 7.557 9.65 7.557 18.89" transform="rotate(-180 951 482) rotate(90 749.5 914.73)"/>
                    <path fill="url(#a29paxfbhB)" fill-opacity=".09" d="M574.696 868.662c0 29.906 32.94 65.02 52.023 85.36 10.37 11.055 20.194 20.49 30.031 28.847 21.267 18.067 41.748 29.295 62.608 34.325 12.829 3.093 25.944 3.803 38.982 2.106 50.165-6.526 70.372-48.992 72.433-83.375 1.68-28.028 25.009-40.744 45.59-51.963 16.482-8.983 32.05-17.468 34.083-32.509 2.285-16.86.053-26.72-7.23-31.967-9.351-6.736-27.412-5.72-52.41-4.314-5.102.287-10.508.591-16.207.852-27.532 1.258-41.22-2.175-54.459-5.495-14.82-3.716-28.816-7.227-61.108-4.66-34.969 2.777-54.223 7.587-69.694 11.45-4.674 1.168-9.088 2.272-13.503 3.213-30.576 6.517-49.893 17.32-57.419 32.113-2.58 5.072-3.72 10.456-3.72 16.017M913.5 840.19c0 3.41-.286 7.2-.857 11.412-2.127 15.717-18.064 24.402-34.937 33.599-21.188 11.548-43.095 23.49-44.73 50.79-2.095 34.957-22.798 78.154-74.24 84.845-13.41 1.746-26.9 1.017-40.088-2.164-21.254-5.125-42.055-16.509-63.59-34.803-9.888-8.4-19.758-17.881-30.173-28.981-22.846-24.355-65.37-69.687-48.542-102.772 7.775-15.284 27.578-26.413 58.86-33.08 4.362-.931 8.752-2.027 13.401-3.188 15.577-3.89 34.964-8.733 70.184-11.532 32.794-2.607 47.687 1.13 62.087 4.742 13.03 3.266 26.5 6.645 53.582 5.407 5.687-.26 11.082-.563 16.176-.85 25.591-1.439 44.084-2.478 54.155 4.776 5.892 4.245 8.712 11.154 8.712 21.799" transform="rotate(-180 951 482) rotate(90 743 912.603)"/>
                    <path fill="url(#2l7pt9v0zC)" fill-opacity=".09" d="M989.246 873.775c0 11.711 2.58 23.556 9.442 36.839 8.426 16.305 19.337 34.534 42.27 44.48 8.983 3.897 18.063 6.294 26.845 8.613 15.123 3.992 29.406 7.765 41.447 18.546 36.623 32.798 52.969 74.921 68.776 115.659 1.842 4.747 3.748 9.655 5.631 14.403 8.17 20.58 21.714 38.115 41.406 53.61 19.496 15.34 43.007 26.072 67.992 31.034 27.1 5.383 54.904 3.576 80.402-5.222 20.994-7.246 39.123-19.076 52.424-34.209 12.617-14.353 20.339-30.893 22.324-47.832 6.71-34.836 18.356-64.255 35.6-89.95 21.158-31.526 50.918-56.816 88.452-75.175 21.11-10.323 34.688-31.93 37.257-59.278 2.549-27.147-6.266-53.704-20.961-63.154-40.75-26.21-108.366-18.778-162.695-12.807-14.476 1.591-28.146 3.094-40.19 3.847-33.022 2.064-73.881-.464-109.927-2.694-8.215-.509-15.973-.99-23.369-1.398-43.275-2.395-88.038-4.362-133.041-5.847-6.85-.228-13.844-.352-20.606-.473-38.406-.686-78.118-1.397-107.414-21.309-11.953-8.125-20.775-17.03-29.306-25.643-18.428-18.604-34.343-34.67-73.831-32.402-22.017 1.265-39.997.724-54.967-1.65-23.137-3.67-38.659-11.713-46.137-23.903-.71-1.157-1.55-2.506-2.498-4.035-17.66-28.43-71.412-114.95-46.231-161.87l2.693-5.012c18.654-34.672 41.865-77.822 44.532-118.273 1.446-21.954-3.553-40.999-14.868-56.572-13.103-18.04-35.171-32.182-65.588-42.037-2.676-.867-6.865-1.954-12.168-3.332-25.674-6.67-73.38-19.064-76.64-39.383-6.297 1.07-6.918 3.832-7.636 7.023-.878 3.903-1.873 8.325-13.408 10.67-6.084 51.721-36.207 310.087-36.207 355.62l.027 3.766c.36 46.416.67 86.501 47.125 110.211 8.616 4.399 17.889 8.95 28.162 12.013 3.049.91 6.212 1.74 9.27 2.54 6.59 1.728 13.404 3.514 19.516 6.214 13.87 6.124 22 16.818 28.53 25.41 9.992 13.14 31.085 18.222 62.69 15.104 19.397-1.911 39.47-6.16 60.724-10.654 49.176-10.404 100.03-21.162 145.12-2.543 23.422 9.673 36.415 28.095 32.322 45.86-1.991 8.638-3.29 16.884-3.29 25.195m621.253 2.192c0 3.095-.142 6.218-.437 9.352-2.581 27.468-16.246 49.183-37.493 59.573-37.457 18.318-67.155 43.559-88.268 75.022-17.22 25.656-28.849 55.039-35.549 89.825-1.994 16.989-9.741 33.59-22.404 47.997-13.357 15.194-31.564 27.073-52.652 34.35-25.62 8.843-53.557 10.658-80.79 5.249-25.087-4.983-48.688-15.754-68.253-31.15-19.75-15.54-33.333-33.126-41.526-53.766-1.885-4.747-3.789-9.656-5.632-14.404-15.793-40.7-32.124-82.784-68.68-115.52-11.944-10.697-26.158-14.45-41.205-18.423-8.805-2.325-17.913-4.73-26.94-8.645-23.085-10.013-34.04-28.313-42.498-44.68-11.777-22.789-10.985-41.36-6.18-62.231 4.057-17.602-8.828-35.867-32.057-45.46-44.882-18.533-95.617-7.8-144.685 2.581-21.272 4.499-41.365 8.75-60.803 10.667-31.858 3.143-53.14-2.007-63.25-15.307-6.501-8.551-14.593-19.194-28.338-25.264-6.064-2.678-12.852-4.457-19.416-6.178-3.065-.802-6.235-1.633-9.292-2.547-10.328-3.08-19.63-7.643-28.272-12.054-46.681-23.827-46.993-64.004-47.352-110.525l-.028-3.77c0-45.586 30.177-304.372 36.225-355.786l.017-.136.183-.036c11.368-2.268 12.341-6.585 13.199-10.394.729-3.241 1.417-6.302 8.36-7.39l.3-.047.033.218c2.91 20.207 50.66 32.61 76.314 39.275 5.315 1.38 9.511 2.47 12.206 3.343 30.535 9.892 52.688 24.094 65.85 42.213 11.36 15.634 16.388 34.742 14.928 56.769-2.67 40.514-25.9 83.696-44.566 118.393l-2.694 5.011c-25.095 46.775 28.582 133.183 46.22 161.577.95 1.528 1.79 2.88 2.499 4.036 7.404 12.068 22.798 20.036 45.754 23.677 14.915 2.366 32.84 2.904 54.801 1.642 39.803-2.287 55.801 13.865 74.326 32.568 8.517 8.597 17.322 17.487 29.237 25.585 29.142 19.807 66.983 20.484 107.047 21.2 6.766.121 13.762.246 20.618.472 45.01 1.486 89.775 3.454 133.057 5.85 7.4.408 15.16.888 23.374 1.397 36.026 2.229 76.858 4.754 109.833 2.694 12.024-.752 25.686-2.253 40.153-3.844 54.445-5.982 122.204-13.43 163.147 12.903 13.108 8.43 21.579 30.309 21.579 54.118" transform="rotate(-180 951 482) rotate(90 1084.5 733.626)"/>
                    <path fill="url(#r0yawr7pgD)" fill-opacity=".09" d="M948.47 886.335c0 19.998 11.117 39.334 19.807 52.523 8.895 13.502 23.58 32.239 48.318 39.04 7.917 2.176 14.432 4.568 20.732 6.883 6.663 2.447 13.55 4.977 21.992 7.19 11.12 2.913 20.438 8.376 27.691 16.234 12.712 13.77 18.276 29.793 23.656 45.29 1.3 3.748 2.645 7.623 4.07 11.396 4.093 10.851 8.996 21.82 13.74 32.43 4.126 9.23 8.394 18.773 12.07 28.12 8.284 21.072 23.083 50.7 55.787 64.66 8.722 3.725 18.018 7.002 26.792 10.038 31.186 10.794 68.294 15.123 101.81 11.876 36.793-3.564 66.288-16.064 83.056-35.197 15.935-18.188 20.792-37.429 25.936-57.8l.054-.21c14.543-57.59 51.218-84.076 93.682-114.744 2.548-1.84 5.117-3.687 7.702-5.541 23.36-16.786 47.517-34.143 64.824-53.466 19.578-21.86 27.173-43.048 23.204-64.78-4.71-25.807-18.547-49.916-38.959-67.886-35.735-31.451-101.48-55.45-157.991-40.462-11.716 3.107-22.58 7.537-33.085 11.82-11.888 4.848-24.18 9.86-37.812 13.01-23.403 5.404-50.104 7.892-79.363 7.397l.013-.39-.013.39c-46.94-.793-96.3-9.568-139.85-17.31l-.664-.116c-20.611-3.664-38.693-4.123-56.18-4.568-28.034-.714-54.513-1.387-84.27-16.133-15.91-7.885-36.337-20.832-56.094-33.353-19.428-12.314-39.52-25.046-55.124-32.833-21.042-10.5-40.635-22.858-59.583-34.809-7.752-4.888-15.768-9.943-23.754-14.79-17.049-10.345-36.518-35.247-42.536-50.598-19.831-50.625 5.358-84.82 37.248-128.113 10.941-14.854 22.255-30.213 33.117-47.891 12.712-20.692 11.707-42.113-2.908-61.947-23.867-32.391-80.46-56.388-159.354-67.572-16.462-2.333-31.935-8.517-44.766-17.886-20.996 3.56-47.12 8.754-55.245 10.387-8.297 71.125-35.276 305.68-36.535 358.343-.056 2.46-.091 4.71-.08 6.713l.034 3.863c.399 45.414.745 84.637 49.606 109.786 9.86 5.074 20.175 8.615 31.094 12.366 3.68 1.264 7.485 2.57 11.239 3.93 12.536 4.544 23.77 11.8 32.483 20.985l1.967 2.083c8.74 9.284 17.78 18.884 32.845 22.71 15.873 4.03 35.448 4.55 55.12 1.472 15.47-2.421 29.375-5.074 42.825-7.64 30.797-5.875 57.394-10.95 88.258-10.336 19.864.396 46.14 4.286 60.324 14.015 18.761 12.869 16.346 31.925 14.21 48.739-.336 2.643-.652 5.138-.895 7.62-.165 1.689-.245 3.38-.245 5.062m677.032 4.956c0 43.58-47.267 77.539-89.355 107.78-2.581 1.855-5.15 3.7-7.696 5.54-42.34 30.575-78.904 56.98-93.387 114.335l-.054.21c-5.16 20.446-10.037 39.76-26.086 58.074-16.94 19.334-46.716 31.962-83.843 35.557-33.722 3.268-71.06-1.086-102.439-11.946-8.796-3.045-18.116-6.331-26.877-10.07-33.04-14.106-47.943-43.92-56.28-65.12-3.67-9.335-7.934-18.872-12.058-28.095-4.746-10.617-9.655-21.596-13.755-32.463-1.426-3.782-2.773-7.66-4.075-11.41-5.357-15.434-10.9-31.391-23.506-45.051-7.125-7.715-16.26-13.076-27.155-15.93-8.503-2.229-15.423-4.77-22.115-7.228-6.274-2.305-12.763-4.688-20.623-6.848-25.108-6.904-39.944-25.814-48.917-39.437-9.473-14.379-21.807-36.026-19.665-57.972.244-2.488.561-4.987.897-7.634 2.111-16.641 4.505-35.498-13.878-48.109-13.956-9.574-39.932-13.403-59.588-13.795-30.704-.61-57.228 4.45-87.943 10.31-13.462 2.567-27.38 5.223-42.873 7.647-19.872 3.111-39.662 2.579-55.729-1.5-15.408-3.913-24.55-13.62-33.39-23.009l-1.965-2.082c-8.61-9.075-19.7-16.24-32.07-20.725-3.743-1.357-7.543-2.662-11.218-3.925-10.965-3.764-21.322-7.32-31.262-12.435-49.309-25.38-49.656-64.784-50.058-110.411l-.037-3.866c-.015-2.01.024-4.265.083-6.729 1.26-52.754 28.31-287.863 36.57-358.663l.032-.27.366-.073c7.72-1.553 34.567-6.901 55.962-10.522l.305-.051.218.16c12.716 9.344 28.073 15.507 44.408 17.823 79.227 11.23 136.09 35.372 160.115 67.975 14.773 20.05 15.792 41.704 2.941 62.62-10.877 17.704-22.2 33.076-33.15 47.94-31.779 43.14-56.876 77.216-37.164 127.543 5.975 15.245 25.288 39.959 42.19 50.215 7.997 4.852 16.015 9.91 23.77 14.8 18.926 11.937 38.496 24.28 59.486 34.755 15.658 7.813 35.773 20.56 55.226 32.888 19.73 12.506 40.135 25.438 55.99 33.295 29.49 14.615 55.812 15.285 83.68 15.992 17.543.447 35.684.91 56.407 4.592l.663.118c43.494 7.732 92.792 16.495 139.609 17.285 29.135.494 55.713-1.983 78.996-7.36 13.523-3.124 25.764-8.115 37.603-12.942 10.543-4.3 21.448-8.746 33.248-11.875 57.002-15.118 123.251 9.033 159.233 40.702 20.539 18.08 34.46 42.328 39.196 68.277.687 3.77 1.017 7.478 1.017 11.113" transform="rotate(-180 951 482) rotate(90 1077 744.612)"/>
                    <path fill="url(#vd9qhw6lxE)" fill-opacity=".09" d="M906.35 900.685c0 .316.003.63.012.946.402 15.106 4.272 29.546 11.497 42.92 14.901 27.57 43.979 49.466 81.876 61.655 37.714 12.13 63.96 35.798 70.206 63.315 1.666 7.338 2.69 14.84 3.677 22.097 1.475 10.82 2.999 22.009 6.688 32.795 12.204 35.684 34.52 62.406 66.324 79.425 44.783 23.964 109.508 35.187 161.058 27.926 35.58-5.011 63.392-18.518 80.427-39.056 11.087-13.366 15.997-27.407 21.194-42.274 2.192-6.268 4.455-12.749 7.215-19.108 7.978-18.093 19.934-34.63 35.542-49.155 24.167-22.491 56.756-38.746 88.269-54.466 26.262-13.1 53.417-26.644 75.525-43.72 23.565-18.2 35.269-38.494 33.873-58.71-1.69-24.337-11.339-50.641-28.673-78.182-24.21-38.461-54.28-62.706-89.375-72.06-30.831-8.218-54.317-18.207-75.039-27.02-29.523-12.557-52.842-22.474-82.07-20.28-19.632 1.475-29.751 10.938-39.535 20.091-6.117 5.72-12.438 11.633-20.978 15.437-38.3 17.061-82.287 25.446-130.735 24.918l.013-.584-.013.584c-58.777-.64-112.838-17.304-165.12-33.42-5.088-1.568-10.17-3.134-15.25-4.685-48.474-14.794-91.059-34.5-138.073-63.896-5.403-3.378-10.873-6.7-16.664-10.218-44.096-26.782-94.078-57.13-87.775-100.934 4.907-34.094 29.06-65.208 49.555-88.503 6.45-7.33 13.738-14.362 20.786-21.162 14.903-14.378 30.314-29.244 38.261-47.504 8.417-19.34 6.536-36.734-5.592-51.7-32.936-40.642-134.883-57.529-209.322-69.859-9.308-1.541-18.1-2.997-26.366-4.432-1.056-.183-2.298-.427-3.7-.702-5.944-1.164-14.923-2.924-24.897-3.006l-.3-.043c-3.537-1.016-7.455-1.8-11.652-2.329-21.015 3.714-44.92 8.522-52.79 10.105l-.236.049-.127 1.092c-6.084 52.02-36.46 314.01-36.898 363.44-.015 2.396-.015 4.685-.015 6.855l.038 3.93c.51 50.984 4.602 88.992 52.927 113.844 12.656 6.509 23.733 10.95 34.862 13.976 11.582 3.15 22.375 8.126 31.214 14.39 4.959 3.515 8.932 7.64 12.774 11.629 4.072 4.227 8.283 8.598 13.628 12.176 29.65 19.845 82.665 10.51 121.376 3.693 5.302-.934 10.308-1.816 14.978-2.576 44.633-7.252 99.063-12.15 124 14.59 9.26 9.93 7.143 21.951 5.094 33.573-.87 4.94-1.695 9.624-1.695 14.133M1651.5 928.53c0 19.425-11.837 38.801-34.424 56.246-22.228 17.168-49.457 30.75-75.788 43.886-31.412 15.667-63.895 31.87-87.907 54.217-15.49 14.417-27.361 30.833-35.28 48.793-2.743 6.326-5.003 12.791-7.19 19.043-4.998 14.294-10.165 29.073-21.372 42.586-17.28 20.835-45.474 34.531-81.528 39.61-51.985 7.322-117.24-3.986-162.376-28.14-32.119-17.186-54.637-44.13-66.932-80.083-3.72-10.867-5.249-22.097-6.728-32.957-.987-7.239-2.006-14.723-3.664-22.024-6.159-27.13-32.05-50.47-69.258-62.436-38.296-12.317-67.68-34.444-82.734-62.303-7.298-13.5-11.201-28.073-11.608-43.315-.138-4.9.798-10.15 1.695-15.245 2.01-11.412 4.088-23.213-4.834-32.785-24.378-26.14-78.138-21.262-122.254-14.093-4.654.757-9.654 1.637-14.947 2.568-39.08 6.882-92.603 16.308-122.91-3.976-5.474-3.664-9.735-8.09-13.857-12.366-3.8-3.945-7.73-8.025-12.578-11.461-8.678-6.15-19.271-11.035-30.637-14.126-11.267-3.063-22.466-7.55-35.242-14.123-52.734-27.118-53.197-73.691-53.607-114.78l-.04-3.932c0-2.179 0-4.467.018-6.87.436-49.47 30.818-311.503 36.902-363.528l.223-1.9 1.336-.269c7.896-1.59 31.93-6.424 53.01-10.146l.171-.03.173.02c4.319.538 8.36 1.338 12.013 2.38 10.124.099 19.168 1.871 25.162 3.046 1.384.27 2.61.511 3.654.693 8.257 1.433 17.044 2.889 26.346 4.43 74.734 12.379 177.089 29.33 210.38 70.415 12.365 15.258 14.296 32.966 5.74 52.625-8.03 18.451-23.525 33.397-38.51 47.852-7.029 6.783-14.299 13.796-20.716 21.088-20.4 23.19-44.442 54.148-49.314 88.005-6.207 43.19 43.42 73.331 87.207 99.928 5.796 3.52 11.272 6.844 16.681 10.228 46.88 29.31 89.328 48.956 137.637 63.7 5.082 1.55 10.165 3.117 15.254 4.685 52.133 16.071 106.038 32.688 164.487 33.324 48.121.524 91.804-7.8 129.833-24.739 8.284-3.69 14.235-9.258 20.538-15.153 9.997-9.351 20.333-19.02 40.68-20.549 29.777-2.234 53.301 7.771 83.09 20.442 20.661 8.787 44.081 18.748 74.77 26.927 35.523 9.468 65.906 33.922 90.303 72.679 17.42 27.673 27.114 54.118 28.818 78.6.073 1.104.114 2.208.114 3.313" transform="rotate(-180 951 482) rotate(90 1073.5 759.853)"/>
                    <path fill="url(#ssra0ute6F)" fill-opacity=".09" d="M459.909 745.458c0 33.512 8.044 62.919 46.498 68.367 7.809 1.108 14.402 1.86 20.218 2.527 27.33 3.128 36.537 4.182 63.188 29.293 38.527 36.296 96.835 26.906 177.538 13.909l1.287-.206c30.375-4.892 50.132-4.147 64.066 2.415 21.419 10.088 27.213 33.433 35.983 68.77 1.791 7.22 3.644 14.685 5.8 22.762 11.294 42.332 17.562 56.612 74 75.244 76.258 25.174 79.274 47.687 86.568 102.075.538 4.01 1.1 8.194 1.715 12.569 8.833 62.715 36.564 99.773 157.603 115.98 56.188 7.523 101.867 2.208 135.766-15.796 49.052-26.05 60.219-71.362 62.742-89.634.988-7.143 3.245-13.843 6.71-19.914 22.913-40.125 65.736-45.543 111.073-51.28 32.222-4.078 65.546-8.293 94.624-25.14 33.106-19.18 55.61-52.368 68.796-101.46 4.74-17.624-8.44-62.113-38.672-106.06-48.588-70.622-106.064-92.15-135.999-98.697-46.053-10.072-74.659-21.188-97.642-30.12-27.709-10.769-46.012-17.882-76.007-15.992-24.58 1.547-36.299 14.628-47.635 27.279-6.777 7.562-13.782 15.38-23.412 20.451-74.11 39.014-149.23 13.357-228.76-13.805l-8.669-2.958c-86.767-29.545-154.91-56.31-202.54-79.552-28.073-13.699-46.587-35.733-50.793-60.45-4.03-23.716 2.673-61.141 57.526-104.765 88.389-70.296 103.733-97.522 78.175-138.728-27.71-44.676-187.15-55.353-263.773-60.485-32.539-2.178-39.048-2.76-40.587-4.547-.14-.163-.24-.336-.307-.514-7.852-.638-52.88 7.518-93.517 15.966-2.39 20.348-37.43 319.296-37.43 369.542l.002.81c.103 10.29-.9 21.825-1.945 34.042-1.074 12.586-2.19 25.628-2.19 38.102M1679.5 947.16c0 3.46-.349 6.601-1.09 9.362-30.02 111.76-102.78 120.965-166.972 129.087-44.105 5.58-85.766 10.852-107.765 49.38-3.307 5.793-5.463 12.201-6.41 19.046-2.582 18.684-14.03 65.034-64.482 91.828-34.93 18.552-81.773 24.056-139.225 16.363-123.759-16.57-152.122-54.513-161.167-118.735-.618-4.38-1.18-8.569-1.718-12.582-7.124-53.132-10.072-75.122-84.044-99.544-58.217-19.217-65.11-34.92-76.468-77.492-2.16-8.096-4.014-15.57-5.809-22.801-8.574-34.544-14.237-57.365-34.084-66.713-12.846-6.048-31.552-6.656-60.653-1.97l-1.286.208c-82.318 13.255-141.794 22.834-182.035-15.079-25.584-24.105-33.649-25.028-60.369-28.086-5.855-.67-12.489-1.43-20.38-2.548-56.53-8.011-51.91-62.046-47.839-109.717 1.039-12.163 2-23.65 1.937-33.835-.468-49.31 37.19-368.477 37.569-371.696l.126-1.065 1.448-.302c.23-.049 23.58-4.913 47.182-9.282 48.975-9.064 51.223-7.313 52.71-6.154.365.285.6.621.694.982 3.824.919 19.255 1.952 36.927 3.135 77.46 5.189 238.64 15.982 267.392 62.337 26.468 42.678 10.981 70.559-78.92 142.056-53.761 42.756-60.37 79.236-56.44 102.318 4.052 23.828 21.883 45.061 48.918 58.254 47.44 23.149 115.387 49.832 201.947 79.31l8.674 2.958c81.695 27.903 152.25 52 224.22 14.112 8.978-4.725 15.462-11.96 22.324-19.619 11.907-13.29 24.219-27.031 50.962-28.716 31.325-1.973 51.12 5.72 78.514 16.366 22.807 8.864 51.196 19.897 96.822 29.874 30.618 6.695 89.345 28.631 138.66 100.313 21.179 30.784 40.13 73.193 40.13 98.647" transform="rotate(-180 951 482) rotate(90 1067.5 774.738)"/>
                    <path fill="url(#ktbd7a375G)" fill-opacity=".09" d="M93.129 926.63c73.184 25.248 230.442-1.735 246.073-17.687 1.859-1.896 1.713-3.462-.46-4.928-4.921-3.322-11.513-6.961-19.141-11.174-28.288-15.618-71.036-39.224-80.407-78.235-4.879-20.324 1.62-45.203 7.904-69.261 7.73-29.598 15.032-57.556-3.384-67.812-5.65-3.145-18.2-4.531-31.489-5.999-15.552-1.718-33.183-3.665-44.362-8.886-51.75-24.18-61.887-21.626-91.962-14.046-14.676 3.696-34.77 8.759-66.774 12.427-24.28 2.784-40.356 10.45-47.78 22.786-15.092 25.082 6.53 70.541 59.324 124.721 14.171 14.576 28.642 28.325 43.017 40.863 61.11 53.307 38.773 66.887 29.238 72.683-1.74 1.06-3.382 2.056-3.275 2.652.06.338.716.941 3.478 1.897m81.099 11.49c-31.338 0-60.823-2.913-81.977-10.214-3.027-1.044-4.4-1.94-4.59-2.992-.245-1.356 1.517-2.428 3.959-3.911 9.091-5.53 30.389-18.475-29.488-70.709-14.41-12.568-28.912-26.346-43.111-40.951-53.977-55.393-75.111-100.171-59.518-126.086 7.711-12.815 24.3-20.765 49.305-23.632 31.82-3.648 51.819-8.684 66.42-12.363 30.78-7.756 41.156-10.367 93.738 14.197 10.816 5.053 28.216 6.976 43.57 8.67 14.14 1.563 26.355 2.911 32.416 6.286 19.373 10.789 11.964 39.154 4.117 69.187-6.251 23.938-12.717 48.69-7.896 68.766 9.238 38.468 51.618 61.868 79.659 77.353 7.672 4.235 14.3 7.893 19.296 11.264 2.895 1.956 3.146 4.294.721 6.768-12.692 12.946-94.548 28.366-166.621 28.366" transform="rotate(-180 951 482) rotate(90 148.5 789.977)"/>
                    <path fill="url(#0hx5v7wysH)" fill-opacity=".09" d="M130.616 888.866c22.571 7.789 66.416 4.783 84.22 3.132 31.197-2.896 58.827-8.42 62.9-12.571.632-.646.575-1.144-.194-1.663-14.047-9.477-59.564-43.26-55.567-80.071.767-7.075 2.014-14.644 3.334-22.657 5.213-31.662 11.122-67.546-13.577-78.908-4.8-2.21-13.297-3.485-22.288-4.838-9.989-1.5-20.318-3.054-27.91-6.083-35.024-13.978-43.965-11.166-70.503-2.832-8.6 2.701-19.306 6.064-33.3 9.598-14.736 3.72-24.311 10.168-28.463 19.16-8.878 19.23 6.706 50.566 45.07 90.629 9.355 9.815 19.348 20.214 29.598 29.996 36.142 34.468 29.18 47.02 25.837 53.051-1.39 2.506-1.65 3.196.843 4.057m44.926 6.016c-18.248 0-34.802-1.47-45.51-5.167-3.705-1.279-2.78-2.945-1.503-5.251 3.258-5.874 10.033-18.096-25.664-52.142-10.269-9.797-20.27-20.208-29.631-30.03-26.92-28.111-56.62-66.796-45.236-91.452 4.286-9.287 14.139-15.933 29.285-19.758 13.947-3.522 24.626-6.876 33.21-9.572 26.995-8.476 36.088-11.335 71.699 2.873 7.411 2.958 17.638 4.497 27.527 5.982 9.117 1.37 17.73 2.664 22.74 4.969 25.394 11.682 19.435 47.878 14.177 79.812-1.32 8.003-2.564 15.562-3.33 22.62-3.951 36.395 41.22 69.909 55.159 79.315 1.24.837 1.37 1.861.367 2.886-6.392 6.517-59.683 14.915-103.29 14.915" transform="rotate(-180 951 482) rotate(90 152.5 784.661)"/>
                    <path fill="url(#bos2maotuI)" fill-opacity=".09" d="M169.144 850.464h48.291c-2.8-4.209-29.755-46.08-11.399-70.256 9.471-12.473 11.196-27.424 4.734-41.024-5.537-11.654-16.428-20.846-29.882-25.222-1.15-.375-2.317-.76-3.495-1.15-20.333-6.734-43.382-14.36-70.416 9.293-22.798 19.94-1.747 46.601 21.771 72.197 27.659 30.11 39.35 53.964 40.396 56.162zm49.356.472h-49.84l-.076-.164c-.113-.244-11.558-24.816-40.396-56.211-23.65-25.744-44.81-52.565-21.733-72.752 12.188-10.66 24.737-15.953 38.366-16.173.302-.006.602-.008.9-.008 11.548 0 22.374 3.585 31.955 6.756 1.178.39 2.34.776 3.494 1.15 13.62 4.43 24.639 13.723 30.235 25.5 6.52 13.723 4.778 28.81-4.777 41.395-19.085 25.136 11.328 69.718 11.635 70.167l.237.34z" transform="rotate(-180 951 482) rotate(90 157.5 778.282)"/>
                    <path fill="url(#4bbd396mcJ)" fill-opacity=".09" d="M419.965 776.556c0 7.616 1.775 15.345 7.073 21.442 12.262 14.107 29.649 20.378 49.78 27.641 25.358 9.147 54.097 19.513 76.783 48.848 9.35 12.093 19.35 30.854 30.927 52.579 27.94 52.418 66.205 124.207 119.82 138.071 16.5 4.267 33.912 2.84 51.758-4.24 74.221-29.45 77.483-48.877 82.888-81.065 2.626-15.64 5.604-33.364 16.968-56.468 29.299-59.564 62.267-80.47 88.757-97.27 5.444-3.454 10.59-6.717 15.369-10.106 28.73-20.373 38.39-30.513 34.025-64.306-4.166-32.226-30.49-45.229-88.03-43.48-22.903.697-39.498 2.649-57.07 4.717-17.33 2.04-35.25 4.149-59.953 5.011-28.674 1.003-46.94-.073-70.071-1.436-18.056-1.063-38.522-2.269-69.539-2.938-15.706-.338-32.217-1.262-48.188-2.155-69.938-3.91-142.257-7.952-174.07 34.872-.648 1.366-7.227 15.616-7.227 30.283m579.535-11.19c0 24.47-11.382 35.16-36.3 52.829-4.866 3.45-10.057 6.741-15.549 10.226-26.11 16.56-58.607 37.169-87.533 95.972-11.207 22.782-14.154 40.327-16.753 55.807-5.379 32.033-8.933 53.195-85.11 83.42-19.012 7.544-37.656 9.041-55.411 4.45-55.516-14.354-92.62-83.967-122.43-139.9-11.521-21.615-21.47-40.282-30.674-52.182-22.03-28.49-50.127-38.625-74.916-47.567-19.862-7.165-38.622-13.931-51.532-28.785-17.055-19.622-.9-53.081-.206-54.497l.129-.21c33.12-44.763 106.972-40.634 178.393-36.64 15.916.89 32.378 1.811 47.976 2.148 31.133.67 51.66 1.88 69.77 2.947 22.966 1.354 41.108 2.422 69.49 1.429 24.449-.855 42.24-2.948 59.45-4.973 17.706-2.084 34.431-4.052 57.6-4.756 29.137-.886 49.618 1.784 64.458 8.404 16.599 7.403 25.804 19.804 28.146 37.908.664 5.135 1.002 9.759 1.002 13.97" transform="rotate(-180 951 482) rotate(90 707.5 887.794)"/>
                    <path fill="url(#80pchxljbK)" fill-opacity=".09" d="M473.051 803.698c0 9.62 3.776 25.945 23.453 45.676 7.015 7.035 13.271 11.792 19.895 16.828 11.264 8.562 22.91 17.418 39.2 38.45 8.456 10.916 17.15 27.077 26.355 44.188 23.074 42.898 51.792 96.286 97.925 109.279 16.718 4.708 34.94 3.766 54.157-2.803 25.3-8.646 41.19-17.68 51.528-29.299 9.868-11.088 14.703-24.404 20.827-41.263 4.604-12.68 9.824-27.052 18.437-44.538 27.338-55.48 57.151-74.906 81.11-90.517 4.388-2.86 8.531-5.56 12.48-8.356 14.297-10.123 22.956-23.548 25.733-39.905 2.412-14.229 6.06-35.735-16.898-45.944-17.334-7.707-38.853-5.578-59.663-3.519-7.325.724-14.247 1.41-20.883 1.658-19.117.716-38.532-.01-57.308-.71-8.75-.327-17.792-.664-26.688-.852-18.5-.39-37.084-.975-55.052-1.542-52.425-1.652-101.944-3.213-154.078-.542-31.502 1.616-60.32 14.364-73.416 32.48-3.935 5.444-6.266 11.374-6.927 17.626-.113 1.067-.187 2.272-.187 3.605M946.5 785.005c0 5.854-.971 11.592-1.802 16.48-2.79 16.445-11.501 29.947-25.888 40.133-3.957 2.801-8.107 5.504-12.501 8.367-23.91 15.582-53.67 34.973-80.958 90.36-8.609 17.47-13.823 31.833-18.426 44.505-12.295 33.857-19.07 52.507-72.648 70.819-19.363 6.617-37.734 7.563-54.6 2.812-46.361-13.055-75.128-66.532-98.24-109.502-9.197-17.098-17.884-33.248-26.32-44.14-16.255-20.988-27.88-29.826-39.12-38.371-6.638-5.046-12.906-9.813-19.944-16.869-22.503-22.566-24.304-40.727-23.364-49.535.665-6.304 3.016-12.285 6.985-17.775 13.184-18.235 42.178-31.066 73.869-32.69 52.165-2.674 101.699-1.112 154.14.54 17.97.568 36.547 1.153 55.045 1.543 8.899.187 17.95.525 26.7.85 18.762.701 38.162 1.427 57.25.71 6.614-.246 13.521-.93 20.838-1.653 20.905-2.069 42.525-4.208 60.03 3.575 15.321 6.813 18.954 18.537 18.954 29.841" transform="rotate(-180 951 482) rotate(90 709.5 904.806)"/>
                    <path fill="url(#u6b3h4zh8L)" fill-opacity=".09" d="M530.047 864.804c8.205 17.95 22.02 34.722 35.383 50.943 4.714 5.723 9.589 11.642 14.115 17.493 7.633 9.87 14.46 22.48 21.688 35.83 24.625 45.488 52.537 97.045 128.793 78.507 33.763-8.207 55.834-31.657 84.35-89.614 28.152-57.22 53.777-75.307 76.386-91.264l3.007-2.125c28.045-19.884 29.41-32.909 21.868-56.386-8.472-26.349-48.568-23.898-83.948-21.737-13.732.84-26.703 1.632-36.648.62-10.446-1.063-20.867-2.916-30.944-4.709-14.528-2.583-29.547-5.255-44.774-5.566-31.555-.649-58.176 1.016-89.703 3.261-26.437 1.884-56.573 4.715-79.607 14.554-34.505 14.74-28.185 47.06-23.864 60.271 1.06 3.244 2.373 6.582 3.898 9.922M921.5 827.968c0 15.895-9.215 25.685-26.174 37.71l-3.008 2.128c-22.444 15.838-47.879 33.79-75.866 90.67-28.773 58.488-51.202 82.19-85.71 90.579-78.27 19.026-107.82-35.562-131.566-79.425-7.2-13.299-14-25.86-21.562-35.64-4.51-5.832-9.38-11.742-14.087-17.457-13.42-16.291-27.296-33.138-35.575-51.247-1.544-3.382-2.873-6.764-3.948-10.052-4.429-13.544-10.868-46.692 24.874-61.96 23.424-10.006 53.847-12.87 80.523-14.77 31.605-2.25 58.3-3.92 89.985-3.27 15.466.317 30.606 3.01 45.247 5.614 10.023 1.782 20.387 3.626 30.723 4.677 9.693.988 22.54.202 36.144-.628 36.274-2.218 77.39-4.73 86.285 22.943 2.5 7.78 3.715 14.357 3.715 20.128" transform="rotate(-180 951 482) rotate(90 721 914.02)"/>
                    <path fill="url(#zei3lc8ejM)" fill-opacity=".09" d="M1157.712 645.848c.876.943 7.563 3.262 14.628 5.714 26.684 9.26 82.209 28.524 101.963 62.34 23.684 40.545 39.893 36.691 93.595 23.924 4.428-1.053 9.104-2.165 14.055-3.316 46.547-10.82 63.903-10.491 79.217-10.2 7.593.145 14.765.28 24.814-1.026 9.248-1.203 16.46-11.112 15.155-20.801-.778-5.723-5.804-19.011-35.585-18.793-2.857.022-7.657.571-13.735 1.268-32.017 3.67-98.642 11.304-124.936-28.87-1.441-2.202-2.98-4.53-4.597-6.974-31.512-47.67-90.164-136.402-38.064-209.292 32.754-45.817 24.796-85.017 12.353-109.834-16.676-33.256-48.22-55.504-72.181-65.235-23.358-9.487-43.526-9.242-52.736.617l-13.946 380.478zm345.788 59.006c0 9.704-7.478 18.71-17.118 19.963-10.277 1.337-17.562 1.198-25.271 1.051-15.134-.287-32.287-.615-78.472 10.124-4.946 1.15-9.618 2.26-14.042 3.311-53.75 12.78-71.857 17.085-96.328-24.804-19.436-33.272-74.456-52.363-100.897-61.537-10.761-3.734-15.155-5.304-15.812-6.702l-.06-.13.004-.137 13.97-381.103.167-.184c9.83-10.803 31.23-11.304 55.848-1.306 24.303 9.871 56.284 32.41 73.159 66.067 12.588 25.103 20.642 64.748-12.46 111.06-51.625 72.215 6.739 160.497 38.09 207.926 1.619 2.446 3.158 4.776 4.602 6.98 25.593 39.1 91.104 31.594 122.588 27.986 6.168-.707 11.04-1.265 14.064-1.288 21.926-.161 36.056 7.39 37.799 20.201.114.844.169 1.686.169 2.522z" transform="rotate(-180 951 482) rotate(90 1329.5 502.198)"/>
                    <path fill="url(#wgy0n0c6aN)" fill-opacity=".09" d="M1458.51 745.833c-23.46 0-52.395 1.015-81.659 4.579-39.671 4.83-72.168 13.33-96.588 25.265-30.498 14.901-48.416 35.234-53.264 60.437-12.581 65.421 18.467 80.204 61.44 100.664 29.316 13.957 65.8 31.327 97.452 69.92 14.672 17.888 19.563 45.053 13.42 74.527-7.13 34.202-28.187 69.908-60.897 103.26-16.615 16.941-22.35 30.094-17.53 40.212 7.084 14.88 36.057 21.504 66.73 28.515 18.038 4.123 36.693 8.386 51.875 14.555 34.154 13.877 58.702 32.34 77.251 58.102 16.527 22.955 26.223 48.807 36.488 76.176 2.67 7.11 5.424 14.46 8.32 21.79 1.323 3.35 2.288 3.64 2.655 3.604 3.336-.323 8.289-19.288 12.926-107.805 2.982-56.956 5.516-136.216 7.528-235.58 3.367-166.097 4.14-334.062 4.176-341.755l-77.873 5.308-.037-.003c-.372-.032-21.701-1.77-52.414-1.77m105.632 682.08c-1.142 0-2.174-1.263-3.235-3.95-2.897-7.335-5.656-14.689-8.322-21.797-10.257-27.345-19.946-53.173-36.438-76.08-18.489-25.68-42.952-44.079-76.99-57.909-15.12-6.143-33.74-10.4-51.746-14.515-30.84-7.049-59.966-13.708-67.16-28.815-4.892-10.269.87-23.561 17.616-40.634 32.652-33.292 53.671-68.928 60.785-103.059 6.12-29.37 1.26-56.42-13.338-74.22-31.573-38.496-67.986-55.834-97.244-69.764-43.174-20.555-74.369-35.408-61.733-101.12 4.874-25.342 22.892-45.788 53.552-60.768 24.506-11.971 57.093-20.499 96.86-25.34 67.03-8.165 132.346-2.965 134.217-2.813l78.535-5.352v.26c-.008 1.71-.746 172.836-4.174 342.021-2.014 99.369-4.547 178.634-7.53 235.594-1.773 33.822-3.724 60.054-5.8 77.966-3.107 26.782-5.885 30.111-7.704 30.294h-.15" transform="rotate(-180 951 482) rotate(90 1406.5 1084.846)"/>
                    <path fill="url(#c1100xg8hO)" fill-opacity=".09" d="M1446.136 795.215c-103.92 0-141.165 35.074-153.214 68.01-20.721 56.641 13.112 72.248 59.94 93.847 18.075 8.338 38.563 17.788 57.822 30.83 10.49 7.104 19.047 15.818 26.152 26.638 10.712 16.426 13.026 41.074 6.519 69.397-6.96 30.286-23.327 63.005-47.34 94.623-2.106 2.777-4.091 5.7-6.066 8.937-22.384 36.719 5.872 47.735 41.65 61.683 13.108 5.113 26.664 10.399 39.012 17.456 8.145 4.658 16.75 9.797 24.485 15.822 31.64 24.632 43.484 56.825 53.004 82.696 6.168 16.764 11.494 31.245 20.62 40.18l.103.15c.428 1.08.756 1.46.905 1.588 11.49-7.657 15.775-393.528 16.435-597.502l-51.548-7.765c-.705.068-2.375-.143-7.858-.854-30.553-3.965-57.27-5.736-80.62-5.736m123.572 612.851c-1.075 0-1.687-1.114-2.14-2.246-9.232-9.084-14.576-23.611-20.765-40.427-9.481-25.77-21.281-57.84-52.696-82.3-7.676-5.975-16.236-11.087-24.339-15.721-12.253-7.006-25.756-12.27-38.817-17.361-34.93-13.62-65.098-25.382-42.232-62.887 1.992-3.264 3.992-6.211 6.116-9.012 23.943-31.527 40.263-64.144 47.197-94.327 6.466-28.14 4.19-52.592-6.409-68.847-7.034-10.71-15.498-19.331-25.865-26.352-19.17-12.982-39.6-22.406-57.625-30.72-45.517-20.995-81.47-37.579-60.508-94.877 13.833-37.81 52.809-60.29 115.842-66.82 49.963-5.177 100.502 1.381 119.528 3.85 3.877.503 6.92.924 7.449.848l.189-.053.127.046 52.739 7.944v.385c-.005 1.493-.506 150.946-2.852 298.657-4.752 299.244-12.302 299.972-14.784 300.211-.05.01-.103.01-.155.01" transform="rotate(-180 951 482) rotate(90 1436.5 1101.148)"/>
                </g>
            </g>
        </g>
    </g>
</svg>
