<svg xmlns="http://www.w3.org/2000/svg" xmlns:xlink="http://www.w3.org/1999/xlink" width="325" height="80" viewBox="0 0 325 80">
    <defs>
        <rect id="em8u4yut3a" width="325" height="80" x="0" y="0" rx="15"/>
    </defs>
    <g fill="none" fill-rule="evenodd">
        <g>
            <g transform="translate(-25 -674) translate(25 674)">
                <mask id="62eqbszm0b" fill="#fff">
                    <use xlink:href="#em8u4yut3a"/>
                </mask>
                <use fill="#EAFFEE" xlink:href="#em8u4yut3a"/>
                <g fill="#D7FADE" fill-rule="nonzero" mask="url(#62eqbszm0b)">
                    <g>
                        <path d="M112.082 8.879c-11.808-11.839-31.152-11.839-42.96 0L45.927 32.136c7.956-2.267 16.581-1.68 24.118 1.847l12.058-12.09c4.69-4.702 12.31-4.702 17 0 4.69 4.702 4.69 12.342 0 17.044L83.945 54.134l-9.966 9.991c-4.69 4.702-12.31 4.702-17 0L44 77.14c3.015 3.023 6.532 5.29 10.216 6.717 9.966 3.946 21.522 2.435 30.231-4.45.837-.672 1.759-1.427 2.512-2.267l15.66-15.7 9.462-9.488c11.892-11.839 11.892-31.15 0-43.072z" transform="translate(-6 -17)"/>
                        <path d="M50.432 87.528L38.866 99.112c-4.693 4.7-12.32 4.7-17.013 0-4.693-4.7-4.693-12.34 0-17.04l25.143-25.183c4.693-4.7 12.32-4.7 17.014 0L77 43.88c-3.017-3.023-6.537-5.29-10.225-6.716C56.3 32.966 43.98 34.896 35.18 42.787c-.419.336-.838.755-1.173 1.091L8.863 69.061c-11.817 11.835-11.817 31.226 0 43.062 11.817 11.836 31.177 11.836 42.994 0l22.713-23c-11.566 2.686-14.248 2.35-24.138-1.595z" transform="translate(-6 -17)"/>
                    </g>
                </g>
            </g>
        </g>
    </g>
</svg>
