<svg xmlns="http://www.w3.org/2000/svg" width="183" height="44" viewBox="0 0 183 44">
    <defs>
        <linearGradient id="114smdx4na" x1="76.225%" x2="9.333%" y1="76.09%" y2="9.333%">
            <stop offset="0%" stop-color="#00852B"/>
            <stop offset="100%" stop-color="#12CC24"/>
        </linearGradient>
        <linearGradient id="f8fcwa3xtb" x1="19.233%" x2="93.982%" y1="19.691%" y2="93.433%">
            <stop offset="0%" stop-color="#00852B"/>
            <stop offset="100%" stop-color="#12CC24"/>
        </linearGradient>
        <linearGradient id="i00nlyut4c" x1="19.052%" x2="86.945%" y1="73.572%" y2="17.283%">
            <stop offset="0%" stop-color="#12CC24"/>
            <stop offset="100%" stop-color="#00852B"/>
        </linearGradient>
        <linearGradient id="09orjopmud" x1="92.143%" x2="21.724%" y1="7.857%" y2="78.276%">
            <stop offset="0%" stop-color="#12CC24"/>
            <stop offset="100%" stop-color="#00852B"/>
        </linearGradient>
        <linearGradient id="0usibd2w3e" x1="82.928%" x2="28.65%" y1="88.071%" y2="21.217%">
            <stop offset="0%" stop-color="#00852B"/>
            <stop offset="100%" stop-color="#12CC24"/>
        </linearGradient>
        <linearGradient id="fmace5ry4f" x1="76.318%" x2="9.404%" y1="23.669%" y2="90.627%">
            <stop offset="0%" stop-color="#00852B"/>
            <stop offset="100%" stop-color="#12CC24"/>
        </linearGradient>
        <linearGradient id="7df31kczog" x1="16.539%" x2="71.71%" y1="11.26%" y2="79.251%">
            <stop offset="0%" stop-color="#00852B"/>
            <stop offset="100%" stop-color="#12CC24"/>
        </linearGradient>
        <linearGradient id="da8fga9tph" x1="11.018%" x2="79.694%" y1="83.685%" y2="27.92%">
            <stop offset="0%" stop-color="#00852B"/>
            <stop offset="100%" stop-color="#12CC24"/>
        </linearGradient>
        <linearGradient id="6i6jkabwxi" x1="50.011%" x2="50.011%" y1="99.649%" y2="-2.446%">
            <stop offset="0%" stop-color="#00852B"/>
            <stop offset="100%" stop-color="#12CC24"/>
        </linearGradient>
        <linearGradient id="h4ghauwwfj" x1="50%" x2="50%" y1="305.317%" y2="-218.525%">
            <stop offset="0%" stop-color="#00852B"/>
            <stop offset="100%" stop-color="#12CC24"/>
        </linearGradient>
        <linearGradient id="astvs9qaqk" x1="50%" x2="50%" y1="99.639%" y2="-2.076%">
            <stop offset="0%" stop-color="#00852B"/>
            <stop offset="100%" stop-color="#12CC24"/>
        </linearGradient>
    </defs>
    <g fill="none" fill-rule="evenodd">
        <g fill-rule="nonzero">
            <g>
                <path fill="url(#114smdx4na)" d="M24.06 11.282L13.887 1.117c-1.432-1.433-3.805-1.46-5.211 0-1.364 1.42-1.342 3.669.05 5.061l10.223 10.208c.677.679 1.597 1.06 2.556 1.06.958 0 1.878-.381 2.555-1.06 1.407-1.41 1.407-3.693 0-5.104z" transform="translate(-869 -215) translate(869 215)"/>
                <path fill="url(#f8fcwa3xtb)" d="M34.29 36.839L24.068 26.615c-1.412-1.411-3.7-1.411-5.112 0-1.411 1.412-1.411 3.7 0 5.112L29.18 41.95c1.415 1.388 3.684 1.377 5.086-.025 1.401-1.402 1.412-3.671.024-5.086z" transform="translate(-869 -215) translate(869 215)"/>
                <path fill="url(#i00nlyut4c)" d="M34.29 1.062c-.678-.678-1.597-1.06-2.555-1.06-.959 0-1.878.382-2.555 1.06L18.949 11.281c-.678.678-1.597 1.06-2.556 1.06-.959 0-1.878-.382-2.556-1.06l2.55 2.556 2.579 2.58c.672.673 1.585 1.05 2.537 1.05s1.865-.377 2.538-1.05L34.29 6.17c1.41-1.411 1.41-3.698 0-5.109z" transform="translate(-869 -215) translate(869 215)"/>
                <path fill="url(#09orjopmud)" d="M36.839 8.726L26.615 18.949c-.913.913-1.27 2.244-.935 3.491.334 1.247 1.308 2.222 2.556 2.556 1.247.334 2.578-.022 3.491-.936L41.95 13.837c.913-.913 1.27-2.244.936-3.491-.335-1.247-1.309-2.222-2.556-2.556-1.247-.334-2.578.023-3.491.936z" transform="translate(-869 -215) translate(869 215)"/>
                <path fill="url(#0usibd2w3e)" d="M31.727 18.949L41.95 29.172c.914.913 1.272 2.245.938 3.493-.333 1.248-1.308 2.223-2.555 2.559-1.248.335-2.58-.021-3.494-.934L26.597 24.05c-1.4-1.402-1.4-3.673 0-5.075l2.58-2.58 2.55-2.558c-1.41 1.412-1.41 3.7 0 5.112z" transform="translate(-869 -215) translate(869 215)"/>
                <path fill="url(#fmace5ry4f)" d="M6.17 34.29l10.216-10.23c1.389-1.415 1.378-3.684-.024-5.086-1.401-1.402-3.67-1.413-5.086-.025L1.062 29.172c-1.413 1.41-1.415 3.7-.004 5.113 1.41 1.413 3.7 1.415 5.113.005z" transform="translate(-869 -215) translate(869 215)"/>
                <path fill="url(#7df31kczog)" d="M11.28 24.06L1.063 13.837c-1.364-1.418-1.343-3.668.049-5.06 1.39-1.392 3.64-1.415 5.06-.051l10.24 10.24c.673.672 1.05 1.585 1.05 2.537s-.377 1.865-1.05 2.538l-2.58 2.579-2.55 2.552c.678-.678 1.06-1.597 1.06-2.556 0-.959-.382-1.878-1.06-2.556z" transform="translate(-869 -215) translate(869 215)"/>
                <path fill="url(#da8fga9tph)" d="M29.172 31.727l-2.557-2.555-2.579-2.58c-1.402-1.4-3.673-1.4-5.075 0L8.72 36.835c-1.413 1.413-1.413 3.704 0 5.117 1.414 1.413 3.704 1.412 5.117 0L24.06 31.726c1.412-1.41 3.7-1.41 5.112 0z" transform="translate(-869 -215) translate(869 215)"/>
                <path fill="#110649" d="M53.757 34.384V10.146c0-1.257 1.02-2.276 2.276-2.276h9.978c5.176.018 9.398 4.154 9.522 9.33.118 5.339-4.317 9.675-9.657 9.675h-3.982c-.213 0-.418-.084-.57-.235-.15-.15-.235-.356-.235-.57v-2.31c0-1.257 1.019-2.276 2.276-2.276H66c2.447 0 4.455-2.085 4.198-4.518-.232-2.154-2.048-3.789-4.215-3.793h-6.92v19.656c0 1.256-1.019 2.275-2.276 2.275H54.47c-.395-.003-.713-.325-.712-.72zM88.173 35.636c-5.476-.068-9.88-4.526-9.88-10.003s4.404-9.935 9.88-10.002h.053c1.88 0 3.757.925 4.69 1.573v-.733c0-.095.037-.186.104-.253.068-.068.159-.105.254-.105h4.225c.394 0 .714.32.714.713v17.565c0 .394-.32.713-.714.713h-4.228c-.198 0-.358-.16-.358-.358v-.685c-1.182.717-2.519 1.585-4.74 1.575zm0-14.79c-2.615.046-4.71 2.18-4.71 4.795 0 2.615 2.095 4.748 4.71 4.795h.045c2.28-.008 4.24-1.617 4.69-3.85V24.68c-.455-2.23-2.414-3.831-4.69-3.836h-.045zM111.614 43.986c-2.93 0-5.7-1.342-7.518-3.641-.122-.159-.172-.362-.135-.56.037-.197.156-.37.328-.473l2.029-1.244c1.07-.673 2.411-.74 3.542-.178.54.287 1.143.436 1.754.434 2.124-.02 3.866-1.191 3.945-3.298-2.424.928-5.133.746-7.41-.5-.342-.187-.671-.397-.986-.628-1.518-1.121-2.64-2.695-3.206-4.495-.263-.848-.396-1.731-.395-2.62v-8.42c0-.597.238-1.17.66-1.591.422-.422.995-.66 1.592-.659h2.296c.39 0 .707.317.707.707v9.862c0 1.467.842 2.84 2.197 3.406 1.06.443 2.268.349 3.247-.252.979-.601 1.61-1.636 1.694-2.782 0-.087.01-.173.01-.261v-8.42c0-1.243 1.008-2.25 2.25-2.25h2.296c.188-.001.368.073.501.206.133.132.208.312.208.5v18.055c-.005 5.296-4.31 9.102-9.606 9.102z" transform="translate(-869 -215) translate(869 215)"/>
                <path fill="url(#6i6jkabwxi)" d="M166.696 29.794h14.657c.395 0 .716.32.716.716v2.344c0 1.242-1.007 2.249-2.249 2.249h-17.779c-.396 0-.717-.321-.717-.718V10.12c0-1.241 1.007-2.248 2.248-2.249h17.778c.396.001.716.322.716.718v3.872c0 .19-.076.372-.21.506-.134.135-.316.21-.506.21h-14.657l.003 16.617z" transform="translate(-869 -215) translate(869 215)"/>
                <path fill="url(#h4ghauwwfj)" d="M170.875 18.803h9.463c.19 0 .373.075.507.21.135.134.21.316.21.506v2.346c0 .596-.237 1.167-.659 1.588-.421.422-.993.658-1.59.657h-9.365c-.19 0-.373-.074-.507-.209-.135-.134-.21-.316-.21-.507v-2.442c0-.57.227-1.117.63-1.52.404-.403.95-.63 1.52-.629z" transform="translate(-869 -215) translate(869 215)"/>
                <path fill="url(#astvs9qaqk)" d="M150.814 7.773c-.234-.001-.454.112-.589.303l-6.903 9.966c-.163.231-.43.369-.713.367-.284-.003-.548-.144-.707-.378l-6.669-9.94c-.133-.198-.356-.317-.595-.317h-4.571c-.45 0-.816.366-.816.817V34.29c0 .45.365.816.816.816h2.297c.57 0 1.118-.227 1.52-.63.404-.404.63-.951.63-1.522V16.932l6.618 9.2c.336.478.884.763 1.469.763.585 0 1.133-.285 1.469-.764l6.618-9.2V34.29c0 .45.365.816.816.816h2.297c1.188 0 2.15-.963 2.15-2.15V8.588c0-.217-.085-.424-.238-.577-.153-.153-.36-.239-.577-.238h-4.322z" transform="translate(-869 -215) translate(869 215)"/>
            </g>
        </g>
    </g>
</svg>
