<svg xmlns="http://www.w3.org/2000/svg" xmlns:xlink="http://www.w3.org/1999/xlink" width="200" height="200" viewBox="0 0 200 200">
    <defs>
        <path id="k249455eca" d="M0.017 0.126L163.329 0.126 163.329 74.624 0.017 74.624z"/>
        <path id="jkzg78c2uc" d="M0 157.449L190.39 157.449 190.39 0.349 0 0.349z"/>
    </defs>
    <g fill="none" fill-rule="evenodd">
        <g>
            <g>
                <g>
                    <g>
                        <g transform="translate(-844 -128) translate(733 109) translate(111 19) translate(4.688 17.188) translate(0 .06)">
                            <g transform="translate(27.062 82.825)">
                                <mask id="ijnti1rqvb" fill="#fff">
                                    <use xlink:href="#k249455eca"/>
                                </mask>
                                <path fill="#F0F0F0" d="M26.569 74.625h110.208c14.664 0 26.552-11.67 26.552-26.064V28.974C141.159 10.956 112.705.126 81.673.126 50.642.126 22.187 10.956.017 28.974v19.587c0 14.394 11.888 26.064 26.552 26.064" mask="url(#ijnti1rqvb)"/>
                            </g>
                            <path fill="#EEE" d="M86.8 48.919c-.632-2.957-3.54-4.842-6.497-4.21-2.958.631-4.842 3.54-4.21 6.497.631 2.957 3.54 4.842 6.497 4.21 2.956-.631 4.842-3.54 4.21-6.497zm7.158 1.54c-.056 1.126-.263 2.224-.604 3.271l2.153 2.209-2.775 4.282-2.895-1.064c-.815.74-1.734 1.378-2.74 1.888l-.037 3.083-4.991 1.066-1.294-2.798c-1.126-.055-2.225-.262-3.272-.604l-2.208 2.154-4.283-2.776 1.064-2.895c-.74-.816-1.377-1.734-1.888-2.74l-3.083-.038-1.066-4.99 2.798-1.294c.056-1.126.262-2.225.605-3.272l-2.154-2.208 2.775-4.283 2.895 1.064c.816-.74 1.735-1.377 2.74-1.888l.038-3.083 4.99-1.066 1.295 2.798c1.126.056 2.225.262 3.272.605l2.207-2.154 4.283 2.775-1.063 2.895c.739.816 1.376 1.735 1.887 2.74l3.083.038 1.066 4.99-2.798 1.295zM102.753 26.008c-.35-1.636-1.959-2.68-3.595-2.33-1.636.35-2.678 1.959-2.329 3.595.35 1.636 1.959 2.679 3.595 2.33 1.636-.35 2.679-1.96 2.33-3.595zm3.96.852c-.03.622-.145 1.23-.334 1.81l1.192 1.221-1.536 2.37-1.601-.59c-.452.41-.96.763-1.516 1.045l-.021 1.706-2.762.59-.715-1.548c-.623-.03-1.231-.145-1.81-.335l-1.222 1.192-2.37-1.535.59-1.602c-.41-.452-.763-.96-1.045-1.516l-1.706-.021-.59-2.76 1.549-.717c.03-.623.144-1.23.334-1.81l-1.192-1.222 1.536-2.369 1.601.589c.451-.41.96-.762 1.516-1.045l.02-1.706 2.762-.59.716 1.55c.623.03 1.231.144 1.81.333l1.222-1.192 2.37 1.536-.59 1.602c.41.45.762.959 1.045 1.515l1.706.021.59 2.761-1.549.717zM132.86 44.44c-1.997-3.659-6.583-5.007-10.242-3.01-3.66 1.998-5.008 6.584-3.01 10.243 1.997 3.66 6.582 5.008 10.242 3.01 3.66-1.997 5.008-6.583 3.01-10.242zm10.066-.778c.37 1.51.529 3.043.488 4.561l3.715 2.072-1.984 6.751-4.245-.267c-.788 1.298-1.75 2.502-2.878 3.572l1.161 4.09-6.177 3.37-2.81-3.189c-1.511.37-3.044.528-4.563.487l-2.071 3.716-6.751-1.985.268-4.245c-1.299-.787-2.503-1.75-3.572-2.878l-4.091 1.162-3.37-6.177 3.19-2.811c-.37-1.51-.53-3.044-.488-4.562l-3.716-2.071 1.985-6.752 4.244.268c.788-1.298 1.752-2.502 2.88-3.572l-1.163-4.09 6.177-3.371 2.811 3.19c1.51-.37 3.044-.529 4.562-.488l2.07-3.715 6.753 1.984-.268 4.245c1.299.788 2.502 1.75 3.572 2.879l4.09-1.162 3.371 6.177-3.19 2.811z"/>
                            <path fill="#D1D1D1" d="M167.433 136.666c0 5.363-30.296 9.711-67.669 9.711-37.372 0-67.668-4.348-67.668-9.711s30.296-9.71 67.668-9.71c37.373 0 67.669 4.347 67.669 9.71"/>
                            <path fill="#FFF" d="M52.414 135.712c-3.09 0-5.604-2.514-5.604-5.604v-66.29c0-3.089 2.514-5.603 5.604-5.603h105.793c3.09 0 5.603 2.514 5.603 5.604v66.29c0 3.09-2.513 5.603-5.603 5.603H52.414z"/>
                            <path fill="#B2B2B2" d="M158.207 58.03H52.414c-3.193 0-5.79 2.596-5.79 5.79v66.288c0 3.193 2.597 5.79 5.79 5.79h105.793c3.192 0 5.79-2.597 5.79-5.79V63.82c0-3.193-2.598-5.79-5.79-5.79m0 .372c2.991 0 5.417 2.426 5.417 5.418v66.29c0 2.992-2.426 5.417-5.417 5.417H52.414c-2.992 0-5.418-2.425-5.418-5.418V63.82c0-2.992 2.426-5.418 5.418-5.418h105.793"/>
                            <path fill="#FFF" d="M49.594 136.852c-3.752 0-6.805-3.053-6.805-6.805v-.13c0-.102.084-.185.186-.185h126.358c.103 0 .186.083.186.186v.129c0 3.752-3.053 6.805-6.805 6.805H49.594z"/>
                            <path fill="#B2B2B2" d="M169.333 129.546H42.975c-.205 0-.372.166-.372.372v.129c0 3.855 3.136 6.99 6.992 6.99h113.119c3.855 0 6.991-3.135 6.991-6.99v-.13c0-.205-.166-.371-.372-.371m0 .372v.129c0 3.656-2.964 6.619-6.62 6.619H49.596c-3.656 0-6.62-2.963-6.62-6.62v-.128h126.358"/>
                            <mask id="luxvt5i00d" fill="#fff">
                                <use xlink:href="#jkzg78c2uc"/>
                            </mask>
                            <path fill="#E1E1E1" d="M50.983 126.692L161.024 126.692 161.024 61.561 50.983 61.561z" mask="url(#luxvt5i00d)"/>
                            <path fill="#CCC" d="M94.67 129.918L96.237 132.412 118.301 132.412 119.757 129.918z" mask="url(#luxvt5i00d)"/>
                            <path fill="#FAFAFA" d="M54.653 126.667L155.967 126.667 155.967 65.898 54.653 65.898z" mask="url(#luxvt5i00d)"/>
                            <path fill="gray" d="M168.113 97.133c0 .47-.38.85-.85.85s-.85-.38-.85-.85.38-.85.85-.85.85.38.85.85M171.582 97.133c0 .47-.381.85-.85.85-.47 0-.85-.38-.85-.85s.38-.85.85-.85c.469 0 .85.38.85.85M175.05 97.133c0 .47-.38.85-.85.85s-.85-.38-.85-.85.38-.85.85-.85.85.38.85.85" mask="url(#luxvt5i00d)"/>
                            <path fill="#DBDBDB" d="M162.614 57.9c0 .054-22.681.097-50.654.097-27.983 0-50.66-.043-50.66-.097 0-.053 22.677-.097 50.66-.097 27.973 0 50.654.044 50.654.097" mask="url(#luxvt5i00d)"/>
                            <path fill="#CCC" d="M47.852 130.342L164.481 130.342 164.481 129.97 47.852 129.97z" mask="url(#luxvt5i00d)"/>
                            <path stroke="#EAEAEA" stroke-linejoin="round" stroke-width=".5" d="M143.91 42.765h5.494c.53 0 .96-.43.96-.961V36.31c0-.53-.43-.96-.96-.96h-5.493c-.53 0-.961.43-.961.96v5.493c0 .53.43.96.96.96z" mask="url(#luxvt5i00d)"/>
                            <path fill="#EAEAEA" d="M146.197 39.381h.786l.129-.637h-.786l-.129.637zm1.51-.637l-.129.637h.71v.565h-.817l-.21 1.115h-.605l.215-1.115h-.781l-.209 1.115h-.59l.204-1.115h-.654v-.565h.76l.13-.637h-.692v-.573h.793l.212-1.117h.6l-.21 1.117h.79l.214-1.117h.59l-.214 1.117h.66v.573h-.766z" mask="url(#luxvt5i00d)"/>
                            <path stroke="#B2B2B2" stroke-width="1.153" d="M134.55 53.194s9.232-9.86 25.329-2.248c16.097 7.612 38.243 33.962 16.48 62.878" mask="url(#luxvt5i00d)"/>
                            <path fill="gray" d="M142.648 63.986c-1.981 3.945-17.236-3.72-15.254-7.664l2.759-5.492c2.116-4.213 7.247-5.912 11.46-3.796 4.212 2.116 5.911 7.247 3.795 11.46l-2.76 5.492z" mask="url(#luxvt5i00d)"/>
                            <path fill="#B2B2B2" d="M127.394 56.322c-2.187 3.835 13.273 11.609 15.255 7.664 1.51-3.048-13.68-10.426-15.255-7.664" mask="url(#luxvt5i00d)"/>
                            <path fill="#FFF" d="M133.356 59.99c-.221.495-.999.629-1.736.299-.739-.33-1.158-.999-.937-1.494.222-.496 1-.63 1.738-.3s1.157.999.935 1.494M138.781 62.597c-.221.495-.999.63-1.737.3-.738-.33-1.158-1-.936-1.495.222-.495 1-.63 1.737-.3.739.33 1.158 1 .936 1.495" mask="url(#luxvt5i00d)"/>
                            <path stroke="#B2B2B2" stroke-linecap="round" stroke-width="3.299" d="M71.188 19.809L78.726 23.404M68 26.063L75.538 29.658" mask="url(#luxvt5i00d)"/>
                            <path stroke="gray" stroke-linecap="round" stroke-linejoin="round" stroke-width="3.113" d="M66.958 6.777L66.04 1.508M71.441 7.861L73.272 2.836M74.293 11.579L79.187 9.423" mask="url(#luxvt5i00d)"/>
                            <path stroke="#B2B2B2" stroke-width="1.164" d="M.128 27.808c3.12-.968 6.061-.44 6.061-.44 5.38.786 18.69 10.746 27.115 3.122 6.785-6.139 12.974-17.86 28.73-12.707" mask="url(#luxvt5i00d)"/>
                            <path fill="gray" d="M72.351 15.73c3.428 1.815-3.587 15.072-7.015 13.258l-4.773-2.525c-3.662-1.938-5.059-6.476-3.122-10.137 1.937-3.661 6.476-5.058 10.137-3.121l4.773 2.526z" mask="url(#luxvt5i00d)"/>
                            <path stroke="#6D6D6D" stroke-width=".5" d="M86.392 118.005L131.077 118.005 131.077 107.329 86.392 107.329z" mask="url(#luxvt5i00d)"/>
                            <path fill="#E1E1E1" d="M87.209 116.686L120.126 116.686 120.126 108.619 87.209 108.619z" mask="url(#luxvt5i00d)"/>
                            <path fill="#CA0F14" d="M103.688 73.492L90.872 95.69c-1.789 3.098.448 6.972 4.026 6.972h25.631c3.578 0 5.814-3.874 4.025-6.972l-12.816-22.198c-1.788-3.098-6.261-3.098-8.05 0" mask="url(#luxvt5i00d)"/>
                        </g>
                        <text fill="#FFF" font-family="Barlow-SemiBold, Barlow" font-size="30.854" font-weight="500" transform="translate(-844 -128) translate(733 109) translate(111 19) translate(4.688 17.188)">
                            <tspan x="103.865" y="95.573">!</tspan>
                        </text>
                        <g>
                            <path fill="#D1D1D1" d="M58.663 49.194c0 4.17-13.094 7.55-29.246 7.55S.17 53.364.17 49.194s13.094-7.55 29.246-7.55 29.246 3.38 29.246 7.55" transform="translate(-844 -128) translate(733 109) translate(111 19) translate(4.688 17.188) translate(131.618 99.287)"/>
                            <path fill="#EFEFEF" d="M20.394 46.151L15.114 47.156 15.305 50.031 21.222 49.885z" transform="translate(-844 -128) translate(733 109) translate(111 19) translate(4.688 17.188) translate(131.618 99.287)"/>
                            <path fill="#FFF" d="M20.394 46.15s12.797-3.619 16.776-4.63c4.556-1.158 11.468-4.3 13.798-1.388 2.33 2.914-.512 6.794-6.816 8.495-6.303 1.701-23.55 1.534-23.55 1.534l-.208-4.01z" transform="translate(-844 -128) translate(733 109) translate(111 19) translate(4.688 17.188) translate(131.618 99.287)"/>
                            <path fill="#B2B2B2" d="M10.148 45.398s-.207.66-.174 2.06.742 2.462.814 4.504c0 0 .793-1.304.754-3.42-.038-2.116-1.394-3.144-1.394-3.144M17.725 46.659c-.537.01-1.04-.056-2.27-.104-1.23-.048-1.307-.219-2.004-.592-.697-.374-2.098-.463-2.098-.463s.25.212.412 1.449c.161 1.237.168 5.237.168 5.237 1.512.01 1.965-.46 2.813-.908.848-.45 2.23-1.095 3.057-1.183.412-.612.737-2.161-.078-3.436" transform="translate(-844 -128) translate(733 109) translate(111 19) translate(4.688 17.188) translate(131.618 99.287)"/>
                            <path fill="#EAEAEA" d="M11.933 52.185c-.48-.008-1.064-.022-1.145-.223-.081-.2.478-1.393.256-3.76-.12-1.27-1.011-2.762-.897-2.804.116-.042.816-.305 1.206.101.39.407 2.366 3.002.58 6.686" transform="translate(-844 -128) translate(733 109) translate(111 19) translate(4.688 17.188) translate(131.618 99.287)"/>
                            <path fill="#B2B2B2" d="M40.54 46.26s.187.596.158 1.857c-.03 1.262-.67 2.219-.734 4.058 0 0-.715-1.175-.68-3.082.035-1.906 1.257-2.832 1.257-2.832M33.714 47.397c.484.009.936-.05 2.044-.094 1.108-.043 1.178-.197 1.807-.534.627-.336 1.89-.417 1.89-.417s-.225.192-.37 1.306c-.147 1.114-.152 4.718-.152 4.718-1.364.01-1.771-.413-2.535-.818-.764-.405-2.01-.986-2.755-1.065-.371-.551-.663-1.947.071-3.096" transform="translate(-844 -128) translate(733 109) translate(111 19) translate(4.688 17.188) translate(131.618 99.287)"/>
                            <path fill="#EAEAEA" d="M38.933 52.376c.43-.008.958-.02 1.031-.2.073-.181-.431-1.257-.23-3.388.107-1.145.91-2.49.807-2.527-.104-.038-.735-.275-1.086.092-.351.365-2.132 2.703-.522 6.023" transform="translate(-844 -128) translate(733 109) translate(111 19) translate(4.688 17.188) translate(131.618 99.287)"/>
                            <path fill="#EFEFEF" d="M24.599 15.42s-.04 1.458-.166 2.06c-.127.602 0 .92-1.839 1.236 0 0 .747 2.408 3.932 2.82 3.184.412 4.483-2.092 4.388-2.092-.095 0-.982-.364-1.267-.549-.285-.185-.074-3.696-.074-3.696l-4.974.221zM21.559 10.129s-1-.157-1.438.578c-.44.735.11 2.108 1.15 2.337.997.22 1.323-.34 1.323-.34L21.56 10.13zM31.222 8.273s.871-.515 1.55.005c.681.52.68 1.998-.201 2.596-.845.573-1.356.176-1.356.176l.007-2.777z" transform="translate(-844 -128) translate(733 109) translate(111 19) translate(4.688 17.188) translate(131.618 99.287)"/>
                            <path fill="#EFEFEF" d="M27.643 3.432c-.776-.266-1.602-.351-2.399-.198-.796.153-1.579.507-2.2 1.041-1.452 1.248-2.012 3.22-1.659 5.069l.002.008c.1.529.233 1.052.395 1.565l.228.718c.177.561.578 1.636 1.219 2.618 1.271 1.948 3.335 2.268 4.523 2.04 1.188-.228 2.987-1.29 3.446-3.571.231-1.15.206-2.295.163-2.883l-.055-.751c-.04-.537-.11-1.071-.212-1.6l-.002-.008c-.356-1.849-1.64-3.427-3.45-4.048" transform="translate(-844 -128) translate(733 109) translate(111 19) translate(4.688 17.188) translate(131.618 99.287)"/>
                            <path fill="#B2B2B2" d="M23.384 18.55c.226.907 1.508 2.345 3.373 2.432 1.864.087 3.404-1.165 3.658-1.716 1.557.144 3.535.566 4.198.687.941.171 1.852 1.01 1.516 3.656-.326 2.57-2.365 18.817-2.365 18.817s-5.39 2.092-12.676.174c0 0-4.41-17.634-4.801-19.16-.392-1.525-.872-3.137.523-3.617s6.574-1.274 6.574-1.274" transform="translate(-844 -128) translate(733 109) translate(111 19) translate(4.688 17.188) translate(131.618 99.287)"/>
                            <path fill="#FFF" d="M35.141 46.973S23.234 42.866 18.82 41.25c-4.414-1.618-10.885-4.853-13.44-2.136-2.556 2.718-.42 6.765 5.726 8.965 6.147 2.2 23.507 2.876 23.507 2.876.532-1.29.704-2.618.528-3.98" transform="translate(-844 -128) translate(733 109) translate(111 19) translate(4.688 17.188) translate(131.618 99.287)"/>
                            <path fill="#EAEAEA" d="M35.126 49.11h-.268s-7.761-.503-16.073-1.874C10.62 45.89 5.1 43.144 4.36 41.124c-.363 2.443 1.989 5.252 6.746 6.954 6.146 2.2 23.507 2.876 23.507 2.876.224-.535.403-1.137.513-1.843" transform="translate(-844 -128) translate(733 109) translate(111 19) translate(4.688 17.188) translate(131.618 99.287)"/>
                            <path fill="#D7D7D7" d="M14.84 22.49S8.81 33.385 7.714 35.222c-1.096 1.838-.87 3.901-.645 4.417.226.516 3.353.87 6.222-.226 2.87-1.096 10.256-4.85 10.804-5.14 0 0 .934-.284 1.64.05.986.467 1.784.486 2.422.97.64.483 1.34 1.405 2.575.809.735-.355-.895-2.641-1.625-3.903-.713-.611-3.494-.918-4.771-.736-1.807.257-10.88 3.345-10.88 3.345l3.288-5.673-1.906-6.647z" transform="translate(-844 -128) translate(733 109) translate(111 19) translate(4.688 17.188) translate(131.618 99.287)"/>
                            <path fill="#B2B2B2" d="M17.122 19.722c-1.48.466-2.05 1.19-3.498 3.824-1.449 2.633-3.363 5.837-3.363 5.837s1.556 2.426 4.986 3.116l2.329-3.934-.454-8.843z" transform="translate(-844 -128) translate(733 109) translate(111 19) translate(4.688 17.188) translate(131.618 99.287)"/>
                            <path fill="#D7D7D7" d="M35.909 17.882s1.186-1.501 2.069-3.107c1.546-2.813 2.026-4.872 1.53-5.49-1.772-2.205-5.752-4.226-8.256-5.976 0 0-1.748.565-2.627-.708-.784-1.136-2.144-1.14-2.93-1.312-.703-.155-.942-1.117 1.586-1.247 2.953 0 3.935.742 4.993 1.748.78.742 10.167 2.711 11.803 6.767 1.66 4.112-4.297 13.294-4.297 13.294l-3.871-3.969z" transform="translate(-844 -128) translate(733 109) translate(111 19) translate(4.688 17.188) translate(131.618 99.287)"/>
                            <path fill="#B2B2B2" d="M30.415 19.266c1.668-.664 5.637-1.377 7.047-4.385 0 0 2.99 1.443 4.515 4.59 0 0-2.522 3.834-7.183 6.64l-4.379-6.845z" transform="translate(-844 -128) translate(733 109) translate(111 19) translate(4.688 17.188) translate(131.618 99.287)"/>
                            <path fill="#253B64" d="M22.594 8.229c.282-.69.843-.862 2.97-.287 2.125.576 3.55-.687 3.335-1.807 0 0 .814 1.91 2.323 2.138 0 0 .507-1.35.341-2.857-.165-1.508-.879-2.258-1.65-2.815-.733-.53-1.447-.21-1.742-.018-.386-.73-1.526-2.27-3.77-2.019-2.508.28-3.484 2.014-3.118 4.658 0 0-.942-.265-1.507.829-.563 1.093.064 3.217.814 4.224 0 0 .97-.146 2.004 1.33 0 0-.318-2.595 0-3.376" transform="translate(-844 -128) translate(733 109) translate(111 19) translate(4.688 17.188) translate(131.618 99.287)"/>
                        </g>
                    </g>
                </g>
            </g>
        </g>
    </g>
</svg>
