<svg xmlns="http://www.w3.org/2000/svg" xmlns:xlink="http://www.w3.org/1999/xlink" width="260" height="206" viewBox="0 0 260 206">
    <defs>
        <path id="6xhkd7vqqa" d="M0 0.063L259.542 0.063 259.542 118.46 0 118.46z"/>
        <path id="xxgwg760tc" d="M0.074 0.413L215.157 0.413 215.157 31.278 0.074 31.278z"/>
        <path id="5m60pdsvfe" d="M0.523 0.206L35.594 0.206 35.594 18.273 0.523 18.273z"/>
    </defs>
    <g fill="none" fill-rule="evenodd">
        <g>
            <g>
                <g transform="translate(-830 -469) translate(830 469) translate(0 66.26)">
                    <mask id="7spmogf3bb" fill="#fff">
                        <use xlink:href="#6xhkd7vqqa"/>
                    </mask>
                    <path fill="#F4F4F4" fill-rule="nonzero" d="M42.197 118.46h175.147c23.306 0 42.198-18.544 42.198-41.42V45.91C224.309 17.275 179.088.063 129.77.063 80.454.063 35.233 17.275 0 45.91v31.13c0 22.876 18.892 41.42 42.197 41.42" mask="url(#7spmogf3bb)"/>
                </g>
                <path fill="#FFF" fill-rule="nonzero" d="M131.397 66.683h65.871c1.327 0 2.402 1.076 2.402 2.402v97.021c0 4.577-3.71 8.288-8.286 8.288h-45.738c-9.753 0-17.658-7.906-17.658-17.66V70.093c0-1.883 1.526-3.41 3.41-3.41" transform="translate(-830 -469) translate(830 469)"/>
                <path fill="#F4F4F4" fill-rule="nonzero" d="M128.826 66.683h69.557c.711 0 1.288.576 1.288 1.288v98.521c0 4.364-3.538 7.902-7.902 7.902h-47.693c-8.885 0-16.088-7.204-16.088-16.09V67.521c0-.463.374-.838.838-.838" transform="translate(-830 -469) translate(830 469)"/>
                <path fill="#D6D6D6" fill-rule="nonzero" d="M134.923 66.683h63.73c.561 0 1.017.456 1.017 1.018v99.06c0 4.216-3.417 7.633-7.631 7.633h-41.864c-8.737 0-15.82-7.083-15.82-15.82V67.252c0-.314.255-.57.568-.57" transform="translate(-830 -469) translate(830 469)"/>
                <path fill="#F4F4F4" fill-rule="nonzero" d="M144.358 174.376v.017h57.576c6.626 0 11.998-5.372 11.998-11.998v-4.558h-58.227v4.558c0 6.408-5.023 11.642-11.347 11.98" transform="translate(-830 -469) translate(830 469)"/>
                <path fill="#E2E2E2" fill-rule="nonzero" d="M151.991 174.376v.017h51.26c5.899 0 10.682-5.372 10.682-11.998v-4.558h-51.84v4.558c0 6.408-4.471 11.642-10.102 11.98" transform="translate(-830 -469) translate(830 469)"/>
                <path fill="#FFF" fill-rule="nonzero" d="M188.79 145.422h-41.397c-.286 0-.516-.23-.516-.516 0-.285.23-.516.516-.516h41.397c.286 0 .516.231.516.516 0 .286-.23.516-.516.516" transform="translate(-830 -469) translate(830 469)"/>
                <path stroke="#FFF" stroke-width="1.955" d="M188.79 145.422h-41.397c-.286 0-.516-.23-.516-.516 0-.285.23-.516.516-.516h41.397c.286 0 .516.231.516.516 0 .286-.23.516-.516.516z" transform="translate(-830 -469) translate(830 469)"/>
                <path fill="#FFF" fill-rule="nonzero" d="M189.659 127.992h-43.04c-.285 0-.516-.23-.516-.516 0-.285.231-.516.516-.516h43.04c.285 0 .516.231.516.516 0 .285-.231.516-.516.516" transform="translate(-830 -469) translate(830 469)"/>
                <path stroke="#FFF" stroke-width="1.955" d="M189.659 127.992h-43.04c-.285 0-.516-.23-.516-.516 0-.285.231-.516.516-.516h43.04c.285 0 .516.231.516.516 0 .285-.231.516-.516.516z" transform="translate(-830 -469) translate(830 469)"/>
                <path fill="#FFF" fill-rule="nonzero" d="M168.091 136.7H146.1c-.285 0-.516-.232-.516-.516 0-.285.231-.516.516-.516h21.992c.285 0 .517.23.517.516 0 .284-.232.516-.517.516" transform="translate(-830 -469) translate(830 469)"/>
                <path stroke="#FFF" stroke-width="1.955" d="M168.091 136.7H146.1c-.285 0-.516-.232-.516-.516 0-.285.231-.516.516-.516h21.992c.285 0 .517.23.517.516 0 .284-.232.516-.517.516z" transform="translate(-830 -469) translate(830 469)"/>
                <path fill="#FFF" fill-rule="nonzero" d="M166.425 136.7h-18.66c-.285 0-.516-.232-.516-.516 0-.285.231-.516.516-.516h18.66c.285 0 .517.23.517.516 0 .284-.232.516-.517.516" transform="translate(-830 -469) translate(830 469)"/>
                <path stroke="#FFF" stroke-width="1.955" d="M166.425 136.7h-18.66c-.285 0-.516-.232-.516-.516 0-.285.231-.516.516-.516h18.66c.285 0 .517.23.517.516 0 .284-.232.516-.517.516z" transform="translate(-830 -469) translate(830 469)"/>
                <path fill="#FFF" fill-rule="nonzero" d="M175.25 109.355h-28.332c-.285 0-.516-.23-.516-.516 0-.285.23-.516.516-.516h28.332c.285 0 .517.231.517.516 0 .285-.232.516-.517.516" transform="translate(-830 -469) translate(830 469)"/>
                <path stroke="#FFF" stroke-width="1.955" d="M175.25 109.355h-28.332c-.285 0-.516-.23-.516-.516 0-.285.23-.516.516-.516h28.332c.285 0 .517.231.517.516 0 .285-.232.516-.517.516z" transform="translate(-830 -469) translate(830 469)"/>
                <path fill="#FFF" fill-rule="nonzero" d="M188.385 109.355h-8.63c-.286 0-.516-.23-.516-.516 0-.285.23-.516.516-.516h8.63c.285 0 .516.231.516.516 0 .285-.231.516-.516.516" transform="translate(-830 -469) translate(830 469)"/>
                <path stroke="#FFF" stroke-width="1.955" d="M188.385 109.355h-8.63c-.286 0-.516-.23-.516-.516 0-.285.23-.516.516-.516h8.63c.285 0 .516.231.516.516 0 .285-.231.516-.516.516z" transform="translate(-830 -469) translate(830 469)"/>
                <path fill="#FFF" fill-rule="nonzero" d="M189.659 118.063h-30.68c-.285 0-.516-.23-.516-.516 0-.285.231-.516.517-.516h30.679c.285 0 .516.231.516.516 0 .285-.231.516-.516.516" transform="translate(-830 -469) translate(830 469)"/>
                <path stroke="#FFF" stroke-width="1.955" d="M189.659 118.063h-30.68c-.285 0-.516-.23-.516-.516 0-.285.231-.516.517-.516h30.679c.285 0 .516.231.516.516 0 .285-.231.516-.516.516z" transform="translate(-830 -469) translate(830 469)"/>
                <path fill="#FFF" fill-rule="nonzero" d="M155.95 118.063h-9.33c-.286 0-.517-.23-.517-.516 0-.285.23-.516.516-.516h9.33c.285 0 .516.231.516.516 0 .285-.231.516-.516.516" transform="translate(-830 -469) translate(830 469)"/>
                <path stroke="#FFF" stroke-width="1.955" d="M155.95 118.063h-9.33c-.286 0-.517-.23-.517-.516 0-.285.23-.516.516-.516h9.33c.285 0 .516.231.516.516 0 .285-.231.516-.516.516z" transform="translate(-830 -469) translate(830 469)"/>
                <path fill="#FFF" fill-rule="nonzero" d="M188.79 101.982h-41.397c-.286 0-.516-.232-.516-.516 0-.285.23-.516.516-.516h41.397c.286 0 .516.23.516.516 0 .284-.23.516-.516.516" transform="translate(-830 -469) translate(830 469)"/>
                <path stroke="#FFF" stroke-width="1.955" d="M188.79 101.982h-41.397c-.286 0-.516-.232-.516-.516 0-.285.23-.516.516-.516h41.397c.286 0 .516.23.516.516 0 .284-.23.516-.516.516z" transform="translate(-830 -469) translate(830 469)"/>
                <path fill="#FFF" fill-rule="nonzero" d="M188.79 84.551h-41.397c-.286 0-.516-.231-.516-.516 0-.285.23-.516.516-.516h41.397c.286 0 .516.231.516.516 0 .285-.23.516-.516.516" transform="translate(-830 -469) translate(830 469)"/>
                <path stroke="#FFF" stroke-width="1.955" d="M188.79 84.551h-41.397c-.286 0-.516-.231-.516-.516 0-.285.23-.516.516-.516h41.397c.286 0 .516.231.516.516 0 .285-.23.516-.516.516z" transform="translate(-830 -469) translate(830 469)"/>
                <path fill="#FFF" fill-rule="nonzero" d="M162.586 93.26h-15.668c-.285 0-.516-.231-.516-.517 0-.285.231-.516.516-.516h15.668c.285 0 .516.231.516.516 0 .286-.23.516-.516.516" transform="translate(-830 -469) translate(830 469)"/>
                <path stroke="#FFF" stroke-width="1.955" d="M162.586 93.26h-15.668c-.285 0-.516-.231-.516-.517 0-.285.231-.516.516-.516h15.668c.285 0 .516.231.516.516 0 .286-.23.516-.516.516z" transform="translate(-830 -469) translate(830 469)"/>
                <path fill="#FFF" fill-rule="nonzero" d="M188.476 93.26h-18.66c-.286 0-.517-.231-.517-.517 0-.285.231-.516.516-.516h18.66c.286 0 .517.231.517.516 0 .286-.231.516-.516.516" transform="translate(-830 -469) translate(830 469)"/>
                <path stroke="#FFF" stroke-width="1.955" d="M188.476 93.26h-18.66c-.286 0-.517-.231-.517-.517 0-.285.231-.516.516-.516h18.66c.286 0 .517.231.517.516 0 .286-.231.516-.516.516z" transform="translate(-830 -469) translate(830 469)"/>
                <path fill="#FFF" fill-rule="nonzero" d="M120.745 83.945h45.121c.909 0 1.646.737 1.646 1.646v66.458c0 3.135-2.542 5.677-5.677 5.677h-31.329c-6.68 0-12.097-5.416-12.097-12.097V86.281c0-1.29 1.047-2.336 2.336-2.336" transform="translate(-830 -469) translate(830 469)"/>
                <path fill="#F4F4F4" fill-rule="nonzero" d="M118.984 83.945h47.645c.487 0 .883.395.883.883v67.485c0 2.99-2.423 5.413-5.413 5.413H129.43c-6.087 0-11.02-4.935-11.02-11.021V84.519c0-.316.256-.574.574-.574" transform="translate(-830 -469) translate(830 469)"/>
                <path stroke="#B2B2B2" stroke-width="1.303" d="M123.16 83.945h43.654c.385 0 .698.312.698.697v67.856c0 2.887-2.341 5.228-5.229 5.228h-28.676c-5.984 0-10.836-4.852-10.836-10.837V84.335c0-.215.174-.39.39-.39z" transform="translate(-830 -469) translate(830 469)"/>
                <path fill="#F4F4F4" fill-rule="nonzero" d="M129.623 157.714v.012h39.439c4.539 0 8.22-3.68 8.22-8.22v-3.122h-39.886v3.122c0 4.39-3.442 7.976-7.773 8.208" transform="translate(-830 -469) translate(830 469)"/>
                <path fill="#E2E2E2" fill-rule="nonzero" d="M130.376 157.714v.012h35.112c4.041 0 7.317-3.68 7.317-8.22v-3.122h-35.509v3.122c0 4.39-3.063 7.976-6.92 8.208M160.059 137.88H131.7c-.194 0-.353-.157-.353-.353 0-.195.159-.354.353-.354h28.358c.195 0 .354.159.354.354 0 .196-.159.353-.354.353M160.654 125.94h-29.482c-.195 0-.354-.157-.354-.352 0-.196.159-.354.354-.354h29.482c.195 0 .353.158.353.354 0 .195-.158.353-.353.353M145.88 131.905h-15.064c-.196 0-.354-.158-.354-.353 0-.195.158-.354.354-.354h15.064c.196 0 .354.159.354.354 0 .195-.158.353-.354.353" transform="translate(-830 -469) translate(830 469)"/>
                <path fill="#E2E2E2" fill-rule="nonzero" d="M144.74 131.905h-12.783c-.195 0-.353-.158-.353-.353 0-.195.158-.354.353-.354h12.782c.195 0 .353.159.353.354 0 .195-.158.353-.353.353M150.784 113.175h-19.407c-.195 0-.354-.158-.354-.354 0-.195.159-.353.354-.353h19.407c.195 0 .354.158.354.353 0 .196-.159.354-.354.354M159.78 113.175h-5.911c-.195 0-.353-.158-.353-.354 0-.195.158-.353.353-.353h5.912c.195 0 .353.158.353.353 0 .196-.158.354-.353.354M160.654 119.14h-21.015c-.196 0-.354-.158-.354-.354 0-.195.158-.354.354-.354h21.015c.195 0 .353.159.353.354 0 .196-.158.353-.353.353M137.563 119.14h-6.391c-.195 0-.354-.158-.354-.354 0-.195.159-.354.354-.354h6.39c.196 0 .354.159.354.354 0 .196-.158.353-.353.353M160.059 108.124H131.7c-.194 0-.353-.158-.353-.353 0-.196.159-.354.353-.354h28.358c.195 0 .354.158.354.354 0 .195-.159.353-.354.353M160.059 96.185H131.7c-.194 0-.353-.158-.353-.353 0-.196.159-.354.353-.354h28.358c.195 0 .354.158.354.354 0 .195-.159.353-.354.353M142.109 102.15h-10.732c-.196 0-.354-.159-.354-.353 0-.196.158-.354.354-.354h10.732c.196 0 .354.158.354.354 0 .194-.158.353-.354.353M159.843 102.15h-12.782c-.195 0-.354-.159-.354-.353 0-.196.159-.354.354-.354h12.782c.195 0 .354.158.354.354 0 .194-.159.353-.354.353" transform="translate(-830 -469) translate(830 469)"/>
                <g transform="translate(-830 -469) translate(830 469) translate(22.155 173.127)">
                    <mask id="4zsqlg22kd" fill="#fff">
                        <use xlink:href="#xxgwg760tc"/>
                    </mask>
                    <path fill="#D1D1D1" fill-rule="nonzero" d="M215.157 15.846c0 8.523-48.148 15.432-107.542 15.432S.074 24.368.074 15.846C.074 7.323 48.22.413 107.615.413s107.542 6.91 107.542 15.433" mask="url(#4zsqlg22kd)"/>
                </g>
                <path fill="#E2E2E2" fill-rule="nonzero" d="M41.069 59.7c4.87 0 5.14-8.244.275-8.51-.132-.007-.267-.01-.4-.01-.87 0-1.706.154-2.49.437-.652-4.462-4.095-7.867-8.247-7.867-4.244 0-7.747 3.557-8.285 8.164-1.007-.543-2.135-.847-3.326-.847-.666 0-1.311.095-1.927.273-4.26 1.233-3.365 8.36 1.033 8.36H41.07z" transform="translate(-830 -469) translate(830 469)"/>
                <g transform="translate(-830 -469) translate(830 469) translate(100.35 .446)">
                    <mask id="1gqmauyigf" fill="#fff">
                        <use xlink:href="#5m60pdsvfe"/>
                    </mask>
                    <path fill="#E2E2E2" fill-rule="nonzero" d="M31.299 18.273c5.518 0 5.824-9.339.312-9.639-.15-.008-.302-.013-.455-.013-.984 0-1.93.175-2.82.497C27.6 4.063 23.7.206 18.997.206c-4.807 0-8.775 4.03-9.385 9.248-1.14-.615-2.418-.96-3.767-.96-.754 0-1.486.107-2.183.31-4.825 1.397-3.812 9.469 1.17 9.469H31.3z" mask="url(#1gqmauyigf)"/>
                </g>
                <path stroke="#B2B2B2" stroke-dasharray="4.673" stroke-width="1.455" d="M241.44 66.362s-31.594 6.26-45.309-4.78c-13.715-11.04-1.909-33.875 10.267-21.235 12.175 12.64-14.232 27.278-33.755 8.186-19.522-19.092-23.76-27.174-23.76-27.174" transform="translate(-830 -469) translate(830 469)"/>
                <g>
                    <path fill="#FFF" fill-rule="nonzero" d="M10.38.162h8.323s8.249.181 5.834 10.24C22.123 20.463 11.46 58.085 11.46 58.085S9.906 63.8 2.233 61.948C-5.44 60.096 10.38.162 10.38.162" transform="translate(-830 -469) translate(830 469) translate(176.591 117.739)"/>
                    <path stroke="#B2B2B2" stroke-width="1.365" d="M10.38.162h8.323s8.249.181 5.834 10.24C22.123 20.463 11.46 58.085 11.46 58.085S9.906 63.8 2.233 61.948C-5.44 60.096 10.38.162 10.38.162" transform="translate(-830 -469) translate(830 469) translate(176.591 117.739)"/>
                </g>
                <path fill="#0AB822" fill-rule="nonzero" d="M88.155 101.193h34.096l13.313 13.094h44.29s6.855-1.32 7.118 6.854v54.596s.986 7.578-8.147 7.19h-93.68s-5.87-.048-5.761-6.959v-68.002s.641-7.922 8.77-6.773" transform="translate(-830 -469) translate(830 469)"/>
                <path stroke="#FFF" stroke-linecap="round" stroke-width="3.783" d="M130.527 139.226L130.527 152.218 144.225 152.218M105.549 143.684L111.367 148.979 117.598 144.719" transform="translate(-830 -469) translate(830 469)"/>
                <path stroke="#FFF" stroke-linecap="round" stroke-width="3.783" d="M111.367 147.348c0-12.054 9.772-21.826 21.826-21.826s21.826 9.772 21.826 21.826-9.772 21.826-21.826 21.826c-7.534 0-14.176-3.817-18.098-9.623" transform="translate(-830 -469) translate(830 469)"/>
                <path fill="#FFF" fill-rule="nonzero" d="M44.65 158.263c-.875 0-1.741-.232-2.505-.67-1.167-.671-2.001-1.756-2.352-3.054-.35-1.299-.174-2.656.496-3.823l21.16-36.809c.05-.088.142-.138.238-.138.046 0 .093.012.136.036l8.257 4.747c.063.036.108.096.128.166.019.07.01.145-.027.208l-21.16 36.81c-.895 1.558-2.57 2.527-4.37 2.527" transform="translate(-830 -469) translate(830 469)"/>
                <path fill="#B6B6B7" fill-rule="nonzero" d="M61.687 113.494c-.19 0-.375.1-.476.276l-21.16 36.81c-.706 1.23-.892 2.66-.523 4.03.37 1.37 1.25 2.513 2.481 3.22.805.463 1.718.707 2.641.707 1.899 0 3.665-1.02 4.61-2.665l21.158-36.809c.073-.126.093-.276.054-.417-.038-.14-.13-.26-.256-.332l-8.257-4.747c-.086-.05-.18-.073-.272-.073m0 .55l8.256 4.746-21.16 36.809c-.88 1.532-2.483 2.39-4.133 2.39-.804 0-1.62-.205-2.368-.634-2.28-1.311-3.066-4.222-1.755-6.502l21.16-36.81" transform="translate(-830 -469) translate(830 469)"/>
                <path fill="#FFF" fill-rule="nonzero" d="M83.14 60.86c-9.024 0-17.42 4.855-21.913 12.67-6.938 12.07-2.764 27.535 9.306 34.474 3.828 2.2 8.17 3.363 12.56 3.363 9.024 0 17.421-4.855 21.914-12.67 3.361-5.847 4.244-12.653 2.486-19.164-1.758-6.511-5.946-11.948-11.794-15.31-3.827-2.2-8.17-3.363-12.559-3.363m-12.523 60.25c-.482 0-.96-.128-1.38-.37l-8.67-4.982c-.64-.37-1.101-.967-1.294-1.682-.193-.716-.096-1.464.273-2.106.457-.796 1.284-1.311 2.192-1.382-11.69-10.177-14.57-27.138-6.792-40.668 5.782-10.057 16.588-16.304 28.2-16.304 5.65 0 11.238 1.496 16.164 4.328 7.524 4.325 12.915 11.321 15.176 19.7 2.263 8.38 1.126 17.139-3.2 24.663-5.78 10.058-16.586 16.304-28.197 16.305h-.003c-3.42-.001-6.788-.537-10.026-1.594.443.826.453 1.85-.036 2.7-.493.858-1.416 1.391-2.407 1.391" transform="translate(-830 -469) translate(830 469)"/>
                <path fill="#B6B6B7" fill-rule="nonzero" d="M83.093 111.092c-4.34 0-8.636-1.15-12.422-3.326-5.784-3.325-9.927-8.703-11.666-15.143-1.738-6.44-.865-13.172 2.46-18.956 4.443-7.73 12.749-12.532 21.675-12.532 4.341 0 8.637 1.15 12.424 3.326 11.938 6.863 16.068 22.16 9.205 34.1-4.444 7.729-12.75 12.531-21.676 12.531m.054-57.75c-11.711 0-22.608 6.3-28.439 16.441-3.878 6.748-5.23 14.67-3.808 22.311 1.318 7.08 4.934 13.535 10.233 18.324-.76.212-1.423.715-1.825 1.415-.838 1.458-.334 3.324 1.124 4.162l8.668 4.983c.462.266.987.406 1.517.406 1.088 0 2.102-.586 2.645-1.53.429-.747.508-1.615.275-2.398 3.093.95 6.298 1.43 9.55 1.43 11.71 0 22.608-6.3 28.438-16.442 4.362-7.588 5.508-16.421 3.226-24.87-2.28-8.451-7.716-15.506-15.304-19.868-4.967-2.856-10.604-4.365-16.3-4.365m-.054 58.3c8.838 0 17.431-4.596 22.151-12.808 7.025-12.22 2.814-27.822-9.407-34.847-4.01-2.305-8.382-3.4-12.697-3.4-8.836 0-17.43 4.596-22.151 12.808-7.025 12.22-2.813 27.822 9.409 34.848 4.008 2.304 8.38 3.398 12.695 3.398m.054-57.75c5.445 0 10.966 1.383 16.027 4.291 15.426 8.868 20.744 28.563 11.875 43.99-5.959 10.365-16.806 16.167-27.962 16.167-3.626 0-7.285-.613-10.819-1.881.878.769 1.123 2.074.519 3.124-.462.804-1.304 1.255-2.17 1.255-.423 0-.85-.108-1.244-.333l-8.668-4.984c-1.197-.687-1.61-2.216-.922-3.413.462-.803 1.304-1.251 2.168-1.251.205 0 .412.025.616.077-11.887-9.82-15.326-27.058-7.383-40.875C61.144 59.69 71.99 53.89 83.147 53.89" transform="translate(-830 -469) translate(830 469)"/>
                <path fill="#E2E2E2" fill-rule="nonzero" d="M60.705 115.519L60.9 134.576 68.959 120.556z" transform="translate(-830 -469) translate(830 469)"/>
                <g fill="#BFBFBF" fill-rule="nonzero">
                    <path d="M8.4 8.845L9.062 7.693.765 3.017.104 4.169zM9.879 6.272L10.542 5.12 2.245.444 1.583 1.595z" transform="translate(-830 -469) translate(830 469) translate(41.704 144.456)"/>
                </g>
                <path fill="#F0F0F0" fill-rule="nonzero" d="M108.473 86.285c0 14.004-11.352 25.357-25.356 25.357-14.004 0-25.356-11.353-25.356-25.357s11.352-25.356 25.356-25.356c14.004 0 25.356 11.352 25.356 25.356" transform="translate(-830 -469) translate(830 469)"/>
                <path fill="#B2B2B2" fill-rule="nonzero" d="M72.296 88.028c0 1.772-1.437 3.209-3.21 3.209s-3.21-1.437-3.21-3.21 1.437-3.21 3.21-3.21 3.21 1.437 3.21 3.21M85.396 88.028c0 1.772-1.437 3.209-3.21 3.209s-3.21-1.437-3.21-3.21 1.437-3.21 3.21-3.21 3.21 1.437 3.21 3.21M98.496 88.028c0 1.772-1.437 3.209-3.21 3.209-1.772 0-3.21-1.437-3.21-3.21s1.438-3.21 3.21-3.21c1.773 0 3.21 1.437 3.21 3.21" transform="translate(-830 -469) translate(830 469)"/>
            </g>
        </g>
    </g>
</svg>
