<svg xmlns="http://www.w3.org/2000/svg" xmlns:xlink="http://www.w3.org/1999/xlink" width="720" height="80" viewBox="0 0 720 80">
    <defs>
        <linearGradient id="kcqmyihxcb" x1="100.926%" x2="0%" y1="49.574%" y2="50.604%">
            <stop offset="0%" stop-color="#10AA3A"/>
            <stop offset="100%" stop-color="#009919"/>
        </linearGradient>
        <linearGradient id="9wsnjiy1vd" x1="106.427%" x2="11.743%" y1="25.144%" y2="76.336%">
            <stop offset="0%" stop-color="#CECECE"/>
            <stop offset="18.163%" stop-color="#065513"/>
            <stop offset="48.798%" stop-color="#CECECE"/>
            <stop offset="75.412%" stop-color="#065513"/>
            <stop offset="100%" stop-color="#CECECE"/>
        </linearGradient>
        <linearGradient id="3fil99brxe" x1="106.427%" x2="11.743%" y1="25.199%" y2="76.278%">
            <stop offset="0%" stop-color="#CECECE"/>
            <stop offset="18.163%" stop-color="#065513"/>
            <stop offset="48.798%" stop-color="#CECECE"/>
            <stop offset="75.412%" stop-color="#065513"/>
            <stop offset="100%" stop-color="#CECECE"/>
        </linearGradient>
        <linearGradient id="gslx7fkjpf" x1="106.427%" x2="11.743%" y1="25.304%" y2="76.167%">
            <stop offset="0%" stop-color="#CECECE"/>
            <stop offset="18.163%" stop-color="#065513"/>
            <stop offset="48.798%" stop-color="#CECECE"/>
            <stop offset="75.412%" stop-color="#065513"/>
            <stop offset="100%" stop-color="#CECECE"/>
        </linearGradient>
        <linearGradient id="ltkp35wtmg" x1="106.427%" x2="11.743%" y1="24.032%" y2="77.514%">
            <stop offset="0%" stop-color="#CECECE"/>
            <stop offset="18.163%" stop-color="#065513"/>
            <stop offset="48.798%" stop-color="#CECECE"/>
            <stop offset="75.412%" stop-color="#065513"/>
            <stop offset="100%" stop-color="#CECECE"/>
        </linearGradient>
        <linearGradient id="zq6ait9ytj" x1="101.843%" x2="14.851%" y1="10.013%" y2="92.368%">
            <stop offset="0%" stop-color="#CECECE"/>
            <stop offset="18.163%" stop-color="#065513"/>
            <stop offset="48.798%" stop-color="#CECECE"/>
            <stop offset="75.412%" stop-color="#065513"/>
            <stop offset="100%" stop-color="#CECECE"/>
        </linearGradient>
        <linearGradient id="ggc20xwt3k" x1="102.851%" x2="14.168%" y1="10.013%" y2="92.368%">
            <stop offset="0%" stop-color="#CECECE"/>
            <stop offset="18.163%" stop-color="#065513"/>
            <stop offset="48.798%" stop-color="#CECECE"/>
            <stop offset="75.412%" stop-color="#065513"/>
            <stop offset="100%" stop-color="#CECECE"/>
        </linearGradient>
        <linearGradient id="nrrf48jg6l" x1="106.427%" x2="11.743%" y1="16.645%" y2="85.341%">
            <stop offset="0%" stop-color="#CECECE"/>
            <stop offset="18.163%" stop-color="#065513"/>
            <stop offset="48.798%" stop-color="#CECECE"/>
            <stop offset="75.412%" stop-color="#065513"/>
            <stop offset="100%" stop-color="#CECECE"/>
        </linearGradient>
        <linearGradient id="zvumk8tyqm" x1="106.427%" x2="11.743%" y1="22.559%" y2="79.075%">
            <stop offset="0%" stop-color="#CECECE"/>
            <stop offset="18.163%" stop-color="#065513"/>
            <stop offset="48.798%" stop-color="#CECECE"/>
            <stop offset="75.412%" stop-color="#065513"/>
            <stop offset="100%" stop-color="#CECECE"/>
        </linearGradient>
        <linearGradient id="90u1mxsgqn" x1="81.737%" x2="28.482%" y1="10.013%" y2="92.368%">
            <stop offset="0%" stop-color="#CECECE"/>
            <stop offset="18.163%" stop-color="#065513"/>
            <stop offset="48.798%" stop-color="#CECECE"/>
            <stop offset="75.412%" stop-color="#065513"/>
            <stop offset="100%" stop-color="#CECECE"/>
        </linearGradient>
        <linearGradient id="fkboem062o" x1="81.79%" x2="28.446%" y1="10.013%" y2="92.368%">
            <stop offset="0%" stop-color="#CECECE"/>
            <stop offset="18.163%" stop-color="#065513"/>
            <stop offset="48.798%" stop-color="#CECECE"/>
            <stop offset="75.412%" stop-color="#065513"/>
            <stop offset="100%" stop-color="#CECECE"/>
        </linearGradient>
        <linearGradient id="x24el8njyp" x1="106.427%" x2="11.743%" y1="24.968%" y2="76.523%">
            <stop offset="0%" stop-color="#CECECE"/>
            <stop offset="18.163%" stop-color="#065513"/>
            <stop offset="48.798%" stop-color="#CECECE"/>
            <stop offset="75.412%" stop-color="#065513"/>
            <stop offset="100%" stop-color="#CECECE"/>
        </linearGradient>
        <linearGradient id="bmfelggxkq" x1="96.598%" x2="18.407%" y1="10.013%" y2="92.368%">
            <stop offset="0%" stop-color="#CECECE"/>
            <stop offset="18.163%" stop-color="#065513"/>
            <stop offset="48.798%" stop-color="#CECECE"/>
            <stop offset="75.412%" stop-color="#065513"/>
            <stop offset="100%" stop-color="#CECECE"/>
        </linearGradient>
        <linearGradient id="kzts8zajrr" x1="100.219%" x2="15.952%" y1="10.013%" y2="92.368%">
            <stop offset="0%" stop-color="#CECECE"/>
            <stop offset="18.163%" stop-color="#065513"/>
            <stop offset="48.798%" stop-color="#CECECE"/>
            <stop offset="75.412%" stop-color="#065513"/>
            <stop offset="100%" stop-color="#CECECE"/>
        </linearGradient>
        <linearGradient id="gfqtpkvmgs" x1="104.291%" x2="13.191%" y1="10.013%" y2="92.368%">
            <stop offset="0%" stop-color="#CECECE"/>
            <stop offset="18.163%" stop-color="#065513"/>
            <stop offset="48.798%" stop-color="#CECECE"/>
            <stop offset="75.412%" stop-color="#065513"/>
            <stop offset="100%" stop-color="#CECECE"/>
        </linearGradient>
        <linearGradient id="pjccampdot" x1="106.427%" x2="11.743%" y1="10.472%" y2="91.882%">
            <stop offset="0%" stop-color="#CECECE"/>
            <stop offset="18.163%" stop-color="#065513"/>
            <stop offset="48.798%" stop-color="#CECECE"/>
            <stop offset="75.412%" stop-color="#065513"/>
            <stop offset="100%" stop-color="#CECECE"/>
        </linearGradient>
        <linearGradient id="wzmecfib2w" x1="106.427%" x2="11.743%" y1="14.286%" y2="87.84%">
            <stop offset="0%" stop-color="#CECECE"/>
            <stop offset="18.163%" stop-color="#065513"/>
            <stop offset="48.798%" stop-color="#CECECE"/>
            <stop offset="75.412%" stop-color="#065513"/>
            <stop offset="100%" stop-color="#CECECE"/>
        </linearGradient>
        <linearGradient id="wezwwln9sx" x1="98.199%" x2="17.322%" y1="10.013%" y2="92.368%">
            <stop offset="0%" stop-color="#CECECE"/>
            <stop offset="18.163%" stop-color="#065513"/>
            <stop offset="48.798%" stop-color="#CECECE"/>
            <stop offset="75.412%" stop-color="#065513"/>
            <stop offset="100%" stop-color="#CECECE"/>
        </linearGradient>
        <linearGradient id="klxhf9t0gy" x1="75.263%" x2="32.872%" y1="10.013%" y2="92.368%">
            <stop offset="0%" stop-color="#CECECE"/>
            <stop offset="18.163%" stop-color="#065513"/>
            <stop offset="48.798%" stop-color="#CECECE"/>
            <stop offset="75.412%" stop-color="#065513"/>
            <stop offset="100%" stop-color="#CECECE"/>
        </linearGradient>
        <linearGradient id="5fx1fyekuz" x1="106.427%" x2="11.743%" y1="25.658%" y2="75.791%">
            <stop offset="0%" stop-color="#CECECE"/>
            <stop offset="18.163%" stop-color="#065513"/>
            <stop offset="48.798%" stop-color="#CECECE"/>
            <stop offset="75.412%" stop-color="#065513"/>
            <stop offset="100%" stop-color="#CECECE"/>
        </linearGradient>
        <linearGradient id="a0zfnfxs0A" x1="106.427%" x2="11.743%" y1="23.079%" y2="78.524%">
            <stop offset="0%" stop-color="#CECECE"/>
            <stop offset="18.163%" stop-color="#065513"/>
            <stop offset="48.798%" stop-color="#CECECE"/>
            <stop offset="75.412%" stop-color="#065513"/>
            <stop offset="100%" stop-color="#CECECE"/>
        </linearGradient>
        <linearGradient id="whwhs9plyB" x1="106.427%" x2="11.743%" y1="20.576%" y2="81.176%">
            <stop offset="0%" stop-color="#CECECE"/>
            <stop offset="18.163%" stop-color="#065513"/>
            <stop offset="48.798%" stop-color="#CECECE"/>
            <stop offset="75.412%" stop-color="#065513"/>
            <stop offset="100%" stop-color="#CECECE"/>
        </linearGradient>
        <path id="vn8bxwn9xa" d="M8 .44h704c4.418 0 8 3.581 8 8v71.12H0V8.44c0-4.419 3.582-8 8-8z"/>
        <path id="xjtdi1g7lh" d="M0.327 0.024L271.661 0.024 271.661 295.083 0.327 295.083z"/>
        <path id="ep8g4om9vu" d="M0.22 0.405L214.518 0.405 214.518 190.295 0.22 190.295z"/>
    </defs>
    <g fill="none" fill-rule="evenodd">
        <g>
            <g transform="translate(-600 -87) translate(600 87)">
                <mask id="tl16be4zic" fill="#fff">
                    <use xlink:href="#vn8bxwn9xa"/>
                </mask>
                <use fill="url(#kcqmyihxcb)" xlink:href="#vn8bxwn9xa"/>
                <g mask="url(#tl16be4zic)" opacity=".232">
                    <g>
                        <path fill="url(#9wsnjiy1vd)" d="M296.308 192.3c0 11.442 9.329 27.328 24.4 33.043 8.468 3.212 21.915 4.272 37.877-8.916 10.077-8.325 23.199-7.457 34.776-6.691 13.139.869 23.517 1.556 25.287-11.198.706-5.21-7.729-11.493-15.9-17.57-6.496-4.83-13.212-9.826-16.47-14.885-1.249-1.94-2.577-4.337-3.984-6.874-8.116-14.64-19.23-34.69-43.231-25.726-15.25 5.695-26.665 14.575-33.932 26.392-7.293 11.858-8.823 24.178-8.823 32.425m124.192 5.587c0 .282-.018.563-.057.842-1.978 14.258-14.238 13.447-27.218 12.589-11.204-.741-23.904-1.582-33.401 6.264-16.678 13.778-30.867 12.618-39.834 9.218-15.745-5.97-25.49-22.557-25.49-34.5 0-8.43 1.568-21.028 9.04-33.18 7.467-12.14 19.18-21.257 34.815-27.096 25.582-9.555 37.607 12.137 45.565 26.492 1.394 2.514 2.71 4.888 3.933 6.788 3.097 4.812 9.69 9.713 16.063 14.453 8.518 6.333 16.584 12.334 16.584 18.13" transform="rotate(90 496.904 235.843)"/>
                        <path fill="url(#3fil99brxe)" d="M307.739 190.715c0 .19 0 .374.003.555.102 8.79 7.377 20.989 18.953 25.366 6.556 2.478 16.96 3.323 29.293-6.73 7.63-6.218 17.459-5.652 26.13-5.153 10.174.585 18.21 1.048 20.074-8.792.774-4.138-5.36-8.797-11.867-13.722-4.905-3.714-9.978-7.553-12.358-11.446-.826-1.351-1.713-2.987-2.652-4.72-2.688-4.961-6.035-11.137-10.616-15.599-7.009-6.817-15.122-8.267-24.8-4.432-28.837 11.427-32.16 34.628-32.16 44.673M403 195.234c0 .279-.026.557-.079.834-1.974 10.42-10.722 9.916-20.852 9.333-8.521-.49-18.181-1.046-25.577 4.982-12.627 10.29-23.332 9.404-30.09 6.85-11.849-4.481-19.295-16.963-19.399-25.957-.115-9.84 2.812-34.026 32.593-45.826 10.008-3.966 18.4-2.464 25.652 4.59 4.654 4.532 8.025 10.754 10.735 15.754.935 1.725 1.817 3.354 2.634 4.692 2.316 3.786 7.336 7.586 12.19 11.26 6.26 4.738 12.193 9.23 12.193 13.488" transform="rotate(90 496.904 235.843)"/>
                        <path fill="url(#gslx7fkjpf)" d="M320.068 189.1c0 .378.007.733.02 1.063.202 5.912 5.258 14.103 13.073 17.027 4.462 1.67 11.547 2.264 19.968-4.387 5.286-4.177 12.568-3.928 18.993-3.709 4.856.166 9.047.309 11.214-1.536 1.096-.933 1.65-2.348 1.595-4.293-.033-2.853-3.767-5.937-7.718-9.203-3.198-2.641-6.505-5.372-8.089-8.203-.434-.773-.9-1.674-1.395-2.627-1.997-3.855-4.731-9.134-8.64-12.349-5.006-4.105-10.893-4.584-17.997-1.463-18.634 8.185-21.024 22.762-21.024 29.68m65.432 4.287c0 2.034-.579 3.516-1.768 4.528-2.342 1.995-6.647 1.847-11.632 1.677-6.317-.215-13.476-.46-18.592 3.58-8.642 6.828-15.956 6.203-20.57 4.476-8.13-3.042-13.206-11.27-13.42-17.47-.23-6.46 1.372-22.44 21.32-31.203 7.24-3.181 13.512-2.661 18.64 1.544 3.99 3.283 6.752 8.614 8.769 12.506.493.95.958 1.848 1.387 2.615 1.54 2.749 4.808 5.449 7.968 8.06 4.043 3.34 7.862 6.495 7.898 9.56v.127" transform="rotate(90 496.904 235.843)"/>
                        <path fill="url(#ltkp35wtmg)" d="M332.897 186.982c0 .55.03 1.058.076 1.518.315 3.142 3.087 7.292 7.182 8.8 2.353.865 6.097 1.208 10.57-2.081 2.815-2.07 6.835-1.937 10.381-1.82 2.819.094 5.254.174 6.355-.89.56-.543.752-1.363.587-2.512-.223-1.554-1.83-3.184-3.533-4.91-1.51-1.531-3.07-3.115-3.828-4.805l-.258-.58c-1.21-2.724-3.231-7.284-6.502-9.145-2.963-1.674-6.4-1.212-11.145 1.497-8.297 4.738-9.885 10.905-9.885 14.928m35.603 3.757c0 .862-.248 1.522-.747 2.006-1.226 1.184-3.745 1.1-6.662 1.005-3.475-.115-7.414-.246-10.113 1.739-4.625 3.4-8.521 3.037-10.975 2.134-4.393-1.618-7.104-5.892-7.425-9.092-.395-3.911.385-11.287 9.99-16.77 3.293-1.881 7.586-3.752 11.573-1.5 3.38 1.924 5.431 6.55 6.656 9.314l.257.578c.733 1.634 2.272 3.195 3.76 4.704 1.743 1.767 3.389 3.437 3.626 5.096.04.279.06.54.06.786" transform="rotate(90 496.904 235.843)"/>
                        <g transform="rotate(90 496.904 235.843) translate(216 1.758)">
                            <mask id="hirrf8iyqi" fill="#fff">
                                <use xlink:href="#xjtdi1g7lh"/>
                            </mask>
                            <path fill="#065513" d="M1.272 220.162c0 4.653 1.125 8.919 3.375 12.961 5.677 10.198 18.665 19.238 39.705 27.637 20.942 8.36 27.497 12.158 32.283 14.931 5.582 3.234 9.27 5.37 31.236 12.159 40.522 12.523 55.411 7.246 85.57-17.414 12.06-9.86 21.839-13.545 30.465-16.796 12.813-4.828 23.879-8.997 37.945-31.555 13.684-21.943 9.078-47.587 2.807-65.236-4.182-11.77-13.23-21.52-25.475-27.45l.219-.35-.22.35c-13.256-6.421-29.961-17.233-34.26-32.283-1.007-3.532-1.978-6.74-2.918-9.842-5.793-19.13-9.29-30.678-3.628-58.728 1.192-5.903.403-10.215-2.409-13.184-5.713-6.032-19.68-6.126-35.85-6.236-16.51-.11-35.224-.238-52.558-6.007-26.368-8.776-60.607 8.838-74.845 30.135-9.7 14.508-8.457 27.857 3.404 36.622 52.634 38.896 12.946 82.615-13.316 111.546C14.5 190.568 7.33 198.466 4.944 204.18c-2.448 5.865-3.672 11.133-3.672 15.983m270.389-30.795c0 11.018-2.391 22.481-9.014 33.1-14.217 22.8-25.415 27.02-38.383 31.906-8.56 3.225-18.26 6.88-30.204 16.647-29.99 24.522-45.833 30.147-86.491 17.582-22.071-6.821-25.796-8.98-31.434-12.246-4.761-2.758-11.281-6.536-32.159-14.87-48.283-19.274-47.256-39.923-39.883-57.581 2.436-5.835 9.648-13.78 18-22.98 13.17-14.508 29.56-32.564 36.118-51.774 7.687-22.519.269-41.709-22.677-58.665-12.235-9.042-13.548-22.76-3.603-37.635 14.421-21.572 49.16-39.394 75.95-30.478 17.181 5.72 35.808 5.845 52.243 5.956 17.073.116 30.558.207 36.54 6.523 2.994 3.16 3.847 7.684 2.605 13.833-5.625 27.877-2.15 39.36 3.612 58.384.94 3.105 1.912 6.316 2.923 9.853 4.218 14.771 20.718 25.434 33.817 31.778 12.452 6.03 21.652 15.943 25.905 27.912 3.296 9.278 6.135 20.753 6.135 32.755" mask="url(#hirrf8iyqi)"/>
                        </g>
                        <path fill="url(#zq6ait9ytj)" d="M234.367 211.263c0 14.537 12.16 24.499 31.073 34.761 8.097 4.394 13.576 8.695 17.979 12.152 2.704 2.124 5.04 3.958 7.392 5.365 9.177 5.491 13.668 7.379 36.762 13.316 20.491 5.268 36.15 5.586 50.776 1.029 11.326-3.524 22.117-9.666 33.957-19.329 9.334-7.625 17.021-10.89 23.803-13.77 10.418-4.425 19.415-8.246 30.473-26.275 6.085-10 11.395-27.273 2.13-52.758-3.54-9.701-11.018-18.005-21.057-23.382-15.81-8.467-25.513-17.626-28.841-27.222-.534-1.535-1.06-3.01-1.576-4.437-6.133-17.185-8.117-26.186-11.795-53.506-1.791-13.295-14.086-21.008-36.545-22.924-5.62-.48-9.976-.013-14.188.439-6.442.69-12.525 1.343-22.15-1.462-21.309-6.212-48.732.872-61.129 15.794-8.744 10.526-8.12 22.85 1.755 34.704 10.163 12.199 14.056 27.228 11.253 43.467-2.362 13.689-9.3 27.6-19.54 39.17-3.961 4.476-8.016 8.582-11.936 12.552-7.177 7.268-13.375 13.544-15.563 18.79-2.062 4.947-3.033 9.42-3.033 13.526M474.5 191.867c0 11.868-3.47 20.787-7.231 26.968-11.179 18.225-20.28 22.09-30.82 26.567-6.733 2.86-14.363 6.1-23.612 13.656-11.922 9.728-22.798 15.916-34.229 19.472-14.787 4.608-30.595 4.295-51.253-1.017-23.202-5.965-27.724-7.866-36.983-13.407-2.394-1.433-4.747-3.28-7.472-5.42-4.38-3.439-9.831-7.719-17.87-12.08l.205-.291-.205.29c-33.054-17.936-35.243-32.6-28.36-49.102 2.235-5.364 8.477-11.685 15.705-19.004 3.914-3.964 7.96-8.062 11.909-12.524 19.596-22.143 29.752-56.028 8.274-81.813-10.093-12.114-10.716-24.725-1.756-35.511 12.582-15.143 40.397-22.34 62.004-16.04 9.458 2.758 15.457 2.114 21.81 1.433 4.253-.457 8.653-.929 14.358-.442 22.874 1.951 35.403 9.867 37.242 23.525 3.671 27.267 5.65 36.248 11.764 53.38.516 1.428 1.044 2.906 1.58 4.443 3.27 9.432 12.86 18.462 28.5 26.838 10.2 5.463 17.797 13.9 21.394 23.757 3.638 10.005 5.046 18.762 5.046 26.322" transform="rotate(90 496.904 235.843)"/>
                        <path fill="url(#ggc20xwt3k)" d="M271.315 230.457l.22-.21c4.622 3.746 8.13 7.94 11.225 11.64 3.363 4.02 6.54 7.818 10.507 10.317 9.947 6.265 18.482 8.654 39.078 12.65 18.039 3.5 33.875 2.957 49.837-1.707 14.91-4.348 27.69-12.632 40.05-20.642 5.385-3.492 10.955-7.103 16.632-10.342 7.054-4.028 12.67-9.857 17.67-18.345 8.841-15.004 4.705-31.75 1.457-40.396-2.898-7.65-8.815-14.527-16.666-19.36-12.97-7.985-22.931-19.643-28.05-32.83-2.124-5.47-3.557-11.21-4.942-16.761-1.952-7.825-3.972-15.915-7.954-23.322-5.235-9.735-12.743-12.313-24.767-13.663-2.481-.279-5.04-.5-7.512-.713-8.62-.743-17.531-1.511-25.533-4.887-29.701-12.53-49.102-14.977-57.663-7.273-10.203 9.18-1.833 30.594 4.017 40.636 6.488 11.134 7.814 23.668 3.942 37.252-3.718 13.042-11.593 24.56-17.545 31.925-2.8 3.464-5.688 6.693-8.481 9.815-5.42 6.058-10.101 11.29-12.02 15.908-5.233 12.573-4.174 23.166 16.719 40.099l-.221.21zM462.5 193.502c0 6.611-1.374 13.768-5.387 20.578-5.055 8.58-10.741 14.478-17.894 18.561-5.66 3.232-11.222 6.837-16.601 10.323-12.4 8.038-25.223 16.348-40.23 20.725-16.079 4.698-32.025 5.246-50.184 1.723-20.694-4.015-29.277-6.42-39.317-12.744-4.051-2.552-7.258-6.385-10.652-10.442-3.227-3.86-6.566-7.851-11.14-11.559-21.159-17.148-22.217-27.913-16.89-40.714 1.955-4.703 6.665-9.969 12.12-16.065 2.788-3.117 5.673-6.34 8.463-9.793 27.054-33.483 20.104-57.343 13.554-68.586-5.925-10.167-14.363-31.882-3.905-41.295 8.779-7.899 28.43-5.49 58.411 7.157 7.9 3.332 16.752 4.095 25.315 4.833 2.478.214 5.041.435 7.532.715 12.253 1.376 19.91 4.013 25.272 13.986 4.014 7.465 6.042 15.588 8.002 23.443 1.382 5.536 2.81 11.26 4.922 16.701 5.075 13.072 14.95 24.63 27.808 32.545 7.964 4.903 13.968 11.881 16.909 19.648 1.81 4.817 3.892 12.127 3.892 20.26z" transform="rotate(90 496.904 235.843)"/>
                        <path fill="url(#nrrf48jg6l)" d="M270.024 196.463c0 8.13 2.254 16.466 6.66 24.294 3.55 6.304 8.483 12.207 14.268 17.072 6.787 5.707 27.102 18.56 69.073 14.656 26.247-2.442 70.154-18.67 84.326-42.788 6.592-11.222 6.127-22.877-1.38-34.642-4.198-6.58-10.383-12.175-16.362-17.586-7.483-6.77-15.22-13.77-19.007-22.699-1.421-3.348-2.254-6.92-3.059-10.375-1.033-4.432-2.102-9.016-4.422-13.103-5.307-9.346-16.123-14.541-24.262-17.254-11.669-3.89-24.38-5.204-36.757-3.799-12.826 1.457-23.172 5.986-29.133 12.752-5.653 6.418-7.494 14.653-9.275 22.618-.885 3.96-1.802 8.054-3.174 11.911-2.83 7.953-7.773 15.285-12.553 22.376-5.298 7.858-10.775 15.985-13.33 24.924-1.08 3.777-1.613 7.686-1.613 11.643m179.476-2.75c0 5.471-1.56 10.88-4.683 16.196-14.257 24.262-58.373 40.581-84.737 43.034-9.006.838-22.703 1.325-36.808-1.116-13.73-2.375-24.725-6.973-32.683-13.665-5.828-4.901-10.798-10.85-14.375-17.2l.236-.103-.236.102c-6.606-11.734-8.412-24.609-5.085-36.253 2.572-9.005 8.07-17.16 13.387-25.048 4.765-7.067 9.691-14.376 12.504-22.277 1.364-3.834 2.277-7.916 3.16-11.864 1.792-8.016 3.646-16.306 9.376-22.81 6.045-6.864 16.515-11.455 29.479-12.927 12.463-1.415 25.26-.093 37.01 3.824 8.226 2.743 19.162 8.001 24.545 17.48 2.35 4.141 3.426 8.755 4.467 13.217.802 3.437 1.629 6.99 3.035 10.306 3.75 8.837 11.447 15.803 18.892 22.539 6.004 5.432 12.212 11.05 16.444 17.68 4.048 6.343 6.072 12.654 6.072 18.885" transform="rotate(90 496.904 235.843)"/>
                        <path fill="url(#zvumk8tyqm)" d="M280.896 198.379c0 5.9 1.087 11.368 3.258 16.368 4.1 9.435 12.417 16.395 24.717 20.688 12.457 4.348 25.883 4.892 34.953 4.584 14.003-.476 27.825-3.175 39.497-5.754 17.33-3.826 34.828-9.005 45.415-20.881 4.982-5.588 7.6-11.97 7.352-17.97-.23-5.763-3.087-11.877-8.49-18.17-2.531-2.95-5.403-5.74-8.18-8.438-2.17-2.11-4.413-4.29-6.485-6.537l-.208-.225c-4.76-5.2-8.786-10.99-12.68-16.59-3.08-4.43-6.266-9.01-9.794-13.27-6.702-8.092-17.72-18.174-32.142-20.242-10.524-1.508-22.363 1.465-32.48 8.158-10.09 6.675-17.243 15.92-22.347 23.229-8.857 12.682-14.923 23.918-18.545 34.352-2.56 7.376-3.84 14.291-3.84 20.698M436.5 196.18c0 5.851-2.626 12.006-7.452 17.419-10.66 11.958-28.231 17.162-45.63 21.005-11.693 2.582-25.539 5.285-39.578 5.763-9.11.31-22.595-.239-35.116-4.608-12.408-4.33-20.798-11.358-24.94-20.889-4.563-10.501-4.37-23.049.573-37.291 3.632-10.464 9.712-21.726 18.587-34.434 5.122-7.334 12.304-16.614 22.447-23.324 10.203-6.751 22.152-9.749 32.782-8.224 14.555 2.087 25.652 12.235 32.4 20.38 3.537 4.271 6.727 8.859 9.81 13.294 3.888 5.59 7.908 11.371 12.65 16.552l.208.225c2.065 2.24 4.305 4.417 6.473 6.522 2.782 2.704 5.658 5.5 8.2 8.462 5.453 6.352 8.336 12.532 8.571 18.369.01.259.015.518.015.779" transform="rotate(90 496.904 235.843)"/>
                        <path fill="url(#90u1mxsgqn)" d="M181.78 714.379c.054 0 .101.003.147.01.356.043 1.235.23 2.689.54 2.526.537 6.34 1.348 10.913 2.159 13.224 2.345 45.177 6.394 56.173-6.64 6.535-7.747 4.477-20.395-6.116-37.593-19.793-32.133-31.072-58.783-33.524-79.207-2.311-19.252 3.73-28.756 9.205-33.339 6.532-5.467 16.745-9.344 26.62-13.093 13.76-5.222 26.757-10.156 28.58-18.704 3.83-17.96-4.147-51.208-9.399-58.675-3.91-5.56-10.115-8.61-16.684-11.84-9.704-4.768-19.737-9.7-22.252-23.29l-.82-4.455c-6.937-37.673-9.547-51.797-32.558-51.233-5.574.122-11.096 1.112-15.762 2.064-1.61.33-3.21.674-4.802 1.017-17.191 3.698-33.432 7.192-53.112-8.183-8.91-6.96-32.73-18.077-45.476-5.794-25.817 24.88-50.663 81.594-60.42 137.92-5.318 30.699-6.048 60.093-2.112 85.007 4.503 28.5 14.854 51.074 30.764 67.096 31.128 31.483 61.802 50.829 91.17 57.5 23.242 5.282 38.619.927 44.406-.712 1.384-.39 1.984-.555 2.37-.555m39.644 6.06c-10.112 0-20.039-1.42-26.093-2.493-4.591-.814-8.417-1.628-10.95-2.166-1.328-.283-2.286-.486-2.596-.525h-.016c-.239 0-1.12.248-2.052.513-5.862 1.66-21.439 6.068-44.962.726-29.568-6.717-60.412-26.154-91.674-57.774-68.294-68.772-19.449-241.815 31.784-291.186 13.244-12.765 37.737-1.41 46.876 5.729 19.29 15.069 35.282 11.63 52.211 7.986 1.598-.343 3.2-.688 4.813-1.019 4.716-.962 10.3-1.962 15.963-2.086.416-.01.83-.014 1.232-.014 22.769 0 25.615 15.479 32.336 51.983l.821 4.455c2.437 13.173 12.257 17.999 21.754 22.666 6.392 3.141 13 6.39 17.047 12.143 5.457 7.76 13.473 40.8 9.53 59.295l-.49-.08.49.08c-1.92 9.007-15.154 14.03-29.165 19.348-9.795 3.719-19.924 7.563-26.327 12.923-8.763 7.334-23.915 32.88 24.507 111.494 10.794 17.524 12.826 30.488 6.041 38.531-6.22 7.373-18.788 9.472-31.08 9.472" transform="rotate(90 496.904 235.843)"/>
                        <path fill="url(#fkboem062o)" d="M195.874 723.462l.251.066c.582.151 58.296 14.93 73.996-2.588 7.29-8.133 4.478-22.062-8.357-41.402-39.898-60.125-41.862-90.347-36.483-105.111 2.564-7.04 7.29-11.97 14.044-14.652 7.203-2.862 14.757-5.402 22.063-7.856 19.506-6.557 36.353-12.22 38.894-21.105 5.58-19.511-4.446-57.646-10.315-65.603-4.497-6.096-11.737-9.31-19.402-12.71-11.356-5.041-23.1-10.252-26.212-25.46-.726-3.544-1.4-6.912-2.04-10.112-7.392-36.945-10.135-50.762-34.295-49.763-7.451.312-14.752 2.061-21.815 3.752-18.006 4.313-36.63 8.776-57.506-11.515-6.477-6.295-22.116-15.58-35.179-15.58h-.097c-5.794.02-10.56 1.84-14.169 5.405-26.208 25.895-51.507 87.182-61.522 149.038-5.45 33.668-6.102 65.805-1.881 92.936 4.846 31.163 15.846 55.644 32.695 72.763 26.073 26.494 65.955 59.215 107.888 64.645 25.02 3.241 39.087-4.935 39.227-5.019l.215-.129zm44.314 7.087c-19.832 0-41.243-5.294-44.129-6.031-5.114 2.945-19.638 7.63-39.68 5.06-42.303-5.43-82.444-38.334-108.67-64.98-16.989-17.264-28.075-41.914-32.951-73.265-4.234-27.219-3.582-59.448 1.883-93.203 10.042-62.026 35.45-123.52 61.788-149.543 3.825-3.78 8.868-5.708 14.987-5.73h.106c7.75 0 15.558 3.051 20.756 5.618 5.84 2.882 11.677 6.822 15.236 10.281 20.42 19.849 37.898 15.663 56.4 11.23 7.118-1.704 14.48-3.468 22.052-3.783 25.083-1.041 28.129 14.058 35.43 50.56.642 3.198 1.316 6.566 2.04 10.107 3.017 14.734 14.51 19.836 25.626 24.768 7.802 3.463 15.171 6.733 19.83 13.048 5.941 8.056 16.1 46.638 10.458 66.363-2.681 9.372-19.774 15.118-39.568 21.77-7.29 2.451-14.829 4.985-22.003 7.834-6.46 2.566-10.984 7.298-13.45 14.068-7.506 20.606 5.416 57.658 36.387 104.33 13.084 19.717 15.867 34.01 8.27 42.485-6.147 6.86-18.153 9.013-30.798 9.013z" transform="rotate(90 496.904 235.843)"/>
                        <path fill="url(#x24el8njyp)" d="M338.901 411.112c0 15.174 13.525 32.99 21.359 43.31 4.258 5.609 8.29 10.396 12.33 14.636 8.73 9.167 17.14 14.864 25.704 17.416 5.267 1.57 10.651 1.93 16.004 1.069 20.595-3.311 28.892-24.858 29.738-42.303.69-14.221 10.267-20.673 18.717-26.365 6.767-4.558 13.158-8.863 13.993-16.495.938-8.555.022-13.557-2.969-16.22-3.838-3.417-11.253-2.901-21.516-2.188-2.095.146-4.315.3-6.654.432-11.304.638-16.923-1.103-22.359-2.788-6.084-1.885-11.83-3.667-25.088-2.364-14.357 1.41-22.262 3.85-28.614 5.81-1.918.592-3.73 1.152-5.543 1.63-12.554 3.306-20.484 8.788-23.574 16.293-1.06 2.574-1.528 5.305-1.528 8.127M478 396.666c0 1.73-.118 3.653-.352 5.79-.873 7.974-7.416 12.381-14.343 17.047-8.7 5.86-17.694 11.918-18.365 25.77-.86 17.737-9.36 39.654-30.48 43.05-5.505.885-11.043.515-16.458-1.099-8.726-2.6-17.266-8.376-26.107-17.658-4.06-4.262-8.112-9.073-12.388-14.705-9.38-12.357-26.838-35.358-19.93-52.144 3.193-7.755 11.323-13.402 24.166-16.785 1.791-.472 3.593-1.028 5.502-1.617 6.395-1.974 14.355-4.43 28.815-5.851 13.463-1.323 19.578.573 25.49 2.406 5.35 1.657 10.88 3.371 21.998 2.743 2.335-.132 4.55-.285 6.641-.43 10.507-.731 18.1-1.258 22.234 2.422 2.42 2.154 3.577 5.66 3.577 11.06" transform="rotate(90 496.904 235.843)"/>
                        <path fill="url(#bmfelggxkq)" d="M264.794 381.425c0 5.977 1.061 12.023 3.886 18.803 3.468 8.322 7.96 17.627 17.398 22.704 3.697 1.988 7.435 3.212 11.05 4.396 6.224 2.038 12.103 3.963 17.06 9.466 15.073 16.74 21.8 38.241 28.307 59.035.758 2.423 1.543 4.928 2.318 7.351 3.363 10.504 8.937 19.455 17.042 27.364 8.025 7.83 17.702 13.308 27.985 15.84 11.155 2.748 22.599 1.826 33.094-2.665 8.64-3.699 16.103-9.737 21.577-17.46 5.193-7.327 8.372-15.77 9.189-24.415 2.762-17.781 7.555-32.798 14.653-45.913 8.708-16.091 20.957-29 36.406-38.37 8.69-5.27 14.278-16.298 15.335-30.257 1.05-13.857-2.58-27.412-8.627-32.235-16.773-13.378-44.603-9.585-66.965-6.537-5.959.812-11.585 1.579-16.542 1.963-13.592 1.054-30.41-.237-45.246-1.375-3.38-.26-6.574-.505-9.618-.713-17.812-1.223-36.237-2.227-54.76-2.985-2.82-.116-5.698-.18-8.481-.241-15.808-.35-32.153-.713-44.211-10.877-4.92-4.147-8.551-8.692-12.062-13.088-7.585-9.496-14.136-17.696-30.39-16.54-9.061.646-16.462.37-22.623-.842-9.523-1.873-15.912-5.978-18.99-12.2-.292-.59-.638-1.279-1.028-2.06-7.27-14.51-29.393-58.672-19.03-82.621l1.11-2.558c7.677-17.698 17.23-39.722 18.329-60.369.595-11.206-1.463-20.927-6.12-28.876-5.393-9.208-14.476-16.426-26.996-21.456-1.101-.443-2.826-.998-5.008-1.701-10.567-3.404-30.203-9.73-31.545-20.102-2.592.546-2.847 1.956-3.143 3.585-.361 1.992-.77 4.249-5.519 5.446-2.504 26.4-14.902 158.275-14.902 181.516l.011 1.922c.148 23.692.276 44.152 19.396 56.254 3.547 2.245 7.363 4.568 11.592 6.132 1.255.464 2.556.887 3.816 1.296 2.712.882 5.516 1.794 8.032 3.172 5.709 3.125 9.056 8.584 11.743 12.97 4.113 6.707 12.794 9.3 25.803 7.709 7.983-.976 16.246-3.144 24.994-5.438 20.24-5.31 41.172-10.802 59.73-1.298 9.641 4.937 14.989 14.34 13.304 23.407-.82 4.41-1.354 8.619-1.354 12.86m255.706 1.12c0 1.58-.058 3.173-.18 4.773-1.062 14.02-6.687 25.104-15.432 30.407-15.417 9.35-27.64 22.234-36.33 38.293-7.088 13.095-11.875 28.093-14.633 45.849-.82 8.671-4.009 17.145-9.22 24.498-5.499 7.755-12.993 13.818-21.672 17.533-10.545 4.514-22.044 5.44-33.254 2.68-10.325-2.544-20.04-8.042-28.092-15.9-8.129-7.932-13.72-16.909-17.092-27.443-.776-2.423-1.56-4.93-2.318-7.353-6.5-20.774-13.222-42.254-28.269-58.963-4.916-5.46-10.766-7.376-16.96-9.404-3.624-1.187-7.372-2.414-11.088-4.413-9.502-5.11-14.01-14.451-17.492-22.805-4.847-11.632-4.521-21.111-2.543-31.764 1.67-8.985-3.634-18.307-13.195-23.203-18.473-9.46-39.356-3.982-59.552 1.317-8.756 2.296-17.026 4.466-25.026 5.444-13.113 1.605-21.872-1.024-26.034-7.813-2.676-4.364-6.006-9.797-11.664-12.895-2.495-1.367-5.29-2.275-7.991-3.153-1.262-.41-2.566-.834-3.825-1.3-4.25-1.572-8.08-3.902-11.637-6.153-19.213-12.162-19.342-32.669-19.49-56.414l-.011-1.924c0-23.268 12.42-155.358 14.91-181.6l.007-.07.075-.018c4.68-1.158 5.08-3.362 5.433-5.305.3-1.655.583-3.217 3.441-3.773l.124-.024.013.111c1.198 10.314 20.852 16.646 31.41 20.048 2.189.703 3.916 1.26 5.025 1.706 12.568 5.049 21.686 12.298 27.103 21.546 4.676 7.98 6.746 17.733 6.145 28.976-1.099 20.679-10.66 42.72-18.343 60.43l-1.11 2.558c-10.328 23.875 11.765 67.979 19.025 82.472.39.78.736 1.47 1.028 2.06 3.048 6.16 9.384 10.227 18.832 12.085 6.14 1.208 13.518 1.482 22.556.839 16.383-1.168 22.968 7.076 30.593 16.623 3.505 4.388 7.13 8.925 12.033 13.059 11.995 10.11 27.57 10.455 44.06 10.82 2.786.063 5.665.127 8.487.242 18.526.758 36.951 1.762 54.766 2.985 3.046.209 6.24.454 9.62.714 14.829 1.137 31.635 2.426 45.208 1.375 4.949-.384 10.572-1.15 16.526-1.962 22.41-3.054 50.3-6.855 67.151 6.586 5.396 4.303 8.882 15.47 8.882 27.623" transform="rotate(90 496.904 235.843)"/>
                        <path fill="url(#kzts8zajrr)" d="M256.541 385.321c0 10.21 4.581 20.081 8.162 26.815 3.665 6.893 9.715 16.459 19.908 19.931 3.262 1.11 5.947 2.332 8.542 3.514 2.746 1.25 5.584 2.54 9.062 3.67 4.581 1.488 8.42 4.277 11.41 8.289 5.237 7.03 7.53 15.21 9.746 23.122.536 1.913 1.09 3.891 1.678 5.818 1.686 5.54 3.706 11.14 5.66 16.556 1.7 4.712 3.46 9.584 4.974 14.357 3.413 10.757 9.51 25.883 22.986 33.01 3.594 1.902 7.424 3.575 11.039 5.125 12.85 5.51 28.14 7.72 41.949 6.063 15.16-1.82 27.313-8.201 34.222-17.97 6.565-9.284 8.567-19.108 10.686-29.507l.022-.108c5.993-29.402 21.104-42.924 38.6-58.58 1.05-.94 2.109-1.883 3.174-2.83 9.625-8.57 19.578-17.43 26.71-27.295 8.066-11.161 11.196-21.978 9.56-33.072-1.94-13.176-7.642-25.485-16.052-34.659-14.724-16.056-41.813-28.308-65.097-20.657-4.828 1.586-9.304 3.848-13.633 6.035-4.898 2.475-9.963 5.034-15.58 6.641-9.642 2.76-20.644 4.03-32.7 3.777l.006-.2-.005.2c-19.34-.405-39.679-4.884-57.623-8.837l-.273-.06c-8.493-1.87-15.943-2.104-23.148-2.332-11.552-.364-22.461-.708-34.722-8.236-6.556-4.025-14.973-10.635-23.113-17.028-8.005-6.286-16.283-12.786-22.713-16.762-8.67-5.36-16.743-11.67-24.55-17.77-3.194-2.496-6.497-5.077-9.787-7.552-7.025-5.281-15.047-17.994-17.526-25.832-8.171-25.845 2.207-43.303 15.347-65.405 4.508-7.584 9.17-15.425 13.645-24.45 5.238-10.564 4.824-21.5-1.198-31.626-9.834-16.537-33.152-28.788-65.659-34.498-6.783-1.191-13.158-4.348-18.445-9.131-8.651 1.817-19.415 4.469-22.762 5.302-3.419 36.312-14.535 156.06-15.054 182.946-.023 1.256-.038 2.404-.033 3.427l.014 1.972c.164 23.186.307 43.21 20.44 56.05 4.062 2.59 8.312 4.398 12.81 6.313 1.517.645 3.085 1.312 4.632 2.006 5.165 2.32 9.793 6.025 13.384 10.714l.81 1.063c3.601 4.74 7.326 9.64 13.534 11.594 6.54 2.058 14.605 2.324 22.71.752 6.374-1.236 12.104-2.59 17.646-3.9 12.69-3 23.648-5.59 36.365-5.277 8.184.202 19.011 2.188 24.855 7.155 7.73 6.57 6.736 16.298 5.855 24.882-.138 1.35-.269 2.624-.368 3.89-.069.863-.102 1.726-.102 2.585m278.959 2.53c0 22.25-19.475 39.586-36.817 55.025-1.063.947-2.122 1.89-3.17 2.829-17.447 15.61-32.512 29.09-38.48 58.371l-.022.107c-2.126 10.439-4.135 20.3-10.748 29.649-6.98 9.87-19.248 16.318-34.546 18.153-13.894 1.669-29.278-.554-42.208-6.099-3.624-1.554-7.464-3.232-11.074-5.14-13.613-7.202-19.754-22.424-23.19-33.247-1.511-4.765-3.268-9.634-4.967-14.343-1.956-5.42-3.979-11.025-5.668-16.573-.588-1.931-1.143-3.911-1.679-5.826-2.207-7.879-4.49-16.026-9.685-23-2.936-3.938-6.7-6.675-11.189-8.133-3.503-1.137-6.355-2.435-9.112-3.69-2.585-1.176-5.259-2.393-8.497-3.495-10.346-3.525-16.458-13.18-20.156-20.134-3.903-7.341-8.985-18.393-8.102-29.597.1-1.27.231-2.546.37-3.897.87-8.496 1.856-18.123-5.719-24.561-5.75-4.888-16.453-6.843-24.552-7.043-12.651-.311-23.58 2.272-36.235 5.264-5.547 1.31-11.282 2.666-17.665 3.903-8.188 1.589-16.342 1.317-22.962-.765-6.35-1.998-10.116-6.954-13.758-11.747l-.81-1.063c-3.547-4.633-8.117-8.292-13.214-10.58-1.542-.694-3.108-1.36-4.622-2.005-4.518-1.922-8.785-3.736-12.88-6.348-20.318-12.958-20.46-33.074-20.626-56.369l-.016-1.973c-.006-1.027.01-2.178.035-3.436.519-26.932 11.664-146.962 15.068-183.108l.013-.138.15-.037c3.181-.793 14.243-3.524 23.059-5.372l.126-.026.09.082c5.238 4.77 11.566 7.916 18.297 9.098 32.644 5.734 56.073 18.059 65.972 34.704 6.087 10.236 6.507 21.291 1.212 31.97-4.482 9.038-9.147 16.886-13.66 24.475-13.093 22.024-23.434 39.42-15.311 65.114 2.461 7.783 10.419 20.4 17.383 25.636 3.295 2.478 6.599 5.06 9.794 7.557 7.798 6.094 15.862 12.395 24.51 17.743 6.452 3.988 14.74 10.497 22.755 16.79 8.13 6.385 16.537 12.987 23.07 16.998 12.15 7.462 22.996 7.804 34.478 8.165 7.229.228 14.703.464 23.242 2.344l.273.06c17.921 3.948 38.233 8.422 57.523 8.825 12.005.252 22.956-1.012 32.55-3.758 5.571-1.594 10.615-4.143 15.493-6.607 4.344-2.195 8.837-4.465 13.7-6.063 23.486-7.718 50.783 4.612 65.608 20.78 8.463 9.23 14.199 21.61 16.15 34.858.283 1.925.419 3.817.419 5.673" transform="rotate(90 496.904 235.843)"/>
                        <path fill="url(#gfqtpkvmgs)" d="M250.173 385.746c0 .161.002.322.006.483.165 7.712 1.758 15.084 4.733 21.911 6.136 14.076 18.11 25.255 33.714 31.478 15.53 6.193 26.337 18.276 28.909 32.324.686 3.746 1.107 7.577 1.514 11.282.607 5.524 1.234 11.236 2.753 16.742 5.026 18.218 14.214 31.86 27.31 40.55 18.44 12.234 45.092 17.964 66.318 14.257 14.65-2.559 26.103-9.454 33.117-19.94 4.566-6.823 6.587-13.992 8.727-21.582.903-3.2 1.835-6.509 2.971-9.755 3.285-9.237 8.208-17.68 14.635-25.096 9.951-11.482 23.37-19.78 36.346-27.806 10.814-6.688 21.995-13.603 31.099-22.32 9.703-9.292 14.522-19.653 13.947-29.974-.695-12.425-4.668-25.854-11.806-39.915-9.969-19.636-22.35-32.013-36.802-36.789-12.695-4.195-22.365-9.295-30.898-13.794-12.157-6.411-21.759-11.474-33.793-10.354-8.084.753-12.251 5.584-16.28 10.257-2.518 2.92-5.121 5.94-8.638 7.881-15.77 8.71-33.883 12.991-53.832 12.722l.006-.299-.006.299c-24.202-.327-46.463-8.835-67.99-17.062-2.095-.801-4.188-1.6-6.28-2.392-19.96-7.553-37.494-17.614-56.853-32.622-2.225-1.724-4.477-3.42-6.862-5.216-18.157-13.673-38.738-29.167-36.143-51.53 2.021-17.406 11.967-33.29 20.406-45.184 2.655-3.742 5.656-7.332 8.559-10.804 6.136-7.34 12.481-14.93 15.754-24.252 3.466-9.874 2.691-18.754-2.303-26.395-13.562-20.75-55.54-29.37-86.191-35.665-3.833-.787-7.453-1.53-10.857-2.263-.434-.093-.946-.218-1.523-.358-2.448-.594-6.145-1.493-10.252-1.535l-.124-.022c-1.456-.519-3.07-.918-4.797-1.189-8.654 1.896-18.497 4.351-21.737 5.16l-.098.024-.052.558c-2.505 26.557-15.013 160.313-15.193 185.548-.006 1.223-.006 2.392-.006 3.5l.015 2.006c.21 26.029 1.895 45.434 21.794 58.121 5.21 3.323 9.772 5.59 14.355 7.136 4.769 1.608 9.213 4.148 12.853 7.346 2.041 1.794 3.677 3.9 5.26 5.937 1.676 2.158 3.41 4.39 5.611 6.216 12.209 10.132 34.039 5.366 49.978 1.886 2.184-.477 4.245-.927 6.168-1.315 18.378-3.703 40.79-6.203 51.059 7.448 3.813 5.07 2.94 11.207 2.097 17.14-.358 2.523-.698 4.914-.698 7.216M557 399.962c0 9.917-4.874 19.809-14.175 28.715-9.152 8.765-20.364 15.699-31.206 22.405-12.935 8-26.31 16.27-36.197 27.68-6.379 7.36-11.267 15.741-14.527 24.91-1.13 3.23-2.06 6.53-2.961 9.722-2.058 7.298-4.186 14.843-8.8 21.742-7.116 10.637-18.725 17.63-33.57 20.222-21.406 3.738-48.276-2.035-66.862-14.366-13.225-8.774-22.497-22.53-27.56-40.885-1.531-5.548-2.16-11.281-2.77-16.826-.406-3.695-.826-7.516-1.509-11.244-2.536-13.85-13.197-25.766-28.518-31.875-15.769-6.289-27.868-17.585-34.067-31.808-3.004-6.892-4.612-14.333-4.78-22.114-.056-2.501.329-5.182.698-7.783.828-5.826 1.684-11.851-1.99-16.738-10.038-13.345-32.174-10.855-50.34-7.195-1.916.386-3.975.836-6.154 1.311-16.092 3.514-38.131 8.326-50.61-2.03-2.254-1.87-4.01-4.13-5.706-6.313-1.565-2.014-3.183-4.097-5.18-5.851-3.573-3.14-7.935-5.634-12.615-7.212-4.639-1.564-9.25-3.855-14.511-7.21-21.714-13.845-21.905-37.622-22.074-58.6L81 266.612c0-1.112 0-2.28.007-3.507.18-25.256 12.69-159.033 15.195-185.593l.092-.97.55-.138c3.251-.811 13.148-3.28 21.828-5.18l.07-.015.072.01c1.778.275 3.442.683 4.946 1.215 4.169.05 7.893.956 10.361 1.555.57.139 1.075.261 1.504.354 3.4.732 7.019 1.475 10.849 2.262 30.773 6.32 72.919 14.974 86.627 35.95 5.092 7.789 5.887 16.83 2.363 26.866-3.306 9.42-9.686 17.05-15.856 24.43-2.895 3.463-5.888 7.044-8.53 10.766-8.4 11.84-18.3 27.645-20.306 44.93-2.556 22.05 17.879 37.438 35.908 51.016 2.387 1.797 4.642 3.494 6.87 5.222 19.302 14.964 36.781 24.994 56.673 32.52 2.092.792 4.185 1.592 6.281 2.393 21.467 8.205 43.663 16.688 67.73 17.013 19.815.267 37.802-3.982 53.46-12.63 3.412-1.884 5.862-4.727 8.457-7.736 4.117-4.774 8.373-9.711 16.751-10.491 12.261-1.14 21.948 3.967 34.214 10.436 8.507 4.486 18.15 9.571 30.787 13.747 14.627 4.834 27.138 17.318 37.184 37.105 7.173 14.128 11.164 27.63 11.866 40.128.03.564.047 1.128.047 1.692" transform="rotate(90 496.904 235.843)"/>
                        <path fill="url(#pjccampdot)" d="M76.815 300.659c0 17.105 3.313 32.116 19.147 34.897 3.215.565 5.93.95 8.325 1.29 11.253 1.596 15.044 2.134 26.018 14.952 15.864 18.527 39.874 13.734 73.104 7.1l.53-.106c12.508-2.497 20.643-2.116 26.38 1.233 8.82 5.149 11.206 17.065 14.817 35.103.737 3.685 1.5 7.495 2.388 11.618 4.65 21.608 7.231 28.896 30.47 38.407 31.4 12.85 32.643 24.341 35.646 52.103.222 2.046.453 4.182.706 6.415 3.638 32.012 15.056 50.928 64.896 59.2 23.136 3.84 41.945 1.127 55.904-8.063 20.197-13.296 24.795-36.425 25.834-45.752.407-3.646 1.337-7.065 2.763-10.164 9.435-20.482 27.068-23.247 45.736-26.175 13.268-2.082 26.99-4.234 38.963-12.833 13.632-9.79 22.898-26.73 28.328-51.788 1.952-8.996-3.475-31.705-15.924-54.137-20.007-36.048-43.673-47.037-56-50.378-18.962-5.141-30.741-10.815-40.205-15.374-11.41-5.497-18.946-9.128-31.297-8.164-10.121.79-14.947 7.467-19.614 13.925-2.79 3.86-5.675 7.85-9.64 10.439-30.516 19.913-61.448 6.818-94.196-7.047l-3.57-1.51c-35.727-15.08-63.786-28.743-83.398-40.606-11.56-6.992-19.183-18.239-20.915-30.855-1.66-12.106 1.1-31.209 23.687-53.476 36.395-35.881 42.714-49.779 32.19-70.811-11.41-22.805-77.062-28.255-108.613-30.874-13.398-1.112-16.078-1.41-16.712-2.321-.058-.084-.1-.172-.126-.262-3.234-.326-21.775 3.837-38.507 8.149-.985 10.386-15.413 162.98-15.413 188.627l.001.413c.042 5.253-.37 11.14-.8 17.376-.443 6.425-.903 13.082-.903 19.449M579 403.615c0 1.766-.144 3.37-.449 4.779-12.36 57.045-42.32 61.744-68.753 65.89-18.161 2.849-35.315 5.54-44.374 25.205-1.361 2.957-2.25 6.228-2.64 9.722-1.063 9.537-5.776 33.195-26.55 46.872-14.384 9.47-33.672 12.279-57.329 8.352-50.96-8.457-62.638-27.825-66.363-60.606-.254-2.235-.485-4.374-.707-6.423-2.933-27.12-4.147-38.344-34.606-50.81-23.972-9.809-26.81-17.824-31.487-39.555-.89-4.132-1.653-7.947-2.392-11.638-3.53-17.633-5.862-29.28-14.035-34.052-5.29-3.088-12.992-3.398-24.974-1.006l-.53.106c-33.895 6.766-58.385 11.655-74.955-7.696-10.535-12.305-13.856-12.776-24.858-14.337-2.411-.342-5.143-.73-8.392-1.3-23.277-4.09-21.375-31.67-19.698-56.003.427-6.209.823-12.073.797-17.271-.193-25.17 15.313-188.083 15.47-189.726l.051-.544.597-.154c.095-.025 9.709-2.508 19.428-4.738 20.166-4.626 21.092-3.733 21.703-3.141.151.145.248.317.287.501 1.574.47 7.928.997 15.205 1.6 31.895 2.649 98.264 8.158 110.103 31.82 10.898 21.783 4.521 36.015-32.497 72.51-22.137 21.824-24.858 40.444-23.24 52.226 1.668 12.163 9.01 23 20.143 29.735 19.534 11.816 47.512 25.436 83.154 40.482l3.572 1.51c33.64 14.243 62.691 26.543 92.326 7.203 3.697-2.411 6.366-6.104 9.192-10.014 4.903-6.783 9.972-13.797 20.985-14.657 12.898-1.007 21.049 2.92 32.329 8.354 9.391 4.524 21.08 10.155 39.868 15.248 12.607 3.417 36.789 14.614 57.095 51.203 8.72 15.714 16.524 37.36 16.524 50.353" transform="rotate(90 496.904 235.843)"/>
                        <g transform="rotate(90 496.904 235.843) translate(232 554.725)">
                            <mask id="b9q6z25ktv" fill="#fff">
                                <use xlink:href="#ep8g4om9vu"/>
                            </mask>
                            <path fill="#065513" d="M57.734 131.856c16.546 17.164 24.024 29.996 22.228 38.138-1.173 5.317-6 7.549-8.886 8.883-.943.435-2.235 1.033-2.23 1.318 0 .067.108.444 2.097 1.297 43.61 18.702 131.528-.37 141.567-13.098 1.298-1.646 1.202-3.054-.293-4.308-4.334-3.636-10.384-6.87-16.79-10.292-15.164-8.103-34.036-18.189-42.09-40.033-5.44-14.758.445-34.278 5.638-51.5 5.007-16.606 9.33-30.947 2.26-36.505-2.682-2.108-9.533-2.886-16.788-3.71-8.818-1-18.816-2.135-24.85-5.895C91.259-1.512 86.322-.1 71.659 4.093 63.379 6.459 52.04 9.7 31.933 11.038c-14.616.97-24.125 5.884-28.26 14.6C-6.01 46.043 15.21 87.735 57.733 131.855m61.533 58.439c-19.62 0-36.574-2.69-48.805-7.934-1.916-.822-2.701-1.445-2.714-2.15-.015-.881 1.113-1.402 2.817-2.19 2.887-1.334 7.248-3.35 8.32-8.211 1.729-7.84-5.669-20.4-21.987-37.33-20.258-21.017-36.154-41.954-45.967-60.546C.451 52.082-2.408 35.944 2.66 25.264c4.308-9.079 14.13-14.19 29.19-15.191 19.979-1.327 31.244-4.549 39.47-6.9 15.05-4.302 20.121-5.755 48.912 12.188 5.81 3.621 15.664 4.74 24.357 5.727 7.75.88 14.442 1.64 17.378 3.947 7.574 5.953 3.169 20.56-1.93 37.474-5.154 17.093-10.995 36.466-5.655 50.954 7.928 21.503 26.607 31.484 41.616 39.504 6.457 3.452 12.556 6.71 16.977 10.418 1.898 1.593 2.05 3.515.437 5.56-5.43 6.887-30.25 14.79-59.013 18.793-12.303 1.712-24.136 2.557-35.131 2.557" mask="url(#b9q6z25ktv)"/>
                        </g>
                        <path fill="url(#wzmecfib2w)" d="M314.167 718.532c30.179 12.885 95.027-.886 101.473-9.027.766-.968.706-1.767-.19-2.515-2.03-1.695-4.747-3.553-7.893-5.702-11.665-7.971-29.293-20.018-33.157-39.928-2.012-10.372.667-23.069 3.259-35.347 3.188-15.105 6.199-29.374-1.395-34.607-2.33-1.606-7.506-2.313-12.986-3.062-6.413-.877-13.683-1.87-18.293-4.535-21.34-12.34-25.52-11.037-37.923-7.169-6.052 1.887-14.338 4.47-27.535 6.342-10.012 1.422-16.642 5.334-19.704 11.63-6.223 12.8 2.693 36 24.464 63.65 5.844 7.44 11.811 14.456 17.739 20.855 25.2 27.205 15.989 34.135 12.057 37.093-.717.541-1.395 1.05-1.35 1.354.024.172.295.48 1.434.968m33.442 5.864c-12.923 0-25.081-1.487-33.805-5.213-1.248-.532-1.814-.99-1.892-1.527-.101-.692.625-1.239 1.632-1.996 3.75-2.821 12.532-9.428-12.16-36.086-5.942-6.414-11.922-13.446-17.777-20.9-22.259-28.269-30.974-51.121-24.544-64.347 3.18-6.54 10.02-10.597 20.332-12.06 13.122-1.862 21.369-4.432 27.39-6.31 12.693-3.958 16.971-5.29 38.654 7.246 4.46 2.578 11.636 3.56 17.968 4.424 5.83.798 10.868 1.486 13.367 3.208 7.989 5.506 4.934 19.982 1.698 35.31-2.578 12.216-5.244 24.849-3.256 35.094 3.81 19.632 21.285 31.574 32.849 39.477 3.163 2.162 5.897 4.028 7.957 5.749 1.194.998 1.297 2.191.297 3.454-5.234 6.607-38.989 14.477-68.71 14.477" transform="rotate(90 496.904 235.843)"/>
                        <path fill="url(#wezwwln9sx)" d="M324.04 700.225c9.241 3.976 27.194 2.442 34.484 1.6 12.773-1.479 24.086-4.298 25.754-6.418.258-.33.235-.584-.08-.849-5.751-4.837-24.388-22.083-22.752-40.873.314-3.611.825-7.475 1.365-11.565 2.135-16.163 4.554-34.48-5.558-40.28-1.966-1.128-5.445-1.779-9.126-2.47-4.09-.765-8.32-1.559-11.428-3.105-14.34-7.135-18.001-5.7-28.867-1.445-3.522 1.378-7.905 3.095-13.635 4.899-6.034 1.9-9.954 5.19-11.654 9.781-3.635 9.816 2.746 25.812 18.453 46.262 3.831 5.01 7.922 10.319 12.12 15.312 14.798 17.595 11.947 24.002 10.578 27.08-.568 1.28-.675 1.632.346 2.071m18.395 3.072c-7.472 0-14.25-.751-18.635-2.638-1.517-.653-1.138-1.503-.615-2.68 1.334-2.999 4.108-9.238-10.508-26.617-4.205-5-8.3-10.315-12.132-15.33-11.023-14.349-23.184-34.096-18.522-46.682 1.755-4.74 5.789-8.133 11.99-10.086 5.71-1.798 10.084-3.51 13.598-4.886 11.053-4.327 14.777-5.786 29.357 1.467 3.035 1.51 7.222 2.295 11.271 3.053 3.733.7 7.26 1.36 9.31 2.537 10.399 5.963 7.959 24.44 5.806 40.74-.54 4.086-1.05 7.945-1.364 11.548-1.617 18.578 16.878 35.685 22.585 40.487.508.427.561.95.15 1.473-2.617 3.327-24.437 7.614-42.291 7.614" transform="rotate(90 496.904 235.843)"/>
                        <path fill="url(#klxhf9t0gy)" d="M334.272 682.395h19.792c-1.148-2.165-12.195-23.698-4.672-36.13 3.881-6.414 4.588-14.103 1.94-21.097-2.27-5.993-6.733-10.72-12.247-12.97-.471-.193-.95-.391-1.432-.591-8.333-3.464-17.78-7.385-28.86 4.778-9.343 10.255-.715 23.965 8.923 37.128 11.336 15.484 16.127 27.751 16.556 28.882zm20.228.242h-20.426l-.031-.084c-.047-.125-4.737-12.762-16.556-28.907-9.693-13.239-18.365-27.032-8.907-37.413 4.995-5.482 10.138-8.204 15.724-8.317.124-.003.246-.004.369-.004 4.732 0 9.17 1.843 13.096 3.475.482.2.96.398 1.432.59 5.582 2.279 10.098 7.058 12.391 13.115 2.672 7.056 1.958 14.815-1.958 21.287-7.821 12.926 4.643 35.853 4.769 36.084l.097.174z" transform="rotate(90 496.904 235.843)"/>
                        <path fill="url(#5fx1fyekuz)" d="M274.335 388.763c0 3.9.73 7.857 2.907 10.978 5.039 7.223 12.184 10.433 20.457 14.152 10.421 4.682 22.232 9.99 31.555 25.009 3.842 6.19 7.952 15.796 12.71 26.918 11.482 26.837 27.207 63.59 49.24 70.688 6.781 2.185 13.937 1.454 21.27-2.17 30.503-15.078 31.843-25.024 34.065-41.503 1.079-8.007 2.302-17.082 6.973-28.91 12.04-30.495 25.589-41.198 36.475-49.8 2.238-1.768 4.352-3.438 6.316-5.173 11.807-10.43 15.777-15.622 13.983-32.923-1.712-16.499-12.53-23.156-36.176-22.26-9.413.356-16.233 1.356-23.454 2.415-7.122 1.043-14.487 2.123-24.638 2.565-11.784.513-19.29-.037-28.797-.735-7.42-.544-15.83-1.162-28.577-1.504-6.455-.174-13.24-.646-19.803-1.104-28.742-2.002-58.462-4.07-71.536 17.854-.267.7-2.97 7.995-2.97 15.503m238.165-5.728c0 12.528-4.678 18-14.918 27.047-2 1.766-4.133 3.45-6.39 5.235-10.73 8.478-24.085 19.03-35.972 49.135-4.606 11.664-5.817 20.646-6.885 28.571-2.21 16.4-3.671 27.234-34.977 42.71-7.813 3.861-15.475 4.628-22.772 2.277-22.814-7.35-38.062-42.989-50.313-71.625-4.735-11.066-8.824-20.623-12.606-26.715-9.054-14.586-20.6-19.775-30.787-24.353-8.163-3.668-15.872-7.132-21.178-14.737-7.009-10.046-.37-27.176-.084-27.9l.052-.108c13.611-22.918 43.962-20.804 73.313-18.759 6.54.456 13.306.927 19.716 1.1 12.794.343 21.23.962 28.673 1.509 9.438.693 16.893 1.24 28.557.731 10.047-.438 17.36-1.51 24.431-2.546 7.277-1.067 14.15-2.074 23.672-2.435 11.974-.454 20.39.913 26.49 4.303 6.82 3.79 10.604 10.139 11.566 19.408.273 2.629.412 4.996.412 7.152" transform="rotate(90 496.904 235.843)"/>
                        <path fill="url(#a0zfnfxs0A)" d="M305.727 393.64c0 4.912 1.553 13.25 9.648 23.326 2.886 3.592 5.46 6.022 8.185 8.594 4.633 4.373 9.425 8.895 16.127 19.636 3.478 5.575 7.055 13.828 10.841 22.567 9.493 21.908 21.307 49.173 40.286 55.808 6.878 2.405 14.374 1.924 22.28-1.431 10.408-4.416 16.945-9.03 21.198-14.963 4.06-5.663 6.049-12.463 8.568-21.073 1.894-6.476 4.042-13.815 7.585-22.745 11.247-28.333 23.512-38.255 33.368-46.227 1.805-1.46 3.51-2.84 5.134-4.267 5.882-5.17 9.444-12.026 10.587-20.38.992-7.267 2.493-18.25-6.952-23.463-7.131-3.936-15.984-2.849-24.545-1.797-3.013.37-5.861.72-8.591.846-7.865.366-15.852-.005-23.576-.363-3.6-.166-7.32-.339-10.98-.435-7.61-.198-15.255-.497-22.648-.787-21.567-.844-41.939-1.64-63.386-.277-12.96.825-24.815 7.336-30.203 16.587-1.619 2.78-2.577 5.81-2.85 9.002-.046.545-.076 1.16-.076 1.841m194.773-9.546c0 2.99-.4 5.92-.741 8.416-1.148 8.398-4.732 15.294-10.65 20.496-1.628 1.43-3.336 2.81-5.143 4.273-9.836 7.958-22.08 17.86-33.306 46.146-3.541 8.923-5.686 16.257-7.58 22.73-5.058 17.29-7.845 26.814-29.887 36.166-7.966 3.38-15.523 3.863-22.462 1.436-19.073-6.667-30.907-33.978-40.415-55.922-3.784-8.732-7.357-16.98-10.828-22.542-6.687-10.719-11.47-15.232-16.093-19.597-2.731-2.576-5.31-5.01-8.205-8.614-9.258-11.525-9.999-20.8-9.612-25.298.273-3.219 1.24-6.274 2.873-9.077 5.424-9.313 17.352-15.866 30.39-16.695 21.46-1.366 41.838-.568 63.412.276 7.392.29 15.035.589 22.645.788 3.66.095 7.384.268 10.984.434 7.718.358 15.7.729 23.552.363 2.72-.126 5.563-.475 8.573-.845 8.6-1.056 17.494-2.149 24.696 1.826 6.302 3.48 7.797 9.467 7.797 15.24" transform="rotate(90 496.904 235.843)"/>
                        <path fill="url(#whwhs9plyB)" d="M329.928 416.688c3.377 9.143 9.061 17.687 14.56 25.95 1.939 2.915 3.945 5.93 5.807 8.91 3.141 5.029 5.95 11.452 8.924 18.253 10.133 23.17 21.618 49.433 52.995 39.99 13.892-4.18 22.974-16.126 34.707-45.649 11.584-29.147 22.128-38.36 31.431-46.49l1.237-1.081c11.54-10.13 12.102-16.764 8.998-28.723-3.485-13.422-19.984-12.174-34.542-11.073-5.65.428-10.987.831-15.08.316-4.297-.542-8.585-1.486-12.732-2.399-5.977-1.316-12.158-2.677-18.423-2.835-12.984-.33-23.938.518-36.91 1.661-10.878.96-23.278 2.402-32.756 7.414-14.198 7.508-11.598 23.972-9.82 30.701.437 1.653.977 3.353 1.604 5.055M491 397.923c0 8.098-3.792 13.085-10.77 19.21l-1.238 1.084c-9.235 8.068-19.7 17.212-31.216 46.187-11.84 29.793-21.068 41.867-35.268 46.14-32.205 9.692-44.364-18.115-54.135-40.459-2.963-6.774-5.76-13.173-8.872-18.154-1.856-2.971-3.86-5.981-5.796-8.893-5.522-8.298-11.232-16.88-14.639-26.105-.635-1.722-1.182-3.445-1.624-5.12-1.823-6.9-4.472-23.785 10.235-31.562 9.638-5.097 22.156-6.556 33.133-7.524 13.004-1.146 23.988-1.997 37.026-1.666 6.364.162 12.593 1.534 18.618 2.86 4.124.908 8.388 1.847 12.641 2.382 3.989.504 9.275.103 14.873-.32 14.925-1.13 31.843-2.409 35.503 11.688 1.03 3.963 1.529 7.313 1.529 10.252" transform="rotate(90 496.904 235.843)"/>
                    </g>
                </g>
            </g>
        </g>
    </g>
</svg>
