<svg xmlns="http://www.w3.org/2000/svg" width="24" height="24" viewBox="0 0 24 24">
    <g fill="none" fill-rule="evenodd">
        <g>
            <g>
                <path d="M0 0H24V24H0z" transform="translate(-1217 -222) translate(1217 222)"/>
                <path fill="#0B0B0B" fill-rule="nonzero" d="M13.167 12l8.57-8.569c.33-.32.34-.846.02-1.177-.32-.33-.847-.34-1.177-.02l-.02.02-8.57 8.57-8.57-8.57c-.33-.32-.857-.31-1.176.02-.312.323-.312.835 0 1.157l8.569 8.57-8.57 8.569c-.324.325-.324.852 0 1.177.326.325.853.325 1.178 0l8.57-8.57 8.568 8.57c.33.32.858.31 1.177-.02.312-.323.312-.835 0-1.157L13.167 12z" transform="translate(-1217 -222) translate(1217 222)"/>
            </g>
        </g>
    </g>
</svg>
