<svg xmlns="http://www.w3.org/2000/svg" width="24" height="24" viewBox="0 0 24 24">
    <defs>
        <filter id="2vtms9502a">
            <feColorMatrix in="SourceGraphic" values="0 0 0 0 0.649853 0 0 0 0 0.649853 0 0 0 0 0.649853 0 0 0 1.000000 0"/>
        </filter>
    </defs>
    <g fill="none" fill-rule="evenodd">
        <g>
            <g transform="translate(-1263 -290) translate(1263 290)">
                <rect width="24" height="24" fill="#E3E3E3" rx="6"/>
                <g filter="url(#2vtms9502a)">
                    <path fill="#200E32" fill-rule="nonzero" d="M6.667 0c1.379 0 2.686.478 3.824 1.364 1.138.88 2.107 2.166 2.803 3.775.052.123.052.265 0 .382-1.392 3.22-3.87 5.146-6.627 5.146-2.758 0-5.236-1.927-6.628-5.146-.052-.117-.052-.259 0-.382C1.431 1.92 3.909 0 6.66 0zm0 2.747c-1.438 0-2.602 1.158-2.602 2.586 0 1.423 1.164 2.58 2.602 2.58 1.43 0 2.595-1.157 2.595-2.58 0-1.428-1.164-2.586-2.595-2.586zm0 .969c.892 0 1.62.724 1.62 1.616 0 .886-.728 1.61-1.62 1.61-.897 0-1.626-.724-1.626-1.61 0-.11.013-.213.033-.317h.032c.722 0 1.308-.569 1.334-1.28.071-.013.15-.02.227-.02z" transform="translate(5.333 6.667)"/>
                </g>
            </g>
        </g>
    </g>
</svg>
