<svg xmlns="http://www.w3.org/2000/svg" width="24" height="24" viewBox="0 0 24 24">
    <g fill="none" fill-rule="evenodd">
        <g>
            <g>
                <path d="M0 0H24V24H0z" transform="translate(-1162 -388) translate(1162 388)"/>
                <path fill="#A3A3A3" fill-rule="nonzero" d="M15.37 8.66c.637.273 1.226.63 1.76 1.066v-3.08C17.13 4.084 15.067 2 12.532 2h-.07C9.929 2 7.867 4.084 7.867 6.646v3.08C8.4 9.29 8.989 8.933 9.626 8.66c.171-.074.347-.141.522-.201V6.646c0-1.292 1.038-2.34 2.316-2.34h.07c1.278 0 2.316 1.048 2.316 2.34v1.816c.174.058.35.125.52.199z" transform="translate(-1162 -388) translate(1162 388)"/>
                <path fill="#A3A3A3" fill-rule="nonzero" d="M6 15.503C6 19.091 8.91 22 12.498 22c3.589 0 6.498-2.907 6.498-6.497 0-1.763-.704-3.363-1.843-4.535-.642-.658-1.422-1.18-2.293-1.522-.732-.286-1.53-.442-2.362-.442-.832 0-1.63.156-2.362.442-.87.34-1.65.862-2.292 1.522C6.702 12.14 6 13.74 6 15.503zm4.824-1.311c.023-.888.746-1.61 1.633-1.63.942-.023 1.715.736 1.715 1.673 0 .099-.01.195-.025.287-.083.474-.365.882-.76 1.13-.162.103-.245.296-.203.481l.497 2.36c.03.142-.078.277-.224.277H11.54c-.147 0-.255-.133-.225-.278l.498-2.359c.039-.188-.042-.38-.204-.483-.395-.248-.677-.654-.76-1.13-.018-.106-.027-.216-.025-.328z" transform="translate(-1162 -388) translate(1162 388)"/>
            </g>
        </g>
    </g>
</svg>
