<svg xmlns="http://www.w3.org/2000/svg" width="22" height="22" viewBox="0 0 22 22">
    <defs>
        <filter id="r4fmgh843a">
            <feColorMatrix in="SourceGraphic" values="0 0 0 0 0.047059 0 0 0 0 0.666667 0 0 0 0 0.149020 0 0 0 1.000000 0"/>
        </filter>
    </defs>
    <g fill="none" fill-rule="evenodd">
        <g>
            <g filter="url(#r4fmgh843a)" transform="translate(-1544 -21) translate(1363 6)">
                <g fill="#0B0B0B" fill-rule="nonzero">
                    <path d="M21.667 10.195l-4.292-4.291c-.213-.213-.503-.333-.804-.333-.302 0-.592.12-.805.333-.444.444-.444 1.165 0 1.61l2.349 2.348H5.69c-.629 0-1.138.51-1.138 1.138 0 .628.51 1.138 1.138 1.138h12.425l-2.349 2.349c-.444.444-.444 1.165 0 1.61.444.443 1.165.443 1.61-.001l4.29-4.291c.445-.445.445-1.165 0-1.61z" transform="translate(181 15)"/>
                    <path d="M13.276 17.448c-.629 0-1.138.51-1.138 1.138v1.138H2.276V2.276h9.862v1.138c0 .628.51 1.138 1.138 1.138.628 0 1.138-.51 1.138-1.138V1.897c0-.503-.2-.986-.556-1.342C13.503.2 13.02 0 12.518 0H1.896C.849 0 0 .85 0 1.897v18.206C0 21.151.85 22 1.897 22h10.62c.503 0 .986-.2 1.341-.555.356-.356.556-.839.556-1.342v-1.517c0-.628-.51-1.138-1.138-1.138z" transform="translate(181 15)"/>
                </g>
            </g>
        </g>
    </g>
</svg>
