<svg xmlns="http://www.w3.org/2000/svg" width="16" height="16" viewBox="0 0 16 16">
    <g fill="none" fill-rule="evenodd">
        <g fill="#0CAA26" fill-rule="nonzero">
            <g>
                <path d="M23.893 24.85l-3.595-3.49c.963-1.2 1.543-2.724 1.543-4.383 0-3.847-3.105-6.977-6.92-6.977C11.104 10 8 13.13 8 16.977c0 3.847 3.105 6.977 6.92 6.977 1.647 0 3.158-.585 4.348-1.556l3.595 3.49c.143.143.373.143.515 0l.515-.52c.143-.143.143-.375 0-.519zm-8.973-2.365c-3.012 0-5.463-2.471-5.463-5.508 0-3.038 2.45-5.508 5.463-5.508s5.464 2.47 5.464 5.508c0 3.037-2.45 5.508-5.464 5.508z" transform="translate(-1168 -203) translate(1160 193)"/>
            </g>
        </g>
    </g>
</svg>
