<svg xmlns="http://www.w3.org/2000/svg" width="24" height="25" viewBox="0 0 24 25">
    <g fill="none" fill-rule="evenodd">
        <g>
            <g>
                <path d="M0 0H24V24H0z" transform="translate(-1160 -391) translate(1160 391)"/>
                <g>
                    <path fill="#A3A3A3" fill-rule="nonzero" d="M12.87 6.66c.637.273 1.226.63 1.76 1.066v-3.08C14.63 2.084 12.567 0 10.032 0h-.07C7.429 0 5.367 2.084 5.367 4.646v3.08C5.9 7.29 6.489 6.933 7.126 6.66c.171-.074.347-.141.522-.201V4.646c0-1.292 1.038-2.34 2.316-2.34h.07c1.278 0 2.316 1.048 2.316 2.34v1.816c.174.058.35.125.52.199z" transform="translate(-1160 -391) translate(1160 391) translate(1 1)"/>
                    <path fill="#A3A3A3" fill-rule="nonzero" d="M3.5 13.503C3.5 17.091 6.41 20 9.998 20c3.589 0 6.498-2.907 6.498-6.497 0-1.763-.704-3.363-1.843-4.535-.642-.658-1.422-1.18-2.293-1.522-.732-.286-1.53-.442-2.362-.442-.832 0-1.63.156-2.362.442-.87.34-1.65.862-2.292 1.522C4.202 10.14 3.5 11.74 3.5 13.503zm4.824-1.311c.023-.888.746-1.61 1.633-1.63.942-.023 1.715.736 1.715 1.673 0 .099-.01.195-.025.287-.083.474-.365.882-.76 1.13-.162.103-.245.296-.203.481l.497 2.36c.03.142-.078.277-.224.277H9.04c-.147 0-.255-.133-.225-.278l.498-2.359c.039-.188-.042-.38-.204-.483-.395-.248-.677-.654-.76-1.13-.018-.106-.027-.216-.025-.328z" transform="translate(-1160 -391) translate(1160 391) translate(1 1)"/>
                    <path stroke="#F9F9F9" stroke-linecap="square" stroke-width="2" d="M21.5 2L0.5 22" transform="translate(-1160 -391) translate(1160 391) translate(1 1)"/>
                    <path stroke="#A3A3A3" stroke-linecap="square" d="M21.5 2L0.5 22" transform="translate(-1160 -391) translate(1160 391) translate(1 1)"/>
                </g>
            </g>
        </g>
    </g>
</svg>
