<svg xmlns="http://www.w3.org/2000/svg" width="16" height="16" viewBox="0 0 16 16">
    <g fill="none" fill-rule="evenodd">
        <g fill="#CA0F14">
            <path d="M721 441c4.418 0 8 3.582 8 8s-3.582 8-8 8-8-3.582-8-8 3.582-8 8-8zm-.072 11.44c-.512 0-.928.415-.928.927s.416.927.928.927c.511 0 .927-.415.927-.927s-.416-.928-.927-.928zm.01-7.44c-.504 0-.905.416-.894.917l.144 5.138c.01.401.342.725.747.725.405 0 .736-.32.747-.725l.147-5.138c.015-.501-.39-.917-.89-.917z" transform="translate(-713 -441)"/>
        </g>
    </g>
</svg>
