<svg xmlns="http://www.w3.org/2000/svg" width="18" height="18" viewBox="0 0 18 18">
    <defs>
        <filter id="tpobnl8pra">
            <feColorMatrix in="SourceGraphic" values="0 0 0 0 1.000000 0 0 0 0 1.000000 0 0 0 0 1.000000 0 0 0 1.000000 0"/>
        </filter>
    </defs>
    <g fill="none" fill-rule="evenodd">
        <g>
            <g>
                <g>
                    <g>
                        <g filter="url(#tpobnl8pra)" transform="translate(-837 -297) translate(616 188) translate(1 45) translate(196 58) translate(24 5)">
                            <g>
                                <path d="M0 0H18V18H0z" transform="translate(0 1)"/>
                                <path fill="#0CB027" fill-rule="nonzero" d="M13.125 4.5c.621 0 1.125-.548 1.125-1.23V1.983c0-.683-.503-1.233-1.125-1.233C12.502.75 12 1.3 12 1.983V3.27c0 .681.503 1.229 1.125 1.229z" transform="translate(0 1)"/>
                                <path fill="#0CB027" fill-rule="nonzero" d="M17.232 2.28h-2.337v.6c0 .99-.792 1.797-1.768 1.797-.977 0-1.767-.807-1.767-1.797v-.6H6.644v.6c0 .99-.793 1.797-1.768 1.797S3.108 3.87 3.108 2.88v-.6L.75 2.25v15h15.322l1.178-.004-.018-14.966zm-1.16 13.775H1.93V6.473h14.142v9.582z" transform="translate(0 1)"/>
                                <path fill="#0CB027" fill-rule="nonzero" d="M4.874 4.5C5.496 4.5 6 3.952 6 3.27V1.983C6 1.299 5.496.75 4.874.75c-.622 0-1.124.55-1.124 1.233V3.27c0 .681.502 1.229 1.124 1.229zM6.75 8.25H8.25V9.75H6.75zM9.75 8.25H11.25V9.75H9.75zM12.75 8.25H14.25V9.75H12.75zM6.75 11.25H8.25V12.75H6.75zM9.75 11.25H11.25V12.75H9.75zM12.75 11.25H14.25V12.75H12.75zM6.75 13.5H8.25V15H6.75zM3.75 11.25H5.25V12.75H3.75zM3.75 13.5H5.25V15H3.75zM9.75 13.5H11.25V15H9.75zM12.75 13.5H14.25V15H12.75z" transform="translate(0 1)"/>
                            </g>
                        </g>
                    </g>
                </g>
            </g>
        </g>
    </g>
</svg>
