<svg xmlns="http://www.w3.org/2000/svg" width="14" height="14" viewBox="0 0 14 14">
    <g fill="none" fill-rule="evenodd">
        <g>
            <g>
                <g transform="translate(-1039 -189) translate(805 110) translate(234 79)">
                    <circle cx="7" cy="7" r="7" fill="#ACACAC"/>
                    <path fill="#FFF" fill-rule="nonzero" d="M7.641 7l2.726-2.726c.177-.177.177-.464 0-.641s-.464-.177-.641 0L7 6.359 4.274 3.633c-.177-.177-.464-.177-.641 0s-.177.464 0 .641L6.359 7 3.633 9.726c-.177.177-.177.464 0 .641.088.089.205.133.32.133.117 0 .233-.044.321-.133L7 7.641l2.726 2.726c.088.089.204.133.32.133.117 0 .233-.044.321-.133.177-.177.177-.464 0-.641L7.641 7z"/>
                </g>
            </g>
        </g>
    </g>
</svg>
