<svg xmlns="http://www.w3.org/2000/svg" width="16" height="16" viewBox="0 0 16 16">
    <g fill="none" fill-rule="evenodd">
        <g>
            <g>
                <g>
                    <path d="M0 0H16V16H0z" transform="translate(-909 -458) translate(617 241) translate(292 217)"/>
                    <path fill="#0CB027" fill-rule="nonzero" d="M11.666 4c.553 0 1-.487 1-1.093V1.762c0-.607-.446-1.095-1-1.095-.553 0-1 .488-1 1.095v1.145c.001.606.448 1.093 1 1.093z" transform="translate(-909 -458) translate(617 241) translate(292 217)"/>
                    <path fill="#0CB027" fill-rule="nonzero" d="M15.317 2.026H13.24v.534c0 .88-.704 1.597-1.571 1.597-.869 0-1.57-.717-1.57-1.597v-.534H5.905v.534c0 .88-.705 1.597-1.572 1.597-.867 0-1.57-.717-1.57-1.597v-.534L.666 2v13.333h13.619l1.047-.003-.016-13.304zm-1.032 12.245H1.715V5.754h12.571v8.517z" transform="translate(-909 -458) translate(617 241) translate(292 217)"/>
                    <path fill="#0CB027" fill-rule="nonzero" d="M4.333 4c.552 0 1-.487 1-1.093V1.762c0-.607-.448-1.095-1-1.095-.553 0-1 .488-1 1.095v1.145c0 .606.446 1.093 1 1.093zM6 7.333H7.333V8.666H6zM8.667 7.333H10V8.666H8.667zM11.333 7.333H12.666V8.666H11.333zM6 10H7.333V11.333H6zM8.667 10H10V11.333H8.667zM11.333 10H12.666V11.333H11.333zM6 12H7.333V13.333H6zM3.333 10H4.666V11.333H3.333zM3.333 12H4.666V13.333H3.333zM8.667 12H10V13.333H8.667zM11.333 12H12.666V13.333H11.333z" transform="translate(-909 -458) translate(617 241) translate(292 217)"/>
                </g>
            </g>
        </g>
    </g>
</svg>
