<svg xmlns="http://www.w3.org/2000/svg" xmlns:xlink="http://www.w3.org/1999/xlink" width="24" height="24" viewBox="0 0 24 24">
    <defs>
        <path id="i6uk2ux4na" d="M0 0.012L22 0.012 22 8.837 0 8.837z"/>
        <path id="bcy3ycjn8c" d="M0.035 0.016L8.856 0.016 8.856 8.85 0.035 8.85z"/>
    </defs>
    <g fill="none" fill-rule="evenodd">
        <g>
            <g>
                <path d="M0 0H24V24H0z" transform="translate(-1049 -125) translate(1049 125)"/>
                <g>
                    <g transform="translate(-1049 -125) translate(1049 125) translate(1 2) translate(0 6.673)">
                        <mask id="8a96779o2b" fill="#fff">
                            <use xlink:href="#i6uk2ux4na"/>
                        </mask>
                        <path fill="#FFF" d="M21.968 7.379l-.07-.144-.003-.007c-.054-.115-.11-.233-.176-.35-1.368-2.389-3.23-4.24-5.536-5.505C13.839.09 11.366-.29 8.833.25 6.96.648 5.196 1.533 3.588 2.88 2.036 4.182.839 5.696.031 7.382L0 7.446v.567l.079.088c.182.446.542.705 1.017.73.48.024.856-.208 1.117-.69 1.24-2.294 3.023-3.99 5.3-5.043 1.706-.788 3.471-.985 5.249-.585 1.546.348 2.963 1.096 4.33 2.287 1.132.984 2.049 2.122 2.726 3.384.205.38.57.624.979.65l.074.003c.359 0 .688-.172.902-.472.068-.094.112-.193.152-.283l.042-.092.033-.065v-.481l-.032-.065z" mask="url(#8a96779o2b)"/>
                    </g>
                    <path fill="#FFF" d="M.417 6.356c.732.675 1.33 1.213 1.884 1.691.137.119.297.184.44.242.054.022.105.043.151.065l.084.041.093-.012c.488-.062.868-.332 1.042-.74.194-.457.094-.944-.262-1.273-.73-.673-1.336-1.22-1.91-1.722-.474-.415-1.176-.368-1.6.108-.425.478-.392 1.166.078 1.6M19.03 8.342l.066.002.06-.024c.008-.004.035-.011.054-.017.113-.032.283-.081.424-.204.789-.684 1.422-1.254 1.993-1.792.425-.4.44-1.097.032-1.552-.42-.47-1.107-.527-1.564-.132-.58.502-1.207 1.067-1.973 1.78-.342.317-.43.828-.22 1.27.207.435.576.654 1.128.67M11 4.798H11c.649 0 1.142-.513 1.146-1.19.002-.276.002-.552.001-.82V1.813v-.209c.001-.13.002-.277 0-.42C12.144.51 11.649 0 10.999 0c-.661 0-1.143.5-1.145 1.189-.003.81-.003 1.623 0 2.42.002.678.495 1.19 1.146 1.19" transform="translate(-1049 -125) translate(1049 125) translate(1 2)"/>
                    <g transform="translate(-1049 -125) translate(1049 125) translate(1 2) translate(6.554 10.929)">
                        <mask id="attpg63yid" fill="#fff">
                            <use xlink:href="#bcy3ycjn8c"/>
                        </mask>
                        <path fill="#FFF" d="M6.559 4.446c-.006 1.161-.954 2.106-2.112 2.106h-.01c-.567-.003-1.097-.225-1.493-.626-.4-.404-.617-.943-.613-1.518.01-1.156.96-2.096 2.12-2.096h.013c1.161.007 2.1.964 2.095 2.134M4.44.016h-.015C3.248.02 2.143.483 1.314 1.32.486 2.154.032 3.265.035 4.446.042 6.875 2.02 8.85 4.442 8.85h.013c1.179-.003 2.285-.464 3.115-1.298.83-.834 1.287-1.943 1.286-3.124 0-1.185-.46-2.296-1.296-3.128C6.729.472 5.621.016 4.441.016" mask="url(#attpg63yid)"/>
                    </g>
                </g>
            </g>
        </g>
    </g>
</svg>
