<svg xmlns="http://www.w3.org/2000/svg" width="15" height="13" viewBox="0 0 15 13">
    <g fill="none" fill-rule="evenodd">
        <g fill="#6F8496" fill-rule="nonzero">
            <g>
                <g>
                    <path d="M10.887 0C13.473 0 15 1.433 15 3.887h-3.173v.025c-1.473 0-2.667 1.12-2.667 2.504 0 1.382 1.194 2.503 2.667 2.503H15v.225C15 11.567 13.473 13 10.887 13H4.113C1.527 13 0 11.567 0 9.144V3.856C0 1.433 1.527 0 4.113 0zm3.553 4.963c.31 0 .56.236.56.526v1.828c-.004.289-.252.522-.56.526h-2.553c-.746.009-1.398-.47-1.567-1.152-.085-.423.034-.86.325-1.193.29-.333.723-.53 1.182-.535zm-2.253.845h-.247c-.151-.001-.297.054-.405.154-.108.1-.168.236-.168.378 0 .299.255.542.573.545h.247c.316 0 .573-.241.573-.538 0-.298-.257-.539-.573-.539zm-4.4-2.998H3.553c-.314 0-.57.237-.573.532 0 .299.256.541.573.545h4.234c.316 0 .573-.241.573-.538 0-.298-.257-.539-.573-.539z" transform="translate(-688 -485) translate(616 190) translate(72 295)"/>
                </g>
            </g>
        </g>
    </g>
</svg>
