<svg xmlns="http://www.w3.org/2000/svg" xmlns:xlink="http://www.w3.org/1999/xlink" width="48" height="55" viewBox="0 0 48 55">
    <defs>
        <path id="akhcnhj6ha" d="M0.066 0.066L18.652 0.066 18.652 41.063 0.066 41.063z"/>
        <path id="pujoqzakkd" d="M0.063 0.048L29.561 0.048 29.561 16.048 0.063 16.048z"/>
        <filter id="hmx5c8jv9c">
            <feColorMatrix in="SourceGraphic" values="0 0 0 0 0.307631 0 0 0 0 0.307631 0 0 0 0 0.307631 0 0 0 1.000000 0"/>
        </filter>
    </defs>
    <g fill="none" fill-rule="evenodd">
        <g>
            <g>
                <g>
                    <path fill="#0CAA26" d="M11.675 38.642c.55 0 1-.45 1-1V2.768L4.887.173C4.508.056 4.129 0 3.73 0 1.673 0 0 1.673 0 3.73v31.086l11.349 3.782c.086.028.198.044.326.044" transform="translate(-939 -136) translate(939 136.046) translate(5.344 7.548)"/>
                    <g transform="translate(-939 -136) translate(939 136.046) translate(5.344 7.548) translate(0 3.702)">
                        <mask id="hgw5kvsijb" fill="#fff">
                            <use xlink:href="#akhcnhj6ha"/>
                        </mask>
                        <path fill="#0CAA26" d="M16.111.211l-.436-.145V33.94c0 2.206-1.794 4-4 4-.428 0-.834-.06-1.24-.186L.066 34.299c.248 1.298 1.174 2.396 2.474 2.85l11.225 3.74c.379.117.757.174 1.157.174 2.057 0 3.73-1.674 3.73-3.731V3.759c0-1.591-1.013-3.014-2.54-3.548" mask="url(#hgw5kvsijb)"/>
                    </g>
                </g>
                <g filter="url(#hmx5c8jv9c)" transform="translate(-939 -136) translate(939 136.046)">
                    <path fill="#686868" d="M46.499 22.547h-19c-.828 0-1.5-.671-1.5-1.5 0-.827.672-1.5 1.5-1.5h19c.828 0 1.5.673 1.5 1.5 0 .829-.672 1.5-1.5 1.5"/>
                    <path fill="#686868" d="M38.999 30.047c-.384 0-.768-.146-1.06-.44-.586-.586-.586-1.536 0-2.122l6.44-6.44-6.44-6.44c-.586-.585-.586-1.535 0-2.121.586-.586 1.536-.586 2.122 0l7.5 7.5c.586.586.586 1.536 0 2.121l-7.5 7.5c-.294.296-.678.442-1.062.442M30.499 26.047c-.828 0-1.5.672-1.5 1.5v9c0 1.378-1.122 2.5-2.5 2.5h-5.48v3h5.48c3.034 0 5.5-2.466 5.5-5.5v-9c0-.828-.672-1.5-1.5-1.5"/>
                    <g transform="translate(2.438)">
                        <mask id="ukonx1y5ve" fill="#fff">
                            <use xlink:href="#pujoqzakkd"/>
                        </mask>
                        <path fill="#686868" d="M28.061 16.048c-.828 0-1.5-.672-1.5-1.5v-9c0-1.378-1.121-2.5-2.5-2.5H1.563c-.827 0-1.5-.672-1.5-1.5s.673-1.5 1.5-1.5h22.5c3.034 0 5.5 2.466 5.5 5.5v9c0 .828-.673 1.5-1.5 1.5" mask="url(#ukonx1y5ve)"/>
                    </g>
                    <path fill="#686868" d="M4 3.048c-.55 0-1 .45-1 1v35.999c0 .426.286.822.694.964l11.98 3.992c.085.028.197.044.326.044.55 0 1-.45 1-1v-36c0-.425-.287-.82-.695-.963L4.326 3.092c-.086-.028-.198-.044-.326-.044m12 44.999c-.428 0-.835-.06-1.24-.186L2.724 43.85C1.086 43.279 0 41.753 0 40.047V4.048c0-2.206 1.794-4 4-4 .428 0 .834.06 1.24.186l12.036 4.01c1.637.572 2.723 2.098 2.723 3.804v35.999c0 2.206-1.793 4-4 4"/>
                </g>
            </g>
        </g>
    </g>
</svg>
