<svg xmlns="http://www.w3.org/2000/svg" width="16" height="16" viewBox="0 0 16 16">
    <defs>
        <filter id="34j2su22pa">
            <feColorMatrix in="SourceGraphic" values="0 0 0 0 0.649853 0 0 0 0 0.649853 0 0 0 0 0.649853 0 0 0 1.000000 0"/>
        </filter>
    </defs>
    <g fill="none" fill-rule="evenodd">
        <g>
            <g>
                <g filter="url(#34j2su22pa)" transform="translate(-641 -246) translate(616 188) translate(1 45)">
                    <g>
                        <path fill="#000" fill-rule="nonzero" d="M15.774 14.833l-4.541-4.541c.88-1.087 1.409-2.467 1.409-3.97C12.642 2.835 9.806 0 6.321 0S0 2.836 0 6.321s2.836 6.321 6.321 6.321c1.504 0 2.884-.53 3.97-1.41l4.542 4.542c.13.13.3.195.47.195.17 0 .341-.065.47-.195.261-.26.261-.68 0-.94zM6.32 11.311c-2.752 0-4.99-2.238-4.99-4.99 0-2.752 2.238-4.99 4.99-4.99 2.752 0 4.99 2.238 4.99 4.99 0 2.752-2.238 4.99-4.99 4.99z" transform="translate(24 13)"/>
                    </g>
                </g>
            </g>
        </g>
    </g>
</svg>
