<svg xmlns="http://www.w3.org/2000/svg" width="16" height="16" viewBox="0 0 16 16">
    <defs>
        <filter id="t9t3kjkvfa">
            <feColorMatrix in="SourceGraphic" values="0 0 0 0 1.000000 0 0 0 0 1.000000 0 0 0 0 1.000000 0 0 0 1.000000 0"/>
        </filter>
    </defs>
    <g fill="none" fill-rule="evenodd">
        <g>
            <g>
                <g>
                    <g>
                        <g filter="url(#t9t3kjkvfa)" transform="translate(-708 -298) translate(613 188) translate(2 45) translate(75 58) translate(18 5)">
                            <g>
                                <path fill="#FFF" fill-rule="nonzero" d="M15.593 8.493L8.05.96C7.782.693 7.424.466 6.974.28 6.524.093 6.112 0 5.739 0H1.35C.985 0 .668.134.4.4c-.266.268-.4.585-.4.95v4.39c0 .372.093.783.28 1.233.186.45.413.806.68 1.066l7.543 7.554c.26.26.577.39.95.39.365 0 .685-.13.96-.39l5.18-5.19c.26-.261.39-.577.39-.95 0-.366-.13-.686-.39-.96zM4.331 4.33c-.264.264-.582.395-.955.395s-.691-.131-.955-.395-.395-.582-.395-.955.131-.691.395-.955c.264-.263.582-.395.955-.395s.691.132.955.395c.263.264.395.582.395.955s-.131.691-.395.955z" transform="translate(0 2)"/>
                            </g>
                        </g>
                    </g>
                </g>
            </g>
        </g>
    </g>
</svg>
