<svg xmlns="http://www.w3.org/2000/svg" xmlns:xlink="http://www.w3.org/1999/xlink" width="256" height="244" viewBox="0 0 256 244">
    <defs>
        <path id="nnllsaudka" d="M0.533 0.165L245.292 0.165 245.292 242.779 0.533 242.779z"/>
        <path id="oa4v1evvjc" d="M74.537.165C25.877.273.277 54.288 10.43 81.848c10.3 27.954-5.885 39.724-9.563 66.941-3.678 27.22 24.235 37.41 24.235 37.41s28.542 8.33 34.615 14.82c12.258 13.099 12.617 25.595 38.798 38.201 26.572 12.794 88.91-10.604 97.443-43.094 10.715-40.797 46.02-49.262 49.135-93.681 3.112-44.37-30.896-72.826-58.53-57.905C158.932 59.46 126.66 1.665 76.637.194c-.61-.018-1.216-.029-1.82-.029h-.279z"/>
        <path id="uyuasslr2e" d="M0 0.429L70.781 0.429 70.781 44.964 0 44.964z"/>
    </defs>
    <g fill="none" fill-rule="evenodd">
        <g>
            <g>
                <g transform="translate(-47.000000, -189.000000) translate(47.000000, 189.000000) translate(9.481481, 0.696458)">
                    <mask id="fsrc803owb" fill="#fff">
                        <use xlink:href="#nnllsaudka"/>
                    </mask>
                    <path fill="#E0E0E0" d="M25.102 186.2S-2.811 176.007.867 148.79c3.678-27.218 19.861-38.988 9.564-66.941C.13 53.895 26.614-1.277 76.636.194 126.658 1.665 158.93 59.46 186.564 44.54c27.633-14.92 61.641 13.535 58.529 57.906-3.115 44.418-38.42 52.883-49.134 93.68-8.533 32.49-70.872 55.888-97.445 43.094-26.18-12.606-26.54-25.102-38.797-38.201-6.073-6.49-34.615-14.819-34.615-14.819" mask="url(#fsrc803owb)"/>
                </g>
                <g transform="translate(-47.000000, -189.000000) translate(47.000000, 189.000000) translate(9.481481, 0.696458)">
                    <mask id="gkikh574zd" fill="#fff">
                        <use xlink:href="#oa4v1evvjc"/>
                    </mask>
                    <path fill="#EBEBEB" d="M34.105 265.481L213.547 265.481 213.547 26.445 34.105 26.445z" mask="url(#gkikh574zd)"/>
                    <path fill="#CCC" d="M34.105 34.544L213.547 34.544 213.547 23.371 34.105 23.371z" mask="url(#gkikh574zd)"/>
                    <path fill="#FFF" d="M112.249 56.74L196.8 56.74 196.8 50.646 112.249 50.646zM112.249 69.689L196.8 69.689 196.8 63.595 112.249 63.595zM112.249 82.638L153.584 82.638 153.584 76.544 112.249 76.544z" mask="url(#gkikh574zd)"/>
                    <path fill="#8199A3" d="M42.224 28.61c0 1.082-.877 1.959-1.958 1.959-1.082 0-1.959-.877-1.959-1.959 0-1.081.877-1.958 1.959-1.958 1.081 0 1.958.877 1.958 1.958M48.94 28.61c0 1.082-.877 1.959-1.958 1.959-1.082 0-1.959-.877-1.959-1.959 0-1.081.877-1.958 1.959-1.958 1.081 0 1.958.877 1.958 1.958M55.656 28.61c0 1.082-.878 1.959-1.959 1.959s-1.958-.877-1.958-1.959c0-1.081.877-1.958 1.958-1.958s1.959.877 1.959 1.958" mask="url(#gkikh574zd)"/>
                    <path fill="#FFF" d="M50.059 50.775L98.598 50.478 98.894 99.016 50.356 99.313z" mask="url(#gkikh574zd)"/>
                </g>
                <g>
                    <path fill="#EFEFEF" d="M56.187 102.964c0 10.483-8.498 18.98-18.98 18.98-10.484 0-18.982-8.497-18.982-18.98 0-10.484 8.498-18.982 18.981-18.982 10.483 0 18.981 8.498 18.981 18.982" transform="translate(-47.000000, -189.000000) translate(47.000000, 189.000000) translate(0.000000, 15.349657)"/>
                    <path fill="#0AB822" d="M46.79 102.418L46.79 98.068 30.122 98.068 30.122 109.546 46.79 109.546 46.79 105.194 48.893 105.194 48.893 102.418zM24.154 107.915L28.71 105.734 28.71 101.879 24.154 99.697zM45.463 64.652L57.327 75.516 64.754 59.695z" transform="translate(-47.000000, -189.000000) translate(47.000000, 189.000000) translate(0.000000, 15.349657)"/>
                    <g transform="translate(-47.000000, -189.000000) translate(47.000000, 189.000000) translate(0.000000, 15.349657) translate(0.000000, 28.444444)">
                        <mask id="vd9ldgha4f" fill="#fff">
                            <use xlink:href="#uyuasslr2e"/>
                        </mask>
                        <path fill="#0AB822" d="M54.196 39.644l-31.31 5.064c-10.758 1.74-20.89-5.57-22.63-16.328-1.74-10.758 5.57-20.89 16.328-22.63L47.894.685c10.758-1.74 20.89 5.57 22.63 16.328 1.74 10.758-5.57 20.89-16.328 22.63" mask="url(#vd9ldgha4f)"/>
                    </g>
                    <path fill="#FFF" d="M49.622 37.028l-1.032.156-29.172 4.412-1.032.156.156 1.032 3.417 22.594.156 1.032 1.032-.156 29.172-4.412 1.031-.156-.156-1.032-3.416-22.593-.156-1.033zm-.877 1.188l3.418 22.594L22.99 65.22l-3.417-22.593 29.171-4.412z" transform="translate(-47.000000, -189.000000) translate(47.000000, 189.000000) translate(0.000000, 15.349657)"/>
                    <path fill="#FFF" d="M27.117 62.078L31.164 51.022 37.482 58.272 40.151 52.895 45.668 59.132zM39.932 44.242c.177 1.175-.631 2.271-1.806 2.449-1.175.177-2.27-.631-2.449-1.805-.177-1.175.631-2.272 1.806-2.45 1.175-.177 2.27.63 2.449 1.806" transform="translate(-47.000000, -189.000000) translate(47.000000, 189.000000) translate(0.000000, 15.349657)"/>
                    <path fill="#B2B2B2" d="M159.481 165.208l15.882-5.477-12.506-38.808c-3.203-4.26-8.385-8.945-14.227-6.93l-5.304 1.829 16.155 49.386z" transform="translate(-47.000000, -189.000000) translate(47.000000, 189.000000) translate(0.000000, 15.349657)"/>
                    <path fill="#647D8C" d="M182.472 93.633L182.584 117.747 193.588 114.679 197.474 88.632z" transform="translate(-47.000000, -189.000000) translate(47.000000, 189.000000) translate(0.000000, 15.349657)"/>
                    <path fill="#416D82" d="M182.472 93.633L181.085 92.876 181.304 116.467 182.584 117.747z" transform="translate(-47.000000, -189.000000) translate(47.000000, 189.000000) translate(0.000000, 15.349657)"/>
                    <path fill="#8199A3" d="M182.472 93.633L197.474 88.632 195.771 88.174 181.085 92.876z" transform="translate(-47.000000, -189.000000) translate(47.000000, 189.000000) translate(0.000000, 15.349657)"/>
                    <path fill="#FFF" d="M191.532 94.386c-.227.844-.866 1.405-1.43 1.255-.562-.152-.834-.959-.608-1.803.227-.844.867-1.406 1.43-1.254.562.151.835.958.608 1.802" transform="translate(-47.000000, -189.000000) translate(47.000000, 189.000000) translate(0.000000, 15.349657)"/>
                    <path fill="#253B64" d="M108.907 61.113s-7.633 5.807-9.335 13.977c-1.702 8.17-2.042 12.425-5.447 17.361-3.403 4.936-5.106 11.744-2.383 16.34 2.724 4.596.511 8.511 1.363 12.255.85 3.745 5.957 11.234 12.084 10.383 6.127-.851 24.17-14.638 26.553-16.17 2.382-1.532 13.446 0 14.297-7.66.85-7.66 1.191-13.957-2.723-20.935-3.915-6.979-5.123-11.221-5.804-15.136-.681-3.915.34-8.17-7.32-10.043-7.658-1.872-15.525-8.221-21.285-.372" transform="translate(-47.000000, -189.000000) translate(47.000000, 189.000000) translate(0.000000, 15.349657)"/>
                    <path fill="#E5E5E5" d="M110.958 111.514s5-.707 5.491-3.36c.493-2.653-.206-7.412-.206-7.412l13.84-1.191s-.116 9.091.635 9.732c1.011.861 6.813 1.684 6.813 1.684s2.934 6.818-2.352 9.592c-5.286 2.774-21.516 2.532-24.221-9.045" transform="translate(-47.000000, -189.000000) translate(47.000000, 189.000000) translate(0.000000, 15.349657)"/>
                    <path fill="#B2B2B2" d="M90.28 162.669l-18.3-5.112L85.606 121.2c2.583-5.343 9.508-8.285 16.042-5.632l5.765 2.368L90.28 162.67z" transform="translate(-47.000000, -189.000000) translate(47.000000, 189.000000) translate(0.000000, 15.349657)"/>
                    <path fill="#B2B2B2" d="M154.764 113.753l-1.954 76.974-52.782.776-6.911-76.264 17.841-3.725c1.33 2.008 5.872 6.902 14.835 6.012 8.404-.84 9.456-4.86 10.206-6.758l18.765 2.985z" transform="translate(-47.000000, -189.000000) translate(47.000000, 189.000000) translate(0.000000, 15.349657)"/>
                    <path fill="#EFEFEF" d="M128.867 108.196s-2.037 0-3.425-.185c-6.21-.828-15.994-7.616-16.757-16.571l-1.17-15.664c-.764-8.956 5.939-16.908 14.893-17.67 8.955-.764 16.908 5.938 17.67 14.893l1.524 17.877c.764 8.955-6.695 17.192-12.735 17.32" transform="translate(-47.000000, -189.000000) translate(47.000000, 189.000000) translate(0.000000, 15.349657)"/>
                    <path fill="#EFEFEF" d="M106.182 83.85s-5.348-1.69-4.369 4.443c.98 6.133 6.655 7.99 9.287 6.812 0 0-2.497-6.675-3.57-8.907-.406-.845-1.348-2.348-1.348-2.348" transform="translate(-47.000000, -189.000000) translate(47.000000, 189.000000) translate(0.000000, 15.349657)"/>
                    <path stroke="#253B64" stroke-linecap="round" stroke-linejoin="round" stroke-width="1.035" d="M132.537 88.41s-.348 1.046 1.987 4.04c1.15 1.477-2.19 1.767-2.19 1.767" transform="translate(-47.000000, -189.000000) translate(47.000000, 189.000000) translate(0.000000, 15.349657)"/>
                    <path fill="#B2B2B2" d="M153.494 146.223l15.882-5.477-3.264-12.312c-1.78-8.138-4.45-14.113-15.13-15.384l-7.183 2.524 9.695 30.649z" transform="translate(-47.000000, -189.000000) translate(47.000000, 189.000000) translate(0.000000, 15.349657)"/>
                    <path fill="#253B64" d="M141.02 76.677s-21.134 2.536-23.881 5.284l-3.382-5.495s-.634 6.13-.211 8.242c.422 2.114-3.593 5.918-3.593 5.918l-4.873-8.564s-2.947-8.344.857-17.22c3.804-8.877 15.755-13.02 25.784-5.707 10.145 7.398 9.3 17.542 9.3 17.542" transform="translate(-47.000000, -189.000000) translate(47.000000, 189.000000) translate(0.000000, 15.349657)"/>
                    <path fill="#F2F4F3" d="M97.166 114.166l6.853 22.032s-4.15 29.046-5.532 34.301c-1.384 5.257-3.155 41.604-3.155 41.604s7.698 12.624 25.213 15.347c16.444 2.559 36.906-7.673 36.906-7.673l-3.639-51.49s-5.007-31.476-5.256-34.578c-.25-3.103 2.426-20.66 2.426-20.66l-4.477-.75-3.205 22.24-34.98.898-6.64-22.13-4.514.86z" transform="translate(-47.000000, -189.000000) translate(47.000000, 189.000000) translate(0.000000, 15.349657)"/>
                    <path fill="#EFEFEF" d="M184.98 115.398s-2.97-6.51-2.587-9.054c.383-2.546 4.267 5.02 4.267 5.02s-4.26-8.939-2.388-10.189c1.873-1.25 5.316 8.027 5.316 8.027s-2.53-8.22-1.253-9.988c1.275-1.768 4.22 8.382 4.22 8.382s-.906-4.974.37-6.742c1.277-1.768 2.102 11.577 1.643 13.643-.991 4.46-6.968 12.945-6.968 12.945l-8.125-3.198 5.506-8.846z" transform="translate(-47.000000, -189.000000) translate(47.000000, 189.000000) translate(0.000000, 15.349657)"/>
                    <path fill="#B2B2B2" d="M178.057 122.466s-11.458 18.567-15.53 27.358c-2.146 4.636-4.258 11.034-2.441 15.955 1.817 4.92 11.763 11.007 19.648-6.451 8.244-18.258 12.275-30.883 12.275-30.883l-13.952-5.979zM102.995 193.078s-30.846-20.524-32.352-25.794c-1.506-5.272.376-10.166 4.33-13.555 3.952-3.388 30.432 23.442 31.379 28.8l-3.357 10.55z" transform="translate(-47.000000, -189.000000) translate(47.000000, 189.000000) translate(0.000000, 15.349657)"/>
                    <path fill="#CECECE" d="M106.989 179.355L101.667 195.542 105.159 197.451 110.511 180.539z" transform="translate(-47.000000, -189.000000) translate(47.000000, 189.000000) translate(0.000000, 15.349657)"/>
                    <path fill="#253B64" d="M124.914 86.856c0 .892-.723 1.616-1.616 1.616-.892 0-1.616-.724-1.616-1.616 0-.892.724-1.615 1.616-1.615.893 0 1.616.723 1.616 1.615M138.684 85.549c0 .892-.724 1.615-1.616 1.615-.892 0-1.615-.723-1.615-1.615 0-.893.723-1.617 1.615-1.617s1.616.724 1.616 1.617M117.744 83.752s1.248-1.637 3.196-2.051c1.947-.415 4.577.671 4.274 1.28-.303.608-2.866.493-3.556.566-.691.073-4.125 1.733-3.914.205M133.59 82.12s1.034-1.357 2.648-1.701c1.615-.343 3.795.556 3.544 1.06-.25.505-2.376.41-2.948.47-.573.06-3.42 1.437-3.244.17M126.601 99.518s3.353 2.707 6.415-.23c.811-.779 1.028-1.887-.11-1.423-1.952.798-5.879.101-6.145.177-.267.076-1.27.439-.16 1.476" transform="translate(-47.000000, -189.000000) translate(47.000000, 189.000000) translate(0.000000, 15.349657)"/>
                    <path fill="#FFF" d="M249.578 6.671L184.598.562c-3.474-.326-6.554 2.225-6.88 5.698l-4.25 45.213c-.328 3.473 2.224 6.554 5.697 6.88l6.193.583 6.04 11.466 9.927-9.966 42.82 4.025c3.473.327 6.554-2.223 6.88-5.697l4.25-45.213c.327-3.473-2.224-6.554-5.697-6.88" transform="translate(-47.000000, -189.000000) translate(47.000000, 189.000000) translate(0.000000, 15.349657)"/>
                    <path stroke="#EFEFEF" stroke-width="1.181" d="M249.578 6.671L184.598.562c-3.474-.326-6.554 2.225-6.88 5.698l-4.25 45.213c-.328 3.473 2.224 6.554 5.697 6.88l6.193.583 6.04 11.466 9.927-9.966 42.82 4.025c3.473.327 6.554-2.223 6.88-5.697l4.25-45.213c.327-3.473-2.224-6.554-5.697-6.88z" transform="translate(-47.000000, -189.000000) translate(47.000000, 189.000000) translate(0.000000, 15.349657)"/>
                    <path fill="#0AB822" d="M237.335 54.775l-48.286-4.36c-2.711-.244-4.711-2.641-4.466-5.353l2.71-30.03c.246-2.711 2.642-4.711 5.354-4.467l48.286 4.36c2.71.245 4.711 2.642 4.466 5.353l-2.711 30.03c-.245 2.712-2.641 4.711-5.353 4.467" transform="translate(-47.000000, -189.000000) translate(47.000000, 189.000000) translate(0.000000, 15.349657)"/>
                    <path fill="#FFF" d="M240.263 24.088L218.963 22.165 218.79 24.081 240.09 26.004zM239.611 31.313L218.311 29.39 218.137 31.307 239.438 33.23zM228.942 37.635L217.659 36.616 217.485 38.533 228.768 39.551z" transform="translate(-47.000000, -189.000000) translate(47.000000, 189.000000) translate(0.000000, 15.349657)"/>
                    <path stroke="#FFF" stroke-width=".658" d="M211.358 28.496c-.466 5.163-5.03 8.971-10.194 8.505-5.163-.467-8.97-5.03-8.505-10.193.467-5.164 5.03-8.971 10.194-8.506 5.163.467 8.971 5.03 8.505 10.194z" transform="translate(-47.000000, -189.000000) translate(47.000000, 189.000000) translate(0.000000, 15.349657)"/>
                    <path fill="#FFF" d="M205.528 24.225c-.159 1.758-1.713 3.055-3.471 2.896-1.759-.159-3.056-1.713-2.897-3.471.158-1.758 1.713-3.056 3.472-2.897 1.758.16 3.055 1.713 2.896 3.472M201.962 28.173c-3.33-.301-6.422 1.038-8.504 3.34 1.35 2.981 4.216 5.172 7.706 5.488 3.491.314 6.704-1.328 8.566-4.019-1.636-2.638-4.439-4.509-7.768-4.81M209.635 45.537L191.303 43.882 191.495 41.758 209.826 43.413z" transform="translate(-47.000000, -189.000000) translate(47.000000, 189.000000) translate(0.000000, 15.349657)"/>
                </g>
            </g>
        </g>
    </g>
</svg>
